<?xml version="1.0" encoding="utf-8"?>
<!-- Generator: Adobe Illustrator 23.0.3, SVG Export Plug-In . SVG Version: 6.00 Build 0)  -->
<svg version="1.1" id="Layer_1" xmlns="http://www.w3.org/2000/svg" xmlns:xlink="http://www.w3.org/1999/xlink" x="0px" y="0px"
	 viewBox="0 0 16.25 16.25" style="enable-background:new 0 0 16.25 16.25;" xml:space="preserve">
<style type="text/css">
	.st0{fill:none;stroke:#FFFFFF;stroke-width:1.25;stroke-miterlimit:10;}
	.st1{fill:#FFFFFF;}
</style>
<g>
	<g>
		<path class="st0" d="M15.1,15.62H1.15c-0.29,0-0.52-0.23-0.52-0.52V1.15c0-0.29,0.23-0.52,0.52-0.52H15.1
			c0.29,0,0.52,0.23,0.52,0.52V15.1C15.62,15.39,15.39,15.62,15.1,15.62z"/>
		<path class="st1" d="M2.5,11.72V2.96c0-0.27,0.22-0.5,0.5-0.5h10.26c0.27,0,0.5,0.22,0.5,0.5v8.77c0,0.27-0.22,0.5-0.5,0.5H3
			C2.72,12.22,2.5,12,2.5,11.72z"/>
	</g>
</g>
</svg>
