<?xml version="1.0" encoding="utf-8"?>
<!-- Generator: Adobe Illustrator 23.0.3, SVG Export Plug-In . SVG Version: 6.00 Build 0)  -->
<svg version="1.1" id="Layer_1" xmlns="http://www.w3.org/2000/svg" xmlns:xlink="http://www.w3.org/1999/xlink" x="0px" y="0px"
	 viewBox="0 0 14.05 14.05" style="enable-background:new 0 0 14.05 14.05;" xml:space="preserve">
<style type="text/css">
	.st0{fill:none;stroke:#FFFFFF;stroke-width:1.25;stroke-miterlimit:10;}
</style>
<g>
	<g>
		<path class="st0" d="M13.43,3.61v8.87c0,0.52-0.42,0.95-0.95,0.95H1.57c-0.52,0-0.95-0.42-0.95-0.95V1.57
			c0-0.52,0.42-0.95,0.95-0.95h8.87c0.25,0,0.49,0.1,0.67,0.28l2.03,2.03C13.33,3.11,13.43,3.35,13.43,3.61z"/>
		<path class="st0" d="M11.29,13.43H2.76V9.59c0-0.24,0.19-0.43,0.43-0.43h7.67c0.24,0,0.43,0.19,0.43,0.43
			C11.29,9.59,11.29,13.43,11.29,13.43z"/>
		<path class="st0" d="M8.67,4.89H3.24c-0.26,0-0.47-0.21-0.47-0.47v-3.8h6.38v3.79C9.15,4.68,8.93,4.89,8.67,4.89z"/>
		<line class="st0" x1="6.75" y1="0.62" x2="6.75" y2="4.89"/>
	</g>
</g>
</svg>
