<?xml version="1.0" encoding="utf-8"?>
<!-- Generator: Adobe Illustrator 23.0.3, SVG Export Plug-In . SVG Version: 6.00 Build 0)  -->
<svg version="1.1" id="Layer_1" xmlns="http://www.w3.org/2000/svg" xmlns:xlink="http://www.w3.org/1999/xlink" x="0px" y="0px"
	 viewBox="0 0 38.58 41.12" style="enable-background:new 0 0 38.58 41.12;" xml:space="preserve">
<style type="text/css">
	.st0{fill:#FFFFFF;}
</style>
<g>
	<path class="st0" d="M19.29,1c0.87,0,1.72,0.06,2.57,0.17l0.64,3.79v0.01c0.62,0.12,1.22,0.29,1.82,0.49
		c2.07,0.67,3.95,1.77,5.54,3.19v0.01c0.48,0.42,0.92,0.86,1.33,1.33h0.01l3.59-1.36c1.05,1.36,1.92,2.85,2.58,4.45l-2.98,2.45
		c0.2,0.6,0.37,1.2,0.49,1.82h0.01c0.21,1.04,0.32,2.1,0.32,3.2c0,1.1-0.11,2.16-0.32,3.2h-0.01c-0.12,0.62-0.29,1.22-0.49,1.82
		l2.98,2.45c-0.66,1.6-1.53,3.09-2.58,4.45l-3.59-1.36h-0.01c-0.42,0.48-0.86,0.92-1.33,1.33v0.01c-1.59,1.42-3.47,2.52-5.54,3.19
		c-0.6,0.2-1.2,0.37-1.82,0.49v0.01l-0.64,3.79c-0.84,0.11-1.7,0.17-2.57,0.17s-1.72-0.06-2.57-0.17l-0.64-3.79v-0.01
		c-0.62-0.12-1.22-0.29-1.82-0.49c-2.07-0.67-3.95-1.77-5.54-3.19v-0.01c-0.48-0.42-0.92-0.86-1.33-1.33H7.38l-3.59,1.36
		c-1.05-1.36-1.92-2.85-2.58-4.45l2.98-2.45c-0.2-0.6-0.37-1.2-0.49-1.82H3.69c-0.21-1.04-0.32-2.1-0.32-3.2
		c0-1.1,0.11-2.16,0.32-3.2H3.7c0.12-0.62,0.29-1.22,0.49-1.82l-2.98-2.45c0.66-1.6,1.53-3.09,2.58-4.45L7.38,10h0.01
		c0.42-0.48,0.86-0.92,1.33-1.33V8.65c1.59-1.42,3.47-2.52,5.54-3.19c0.6-0.2,1.2-0.37,1.82-0.49V4.96l0.64-3.79
		C17.56,1.06,18.42,1,19.29,1 M19.29,32.84c6.79,0,12.28-5.49,12.28-12.28c0-6.79-5.49-12.28-12.28-12.28
		c-6.79,0-12.28,5.49-12.28,12.28C7.01,27.35,12.5,32.84,19.29,32.84 M19.29,0c-0.88,0-1.78,0.06-2.7,0.18l-0.73,0.1l-0.12,0.73
		l-0.53,3.14c-0.39,0.1-0.8,0.22-1.25,0.37c-2.18,0.71-4.16,1.85-5.89,3.4l-0.33,0.3v0.01c-0.21,0.2-0.42,0.4-0.62,0.61L4.14,7.71
		L3.45,7.44L3,8.03c-1.11,1.43-2.02,3.01-2.71,4.68L0,13.39l0.57,0.47l2.46,2.02c-0.05,0.16-0.09,0.32-0.13,0.47H2.88l-0.17,0.8
		c-0.22,1.12-0.34,2.26-0.34,3.4c0,1.14,0.11,2.28,0.34,3.4l0.16,0.8H2.9c0.04,0.15,0.08,0.31,0.13,0.47l-2.46,2.02L0,27.73
		l0.28,0.68c0.69,1.67,1.6,3.25,2.71,4.68l0.45,0.58l0.69-0.26l2.97-1.12c0.2,0.21,0.4,0.41,0.62,0.61v0l0.33,0.31
		c1.73,1.54,3.71,2.69,5.89,3.4c0.45,0.15,0.86,0.27,1.25,0.37l0.53,3.14l0.12,0.73l0.73,0.1c0.91,0.12,1.82,0.18,2.7,0.18
		c0.88,0,1.78-0.06,2.7-0.18l0.73-0.1l0.12-0.73l0.53-3.14c0.39-0.1,0.8-0.22,1.25-0.37c2.18-0.71,4.16-1.85,5.89-3.4l0.33-0.3V32.9
		c0.21-0.2,0.42-0.4,0.62-0.61l2.97,1.12l0.69,0.26l0.45-0.58c1.11-1.43,2.02-3.01,2.71-4.68l0.28-0.68L38,27.26l-2.46-2.02
		c0.05-0.16,0.09-0.32,0.13-0.47h0.02l0.17-0.8c0.22-1.12,0.34-2.26,0.34-3.4c0-1.14-0.11-2.28-0.34-3.4l-0.16-0.8h-0.04
		c-0.04-0.15-0.08-0.31-0.13-0.47L38,13.86l0.57-0.47l-0.28-0.68c-0.69-1.67-1.6-3.25-2.71-4.68l-0.45-0.58l-0.69,0.26l-2.97,1.12
		c-0.2-0.21-0.4-0.41-0.62-0.61v0l-0.33-0.31c-1.73-1.54-3.71-2.69-5.89-3.4c-0.45-0.15-0.87-0.27-1.25-0.37l-0.53-3.14l-0.12-0.73
		l-0.73-0.1C21.07,0.06,20.16,0,19.29,0L19.29,0z M19.29,31.84c-6.22,0-11.28-5.06-11.28-11.28S13.07,9.28,19.29,9.28
		s11.28,5.06,11.28,11.28S25.51,31.84,19.29,31.84L19.29,31.84z"/>
</g>
</svg>
