<?xml version="1.0" encoding="utf-8"?>
<!-- Generator: Adobe Illustrator 23.0.3, SVG Export Plug-In . SVG Version: 6.00 Build 0)  -->
<svg version="1.1" id="Layer_1" xmlns="http://www.w3.org/2000/svg" xmlns:xlink="http://www.w3.org/1999/xlink" x="0px" y="0px"
	 viewBox="0 0 15.16 16.46" style="enable-background:new 0 0 15.16 16.46;" xml:space="preserve">
<style type="text/css">
	.st0{fill:none;stroke:#FFFFFF;stroke-width:1.25;stroke-linecap:round;stroke-linejoin:round;stroke-miterlimit:10;}
	.st1{fill:none;stroke:#FFFFFF;stroke-linecap:round;stroke-linejoin:round;stroke-miterlimit:10;}
</style>
<g>
	<g>
		<path class="st0" d="M11.74,15.84H3.61c-0.22,0-0.41-0.15-0.42-0.34L2.38,4.04h10.6L12.17,15.5
			C12.15,15.69,11.97,15.84,11.74,15.84z"/>
		<g>
			<line class="st1" x1="7.68" y1="6.02" x2="7.68" y2="13.86"/>
			<line class="st1" x1="5.25" y1="6.02" x2="5.6" y2="13.86"/>
			<line class="st1" x1="10.1" y1="6.02" x2="9.75" y2="13.86"/>
		</g>
		<g>
			<path class="st0" d="M9.07,1.88H6.28V0.97c0-0.19,0.15-0.34,0.34-0.34h2.11c0.19,0,0.34,0.15,0.34,0.34
				C9.07,0.97,9.07,1.88,9.07,1.88z"/>
			<line class="st0" x1="14.54" y1="1.88" x2="0.62" y2="1.88"/>
		</g>
	</g>
</g>
</svg>
