<?xml version="1.0" encoding="utf-8"?>
<!-- Generator: Adobe Illustrator 23.0.3, SVG Export Plug-In . SVG Version: 6.00 Build 0)  -->
<svg version="1.1" id="Layer_1" xmlns="http://www.w3.org/2000/svg" xmlns:xlink="http://www.w3.org/1999/xlink" x="0px" y="0px"
	 viewBox="0 0 249.22 63.29" style="enable-background:new 0 0 249.22 63.29;" xml:space="preserve">
<style type="text/css">
	.st0{fill:#FCEE27;}
</style>
<g>
	<g>
		<circle class="st0" cx="64.47" cy="31.76" r="31.03"/>
		<path d="M62.91,29.27l-16.07,0v2.25l6.91,0v10.82H56l0-10.82h6.91V29.27z M66.03,29.27v2.25h6.91l0,10.82h2.25V31.52l6.91,0v-2.25
			L66.03,29.27z M64.47,36.68c0.97,0,1.76,0.79,1.76,1.76h2.25c0-2.21-1.8-4.01-4.01-4.01c-2.21,0-4.01,1.8-4.01,4.01
			c0,1.13,0.47,2.16,1.23,2.89c-0.76,0.73-1.23,1.75-1.23,2.89c0,2.21,1.8,4.01,4.01,4.01c0.63,0,1.23-0.15,1.76-0.41v2.27h2.25
			v-7.74h-2.25v1.88c0,0.97-0.79,1.76-1.76,1.76c-0.97,0-1.76-0.79-1.76-1.76c0-0.97,0.79-1.76,1.76-1.76v-2.25
			c-0.97,0-1.76-0.79-1.76-1.76C62.71,37.47,63.5,36.68,64.47,36.68z"/>
	</g>
	<g>
		<g>
			<path d="M179.98,39.24c0.96-0.15,1.65,0.44,1.82,1.53l0.17,1.13l14.65-2.46l0.22,1.41l-17.65,2.93l-0.39-2.55
				C178.63,40.15,179.09,39.38,179.98,39.24z M180.26,40.73c-0.37,0.06-0.52,0.31-0.46,0.74l0.12,0.76l1.12-0.17l-0.12-0.75
				C180.86,40.87,180.63,40.67,180.26,40.73z"/>
			<path d="M180.37,37.42c-1.27-0.69-1.58-2.01-0.83-3.4c0.76-1.39,2.04-1.84,3.31-1.15c1.27,0.69,1.58,2.01,0.83,3.4
				C182.92,37.66,181.64,38.11,180.37,37.42z M182.14,34.17c-0.69-0.38-1.33-0.24-1.65,0.36c-0.32,0.6-0.1,1.2,0.6,1.58
				c0.69,0.38,1.33,0.24,1.65-0.36C183.06,35.16,182.83,34.55,182.14,34.17z"/>
			<path d="M189.07,30.09c0.25,0.93-0.26,1.69-1.32,1.98l-1.1,0.3l0.37,1.37l-1.38,0.37l-1.17-4.3l2.49-0.67
				C188.02,28.85,188.83,29.22,189.07,30.09z M187.62,30.53c-0.1-0.36-0.37-0.49-0.78-0.37l-0.74,0.2l0.3,1.1l0.73-0.2
				C187.55,31.15,187.72,30.9,187.62,30.53z"/>
			<path d="M197.7,31.19l-1.85,1.85c-0.37,0.37-0.39,0.8,0,1.19c0.37,0.37,0.82,0.37,1.19,0l1.85-1.85l1.01,1.01l-1.93,1.93
				c-0.8,0.8-1.9,0.72-2.92-0.3c-1.02-1.02-1.1-2.12-0.29-2.92l1.93-1.92L197.7,31.19z"/>
			<path d="M201.95,37c0.16,0.95-0.42,1.65-1.51,1.84l-1.13,0.19l0.23,1.4l-1.41,0.23l-0.73-4.4l2.54-0.42
				C201.03,35.66,201.8,36.11,201.95,37z M200.46,37.3c-0.06-0.37-0.32-0.52-0.74-0.45l-0.76,0.13l0.19,1.12l0.75-0.12
				C200.33,37.9,200.53,37.67,200.46,37.3z"/>
			<g>
				<path d="M193.63,32.09c-1.07-0.46-2.19-0.68-3.35-0.65l-0.03-1.14c1.32-0.03,2.61,0.22,3.83,0.75L193.63,32.09z"/>
			</g>
		</g>
		<path d="M115.17,36.87l3.4-3.32c1.94,1.26,4.48,1.46,6.63,1.1c2.03-0.34,2.76-0.91,2.65-1.58c-0.08-0.48-0.5-0.62-1.6-0.55
			l-3.64,0.2c-2.77,0.16-5.55-0.4-6-3.04c-0.35-2.07,0.75-4.9,7.44-6.03c2.8-0.47,6.52-0.76,8.87,0.76l-2.78,3.17
			c-1.75-1.12-4.01-1.04-6.1-0.65c-1.72,0.33-2.41,0.68-2.29,1.38c0.08,0.48,0.48,0.63,1.8,0.56l3.42-0.22
			c2.91-0.17,5.63,0.12,6.11,2.97c0.37,2.16-0.63,5.17-7.82,6.39C120.91,38.73,117.38,38.6,115.17,36.87z"/>
		<path d="M138.69,21.63l-0.18,6.8c-0.08,2.83,2.04,3.2,3.71,2.92c2.41-0.41,3.23-2.1,3.29-3.85l0.14-7.04l5.19-0.88l-0.15,7.21
			c-0.08,4.08-2.04,7.25-7.98,8.25c-4.95,0.84-9.54-0.34-9.38-6l0.19-6.53L138.69,21.63z"/>
		<path d="M163.45,31.03l0.18-6.8c0.08-2.83-2.04-3.2-3.71-2.92c-2.41,0.41-3.23,2.1-3.29,3.85l-0.14,7.04l-5.19,0.88l0.15-7.21
			c0.08-4.08,2.04-7.25,7.98-8.25c4.95-0.84,9.54,0.34,9.38,6l-0.19,6.53L163.45,31.03z"/>
		<path d="M181.54,27.96l0.18-6.8c0.08-2.83-2.04-3.2-3.71-2.92c-2.41,0.41-3.23,2.1-3.29,3.85l-0.14,7.04l-5.19,0.88l0.15-7.21
			c0.08-4.08,2.04-7.25,7.98-8.25c4.95-0.84,9.54,0.34,9.38,6l-0.19,6.53L181.54,27.96z"/>
		<path d="M191.4,21.81l-6.79-7.97l5.47-0.93l3.27,4.41c0.35,0.46,0.43,0.6,0.5,0.74l0.04-0.01c0.06-0.16,0.15-0.33,0.53-0.91
			l3.64-5.58l5.72-0.97l-7.19,10.34l-0.09,4.5l-5.19,0.88L191.4,21.81z"/>
		<path d="M117.73,51.95l3.4-3.32c1.94,1.26,4.48,1.46,6.63,1.1c2.03-0.34,2.76-0.91,2.65-1.58c-0.08-0.48-0.5-0.62-1.6-0.55
			l-3.64,0.2c-2.77,0.16-5.55-0.4-6-3.04c-0.35-2.07,0.75-4.9,7.44-6.03c2.8-0.47,6.52-0.76,8.87,0.76l-2.78,3.17
			c-1.75-1.12-4.01-1.04-6.1-0.65c-1.72,0.33-2.41,0.68-2.29,1.38c0.08,0.48,0.48,0.63,1.8,0.56l3.42-0.22
			c2.91-0.17,5.63,0.12,6.11,2.97c0.37,2.16-0.63,5.17-7.82,6.39C123.47,53.81,119.94,53.68,117.73,51.95z"/>
		<path d="M136.1,51.19l0.29-13.66l5.19-0.88l-0.29,13.66L136.1,51.19z"/>
		<path d="M142.63,36.47l8.25-1.4c4.72-0.8,9.12-0.57,9.93,4.22c0.64,3.8-1.61,7.98-9.21,9.27l-9.26,1.57L142.63,36.47z
			 M150.89,45.5c3.77-0.64,4.76-2.93,4.43-4.87c-0.39-2.27-2.34-2.75-4.31-2.41l-3.26,0.55l-0.16,7.29L150.89,45.5z"/>
		<path d="M166.6,35.7l-0.05,1.94l9.51-1.61l-0.05,3.04l-9.51,1.61l-0.05,2.06l9.99-1.7l-0.08,3.31l-15.18,2.58l0.29-13.66
			l15.04-2.55l-0.04,3.3L166.6,35.7z"/>
	</g>
</g>
</svg>
