<?xml version="1.0" encoding="utf-8"?>
<!-- Generator: Adobe Illustrator 23.0.6, SVG Export Plug-In . SVG Version: 6.00 Build 0)  -->
<svg version="1.1" id="Layer_1" xmlns="http://www.w3.org/2000/svg" xmlns:xlink="http://www.w3.org/1999/xlink" x="0px" y="0px"
	 viewBox="0 0 102 43" style="enable-background:new 0 0 102 43;" xml:space="preserve">
<style type="text/css">
	.st0{fill:none;stroke:#EAE5D3;stroke-width:2;}
</style>
<g>
	<path class="st0" d="M7.9,5.9c1.7-0.6,3.2-0.9,4.7-1.1c1.3-0.2,5-0.9,7-1.5c2-0.5,3.6-0.7,7-0.7c3.8,0,7.5-0.6,11.1-1
		c1.6-0.2,3-0.5,4.6-0.5c3.8,0,8.4,2.3,12.5,3.5c3.6,1.1,17.4,4.7,23.5,5.5c1.8,0.2,2.1,0.4,2.6,1.9c1.2,3.3,1.8,7.3,1.8,11.4
		c0,2.2-0.1,4.6-0.4,6.6c-0.2,1.2-0.3,2-1.8,2.6c-1.8,0.7-5,2.7-8.6,4.4c-3,1.4-7,2.7-10.8,2.7h-6.9c-4.9,0-9.8-0.2-13.7-1l-1.6,0.5
		c-0.6,0.2-1.2,0.4-1.9,0.4c1.4,0.1,2.3,0,3.3-0.3c0.4,0.1,1.5,0.3,2,0.3c-0.7,1.1-1.6,1.4-3,1.7c-1,0.2-1.9,0.3-3,0.3
		c-1.5,0-2.5-0.1-3.3-0.4c-1.5-0.4-1.9-1.3-2.7-3.1c-0.2-0.6-0.4-1.2-0.4-1.8c0-0.6,0.2-1.2,0.6-1.6c0.7-0.7,3.2-1.6,4.7-2
		c1.4-0.4,2.9-0.9,4.1-1.5c0.1-0.1,0.1-0.2,0-0.2c-2.4,0.1-7.3,1.6-9.8,1.6c-3.3,0-4.7-1.6-4.7-5.2c0-2.8,1.6-3.3,4.1-3.8
		c1.6-0.4,6.1-1.6,8-2.2c0.2-0.1,0.2-0.3-0.1-0.3c-1.3,0.1-3.3,0.6-5.5,1c-1.9,0.4-4.1,0.9-5.4,0.9c-2.6,0-3.6-1.8-4.3-3.8
		c-0.2-0.7-0.2-1.3-0.2-1.9c0-1.3,0.5-2.2,1.3-2.8c1.3-1,3.3-1.4,4.7-1.6c1.9-0.3,6.1-1.1,7.8-1.7c0.2-0.1,0.2-0.4,0.1-0.4
		c-0.3,0-0.8-0.1-1.3,0c-2.7,0.4-5.5,0.4-9-0.2c-3.9,1-6.4,1.2-10.5,0.7c-2,0.5-4.1,1.4-8,1.4c-1.3,0-2.9-0.1-4-0.7
		C1.7,11.7,1,10.7,1,9.6C1,8.7,1.9,8,3,7.7C4.3,7.4,6,6.6,7.9,5.9z M78.6,39c0.5,0,1-0.6,1.3-1.1c1.9-3.5,2.9-9.1,2.8-14.5
		c-0.1-6.2-1.4-12.3-3.8-15.4c-0.2-0.4-0.7-0.9-1.2-0.9c-0.4,0-0.9,0.4-1.2,1.9c-0.5,0-1.5-0.1-2.2-0.4c0.7-3,1.6-3.8,3.5-3.8
		c2.1,0,9.4,0.4,14.7,0.5c2.3,0.1,3.2,0.5,3.9,1.6c3.2,5.2,4.6,11.1,4.6,17.1c0,4.9-1,9.8-2.8,14.4c-1,2.4-1.8,3.4-3.9,3.5
		C90.2,42,81.3,42,78.4,41.7c-1.6-0.2-2.1,0.4-2.9-6.1c1-0.7,2.2-1.4,4.1-2.2c-0.1,1.5-0.9,4.4-1.6,5.2C78.3,38.9,78.5,39,78.6,39z
		 M93,35.4c1.1,0,2.1-1,2.1-2.3c0-1.3-0.7-2.4-1.8-2.4c-1.2,0-2.2,1-2.2,2.2C91.2,34.2,91.9,35.4,93,35.4z"/>
</g>
</svg>
