<?xml version="1.0" encoding="utf-8"?>
<!-- Generator: Adobe Illustrator 23.0.6, SVG Export Plug-In . SVG Version: 6.00 Build 0)  -->
<svg version="1.1" id="Layer_1" xmlns="http://www.w3.org/2000/svg" xmlns:xlink="http://www.w3.org/1999/xlink" x="0px" y="0px"
	 viewBox="0 0 102 43" style="enable-background:new 0 0 102 43;" xml:space="preserve">
<style type="text/css">
	.st0{fill:none;stroke:#2F456B;stroke-width:2;stroke-miterlimit:10;}
</style>
<g>
	<g>
		<path class="st0" d="M99,7.7c1.1,0.3,2,1,2,1.9c0,1.1-0.7,2.1-1.5,2.4c-1.1,0.6-2.7,0.7-4,0.7c-3.9,0-6-0.9-8-1.4
			c-4.1,0.5-6.6,0.3-10.5-0.7c-3.5,0.6-6.3,0.6-9,0.2c-0.5-0.1-1,0-1.3,0c-0.1,0-0.1,0.3,0.1,0.4c1.7,0.6,5.9,1.4,7.8,1.7
			c1.4,0.2,3.4,0.6,4.7,1.6c0.8,0.6,1.3,1.5,1.3,2.8c0,0.6,0,1.2-0.2,1.9c-0.7,2-1.7,3.8-4.3,3.8c-1.3,0-3.5-0.5-5.4-0.9
			c-2.2-0.4-4.2-0.9-5.5-1c-0.3,0-0.3,0.2-0.1,0.3c1.9,0.6,6.4,1.8,8,2.2c2.5,0.5,4.1,1,4.1,3.8c0,3.6-1.4,5.2-4.7,5.2
			c-2.5,0-7.4-1.5-9.8-1.6c-0.1,0-0.1,0.1,0,0.2c1.2,0.6,2.7,1.1,4.1,1.5c1.5,0.4,4,1.3,4.7,2c0.4,0.4,0.6,1,0.6,1.6
			s-0.2,1.2-0.4,1.8c-0.8,1.8-1.2,2.7-2.7,3.1c-0.8,0.3-1.8,0.4-3.3,0.4c-1.1,0-2-0.1-3-0.3c-1.4-0.3-2.3-0.6-3-1.7
			c0.5,0,1.6-0.2,2-0.3c1,0.3,1.9,0.4,3.3,0.3c-0.7,0-1.3-0.2-1.9-0.4l-1.6-0.5c-3.9,0.8-8.8,1-13.7,1h-6.9c-3.8,0-7.8-1.3-10.8-2.7
			c-3.6-1.7-6.8-3.7-8.6-4.4C20,32,19.9,31.2,19.7,30c-0.3-2-0.4-4.4-0.4-6.6c0-4.1,0.6-8.1,1.8-11.4c0.5-1.5,0.8-1.7,2.6-1.9
			c6.1-0.8,19.9-4.4,23.5-5.5c4.1-1.2,8.7-3.5,12.5-3.5c1.6,0,3,0.3,4.6,0.5c3.6,0.4,7.3,1,11.1,1c3.4,0,5,0.2,7,0.7
			c2,0.6,5.7,1.3,7,1.5c1.5,0.2,3,0.5,4.7,1.1C96,6.6,97.7,7.4,99,7.7z M24,38.6c-0.7-0.8-1.5-3.7-1.6-5.2c1.9,0.8,3.1,1.5,4.1,2.2
			c-0.8,6.5-1.3,5.9-2.9,6.1C20.7,42,11.8,42,7.7,41.9c-2.1-0.1-2.9-1.1-3.9-3.5C2,33.8,1,28.9,1,24c0-6,1.4-11.9,4.6-17.1
			c0.7-1.1,1.6-1.5,3.9-1.6c5.3-0.1,12.6-0.5,14.7-0.5c1.9,0,2.8,0.8,3.5,3.8C27,8.9,26,9,25.5,9c-0.3-1.5-0.8-1.9-1.2-1.9
			c-0.5,0-1,0.5-1.2,0.9c-2.4,3.1-3.7,9.2-3.8,15.4c-0.1,5.4,0.9,11,2.8,14.5c0.3,0.5,0.8,1.1,1.3,1.1C23.5,39,23.7,38.9,24,38.6z
			 M10.9,32.9c0-1.2-1-2.2-2.2-2.2c-1.1,0-1.8,1.1-1.8,2.4s1,2.3,2.1,2.3S10.8,34.2,10.9,32.9z"/>
	</g>
</g>
</svg>
