<?xml version="1.0" encoding="utf-8"?>
<!-- Generator: Adobe Illustrator 23.0.4, SVG Export Plug-In . SVG Version: 6.00 Build 0)  -->
<svg version="1.1" id="Layer_1" xmlns="http://www.w3.org/2000/svg" xmlns:xlink="http://www.w3.org/1999/xlink" x="0px" y="0px"
	 viewBox="0 0 41 41" style="enable-background:new 0 0 41 41;" xml:space="preserve">
<style type="text/css">
	.st0{fill:#EAE5D3;}
</style>
<g>
	<g>
		<path class="st0" d="M17.52,11c0-0.48,0-0.71,0.4-0.99c0.62-0.44,1.85-0.58,3.2-0.58c3.49,0,6.79,2.51,6.79,5.81
			c0,2.24-1.2,3.6-2.83,4.89c-0.95,0.75-2.11,1.49-3.05,2.21c-0.69,0.54-1.02,0.88-1.05,1.94c-0.07,1.02-0.29,1.09-0.55,1.09
			c-0.62,0-0.69-0.68-0.73-1.02c-0.11-0.92-0.47-2.55-0.51-3.36c0-0.95,1.05-1.56,2.04-2.14c2.25-1.39,4.11-2.85,4.11-5.16
			c0-2-1.71-3.02-2.76-3.02c-1.05,0-1.64,0.65-2.22,1.46c-0.65,0.85-1.2,1.43-1.74,1.43c-0.95,0-1.09-1.84-1.09-2.51V11z
			 M20.25,31.79c-1.34,0-2.04-0.95-2.04-1.97c0-0.95,0.65-1.94,2.14-1.94c1.38,0,1.93,0.95,1.93,1.97c0,1.12-0.62,1.94-2,1.94H20.25
			z"/>
	</g>
</g>
<g>
	<path class="st0" d="M20.5,41C9.2,41,0,31.8,0,20.5C0,9.2,9.2,0,20.5,0S41,9.2,41,20.5C41,31.8,31.8,41,20.5,41z M20.5,1
		C9.75,1,1,9.75,1,20.5S9.75,40,20.5,40C31.25,40,40,31.25,40,20.5S31.25,1,20.5,1z"/>
</g>
</svg>
