<?xml version="1.0" encoding="utf-8"?>
<!-- Generator: Adobe Illustrator 23.0.6, SVG Export Plug-In . SVG Version: 6.00 Build 0)  -->
<svg version="1.1" id="Layer_1" xmlns="http://www.w3.org/2000/svg" xmlns:xlink="http://www.w3.org/1999/xlink" x="0px" y="0px"
	 viewBox="0 0 152 152" style="enable-background:new 0 0 152 152;" xml:space="preserve">
<style type="text/css">
	.st0{fill:#FBF5EA;}
	.st1{fill:none;stroke:#FBF5EA;stroke-width:1.9234;stroke-miterlimit:10;}
</style>
<g>
	<g>
		<path class="st0" d="M80,20.6c0.5,0,0.9,0.3,1.2,0.6c0.3,0.4,0.5,0.8,0.4,1.3c0,0.5-0.3,1-0.6,1.3c-0.4,0.3-0.8,0.5-1.3,0.4
			c-0.5,0-0.9-0.3-1.3-0.6c-0.3-0.4-0.5-0.8-0.4-1.4c0-0.5,0.3-1,0.6-1.3C79,20.7,79.5,20.6,80,20.6z"/>
		<path class="st0" d="M89.6,28.7l3-8.4l2.6,0.9c1,0.4,1.6,0.8,2,1.4c0.3,0.6,0.4,1.3,0.1,2c-0.4,1.1-1.1,1.4-2.2,1.1
			c0.6,0.3,0.9,0.7,1.1,1.1c0.2,0.4,0.2,0.9-0.1,1.5c-0.3,0.7-0.7,1.2-1.3,1.5c-0.6,0.3-1.3,0.3-2.1,0L89.6,28.7z M92.5,27.7
			c0,0,0.1,0,0.1,0c0,0,0.1,0,0.1,0c0.3,0.1,0.5,0.1,0.8,0c0.2-0.1,0.4-0.3,0.5-0.5c0.1-0.3,0.1-0.5,0-0.7c-0.1-0.2-0.3-0.4-0.6-0.5
			l-0.2-0.1L92.5,27.7z M93.7,24.4l0.2,0.1c0.3,0.1,0.5,0.1,0.7,0c0.2-0.1,0.3-0.2,0.4-0.4c0.2-0.5,0-0.8-0.5-1c0,0-0.1,0-0.1,0
			c0,0-0.1,0-0.1,0L93.7,24.4z"/>
		<path class="st0" d="M101.6,34l-2.3-1.2l0.4-3.4c0-0.1,0-0.1,0-0.2c0-0.1,0-0.2,0.1-0.3l-0.3,0.5l-1.5,2.8L96,31.1l4.2-7.9
			l2.2,1.1c1,0.5,1.6,1.1,1.9,1.7c0.4,0.8,0.3,1.7-0.2,2.5c-0.5,1-1.3,1.4-2.3,1.3L101.6,34z M100.3,28l0.1,0.1
			c0.2,0.1,0.5,0.1,0.8,0c0.3-0.1,0.5-0.3,0.6-0.6c0.3-0.6,0.2-1-0.5-1.4l-0.1,0L100.3,28z"/>
		<path class="st0" d="M102,34.4l5.1-7.3l3.7,2.6l-1.2,1.7l-1.7-1.2l-0.7,1.1l1.5,1.1l-1.2,1.7l-1.5-1.1l-0.8,1.1l1.7,1.2l-1.2,1.8
			L102,34.4z"/>
		<path class="st0" d="M111.1,41.7l-1.9-1.7l0.6-1l-1.2-1.1l-0.9,0.7l-1.9-1.7l7.6-5.2l2.2,2L111.1,41.7z M110.9,37.5l0.6-0.9
			c0,0,0,0,0.1-0.1c0.1-0.1,0.2-0.3,0.6-0.8c0-0.1,0.1-0.1,0.2-0.2c0.1-0.1,0.2-0.2,0.3-0.4l0.5-0.7c-0.1,0.1-0.1,0.1-0.2,0.2
			c-0.1,0.1-0.2,0.1-0.3,0.2c-0.2,0.2-0.3,0.3-0.4,0.3c-0.1,0.1-0.1,0.1-0.1,0.1l-0.8,0.7l-1.1,0.9L110.9,37.5z"/>
		<path class="st0" d="M115.6,47l-1.7-2l2.1-3.9l-3.1,2.7l-1.6-1.8l6.8-5.7l1.6,1.8l-3,2.4l3.8-1.4l1.6,1.9l-4.5,1.3L115.6,47z"/>
		<path class="st0" d="M117.1,49.5l-1.3-2l7.4-5l1.3,2L117.1,49.5z"/>
		<path class="st0" d="M117.7,50.3l7.9-4.1l1.1,2l-2.2,2.5c-0.1,0.1-0.3,0.3-0.5,0.5c-0.2,0.2-0.4,0.4-0.6,0.6l-0.6,0.6
			c0.6-0.4,1.2-0.8,1.7-1.1c0.5-0.3,0.9-0.5,1.2-0.7l1.8-0.9l1.1,2l-7.9,4.1l-1.1-2l2.3-2.6c0.3-0.3,0.5-0.5,0.7-0.8
			c0.2-0.2,0.4-0.4,0.7-0.6c-0.5,0.3-1,0.6-1.4,0.9c-0.4,0.2-0.8,0.4-1.1,0.6l-2,1.1L117.7,50.3z"/>
		<path class="st0" d="M126.9,58.1l1.1,3.2l-0.4,0.1c-1.6,0.6-2.9,0.7-3.8,0.5c-1-0.3-1.6-0.9-2-1.9c-0.4-1-0.2-1.9,0.3-2.8
			c0.6-0.8,1.5-1.5,2.9-2c1.4-0.5,2.5-0.6,3.5-0.2c1,0.3,1.7,1,2,2c0.5,1.3,0.1,2.5-1.1,3.6l-1.6-1.9c0.3-0.1,0.4-0.3,0.6-0.4
			c0.1-0.2,0.1-0.3,0.1-0.5c-0.2-0.6-1.2-0.6-2.9-0.1c-0.7,0.3-1.2,0.5-1.5,0.8c-0.3,0.3-0.4,0.5-0.3,0.8c0,0.1,0.1,0.2,0.2,0.3
			c0.1,0.1,0.2,0.1,0.3,0.2c0.1,0,0.3,0,0.4,0c0.2,0,0.3-0.1,0.5-0.1l-0.3-0.8L126.9,58.1z"/>
		<path class="st0" d="M124.4,69.1l8.9-0.6l0.2,2.3l-3,1.4c-0.2,0.1-0.4,0.2-0.6,0.3c-0.2,0.1-0.5,0.2-0.8,0.3l-0.8,0.3
			c0.8-0.1,1.4-0.3,2-0.3c0.5-0.1,1-0.1,1.4-0.2l2-0.1l0.2,2.3l-8.9,0.6l-0.2-2.3l3.2-1.4c0.3-0.2,0.7-0.3,1-0.4s0.6-0.2,0.9-0.3
			c-0.6,0.1-1.2,0.2-1.6,0.2c-0.5,0.1-0.9,0.1-1.2,0.1l-2.3,0.2L124.4,69.1z"/>
		<path class="st0" d="M124.7,76.3l8.9,0.5l-0.2,4.5l-2.1-0.1l0.1-2.1l-1.3-0.1l-0.1,1.9l-2-0.1l0.1-1.9l-1.4-0.1l-0.1,2.1l-2.1-0.1
			L124.7,76.3z"/>
		<path class="st0" d="M123,89l0.5-2.3l3.2,0.1c0.6,0,1.1,0,1.6,0.1c0.2,0,0.4,0,0.6,0c0.1,0,0.3,0,0.3,0c-0.2-0.1-0.4-0.1-0.8-0.3
			c-0.2-0.1-0.4-0.1-0.7-0.2c-0.2-0.1-0.5-0.2-0.7-0.3l-3.1-1.1l0.5-2.3l9.1-0.1l-0.5,2.3l-2.5-0.1c-1-0.1-1.8-0.1-2.3-0.2l-0.8-0.1
			l0.7,0.2c0.8,0.2,1.5,0.5,2.2,0.8l2.4,1l-0.4,2l-2.2,0c-1,0-2.2-0.1-3.6-0.2c0.6,0.2,1.1,0.3,1.6,0.5c0.5,0.1,0.9,0.3,1.2,0.4
			l2.6,1l-0.5,2.3L123,89z"/>
		<path class="st0" d="M122.6,90.9l2.6,1c-0.8,0.2-1.3,0.6-1.5,1.1c-0.1,0.2-0.1,0.4,0,0.5c0.1,0.2,0.2,0.3,0.3,0.3
			c0.2,0.1,0.5,0,0.8-0.2l0.4-0.3c0.3-0.2,0.5-0.3,0.8-0.4s0.5-0.2,0.7-0.2c0.2,0,0.5,0,0.7,0c0.2,0,0.5,0.1,0.7,0.2
			c0.4,0.1,0.8,0.4,1.1,0.7c0.2,0.2,0.3,0.3,0.4,0.5c0.1,0.2,0.2,0.4,0.3,0.6c0.2,0.6,0.2,1.1,0,1.7c-0.2,0.5-0.6,1-1,1.5l-2.6-1
			c0.4-0.1,0.7-0.2,0.9-0.4c0.3-0.2,0.4-0.4,0.5-0.6c0.1-0.2,0.1-0.3,0-0.5c-0.1-0.2-0.1-0.3-0.3-0.3c-0.2-0.1-0.5,0-0.8,0.2
			l-0.4,0.3c-0.5,0.3-1,0.6-1.4,0.6c-0.4,0.1-0.9,0-1.4-0.2c-0.8-0.3-1.4-0.8-1.7-1.5c-0.3-0.7-0.4-1.4-0.1-2.2
			C121.8,92,122.1,91.4,122.6,90.9z"/>
		<path class="st0" d="M121,107.6c-0.3,0.4-0.7,0.6-1.2,0.7c-0.5,0.1-1,0-1.4-0.3c-0.4-0.3-0.7-0.7-0.8-1.2c-0.1-0.5,0-1,0.3-1.4
			c0.3-0.4,0.7-0.7,1.2-0.7c0.5-0.1,1,0,1.4,0.3c0.4,0.3,0.7,0.7,0.8,1.2C121.4,106.7,121.3,107.2,121,107.6z"/>
		<path class="st0" d="M106.6,113.6l1.8-1.6l4.4,5.2l1-0.9l1.4,1.6l-3.9,3.3l-1.4-1.6l1.1-0.9L106.6,113.6z"/>
		<path class="st0" d="M100.3,118l2-1.3l2,3l1-0.6l-2-3l2-1.3l4.9,7.4l-2,1.3l-1.7-2.6l-1,0.6l1.7,2.6l-2,1.3L100.3,118z"/>
		<path class="st0" d="M97.3,119.6l2.1-1.1l4.1,7.9l-2.1,1.1L97.3,119.6z"/>
		<path class="st0" d="M96.6,120.2l1.1,2.6c-0.7-0.4-1.3-0.5-1.8-0.3c-0.2,0.1-0.3,0.2-0.4,0.3c-0.1,0.2-0.1,0.3,0,0.5
			c0.1,0.2,0.3,0.4,0.7,0.5l0.5,0.1c0.3,0.1,0.6,0.2,0.8,0.3c0.2,0.1,0.5,0.2,0.6,0.4c0.2,0.1,0.3,0.3,0.5,0.5
			c0.1,0.2,0.2,0.4,0.3,0.6c0.2,0.4,0.2,0.8,0.2,1.3c0,0.2,0,0.5-0.1,0.7c-0.1,0.2-0.1,0.4-0.2,0.6c-0.3,0.5-0.7,0.9-1.3,1.2
			c-0.5,0.2-1.1,0.3-1.8,0.2l-1-2.5c0.3,0.2,0.6,0.3,0.9,0.4c0.3,0.1,0.6,0.1,0.8,0c0.2-0.1,0.3-0.2,0.4-0.3c0.1-0.1,0.1-0.3,0-0.4
			c-0.1-0.2-0.3-0.4-0.7-0.5l-0.5-0.1c-0.6-0.1-1.1-0.4-1.4-0.6c-0.4-0.3-0.6-0.6-0.8-1.1c-0.3-0.8-0.4-1.6-0.1-2.3s0.8-1.3,1.6-1.6
			C95.3,120.3,95.9,120.2,96.6,120.2z"/>
		<path class="st0" d="M86.8,123.5l0.4,2.5c-0.3-0.3-0.7-0.4-1-0.4c-0.5,0.1-0.7,0.5-0.5,1.2l1,5.6l-2.4,0.4l-1.1-6.1
			c-0.1-0.5-0.1-0.9-0.1-1.3c0-0.3,0.1-0.6,0.3-0.9c0.3-0.6,0.9-0.9,1.8-1.1C85.7,123.4,86.2,123.4,86.8,123.5z"/>
		<path class="st0" d="M78.6,133.4l-2.4,0.1l-0.4-6.3c0-0.5,0-1,0.2-1.3c0.1-0.4,0.4-0.7,0.8-1c0.5-0.4,1.1-0.6,1.8-0.7
			c0.8,0,1.5,0.1,2.1,0.5c0.7,0.5,1.1,1.3,1.2,2.4l0.3,6l-2.4,0.1l-0.3-5.8c0-0.4-0.1-0.7-0.2-0.8c-0.1-0.2-0.3-0.2-0.5-0.2
			c-0.2,0-0.4,0.1-0.5,0.3c-0.1,0.2-0.1,0.4-0.1,0.8L78.6,133.4z"/>
		<path class="st0" d="M74.9,124.8l-0.2,2.8c-0.4-0.7-0.9-1-1.5-1.1c-0.2,0-0.4,0-0.5,0.1c-0.1,0.1-0.2,0.2-0.2,0.4
			c0,0.2,0.1,0.5,0.4,0.7l0.4,0.3c0.2,0.2,0.5,0.4,0.6,0.6c0.2,0.2,0.3,0.4,0.4,0.6c0.1,0.2,0.2,0.4,0.2,0.7s0.1,0.5,0,0.7
			c0,0.4-0.2,0.8-0.4,1.3c-0.1,0.2-0.2,0.4-0.4,0.6c-0.1,0.2-0.3,0.3-0.5,0.4c-0.5,0.4-1,0.5-1.7,0.5c-0.6,0-1.1-0.2-1.7-0.6
			l0.2-2.7c0.2,0.3,0.4,0.6,0.6,0.8c0.2,0.2,0.5,0.3,0.7,0.3c0.2,0,0.3,0,0.5-0.1c0.1-0.1,0.2-0.2,0.2-0.4c0-0.2-0.1-0.5-0.4-0.7
			l-0.4-0.3c-0.5-0.4-0.8-0.8-1-1.2c-0.2-0.4-0.3-0.9-0.2-1.4c0.1-0.9,0.4-1.6,0.9-2.1c0.6-0.5,1.3-0.8,2.1-0.7
			C73.7,124.3,74.3,124.5,74.9,124.8z"/>
		<path class="st0" d="M66.4,123.6l2.4,0.4l-1.2,6.7l1.3,0.2l-0.4,2.1l-5-0.9l0.4-2.1l1.4,0.2L66.4,123.6z"/>
		<path class="st0" d="M57.1,120.7l2.2,0.9l-3.2,8.3l-2.2-0.9L57.1,120.7z"/>
		<path class="st0" d="M56.1,120.4l-4.1,7.9l-2-1.1l0.4-3.3c0-0.2,0.1-0.4,0.1-0.7c0-0.3,0.1-0.5,0.1-0.9l0.1-0.8
			c-0.3,0.7-0.5,1.3-0.7,1.9c-0.2,0.5-0.4,0.9-0.6,1.3l-0.9,1.8l-2-1.1l4.1-7.9l2,1.1l-0.4,3.5c0,0.4-0.1,0.7-0.2,1
			c-0.1,0.3-0.1,0.6-0.2,0.9c0.2-0.6,0.5-1.1,0.7-1.5c0.2-0.4,0.4-0.8,0.5-1.1l1.1-2L56.1,120.4z"/>
		<path class="st0" d="M38,115.9c-0.4-0.3-0.5-0.8-0.6-1.3c0-0.5,0.2-1,0.5-1.3c0.4-0.4,0.8-0.6,1.3-0.6c0.5,0,0.9,0.1,1.3,0.5
			c0.4,0.3,0.6,0.8,0.6,1.3c0,0.5-0.2,1-0.5,1.3c-0.4,0.4-0.8,0.6-1.3,0.6C38.9,116.4,38.4,116.3,38,115.9z"/>
		<path class="st0" d="M32.4,98.1l1.4,2.2l-2.1,2.7c0,0-0.1,0.1-0.2,0.2c-0.1,0.1-0.1,0.2-0.2,0.3l0.5-0.3l2.7-1.6l1.2,2l-7.6,4.6
			l-1.3-2.1c-0.6-0.9-0.8-1.7-0.7-2.4c0.1-0.9,0.6-1.6,1.5-2.1c0.9-0.6,1.8-0.6,2.6,0L32.4,98.1z M30.4,104l-0.1-0.1
			c-0.1-0.2-0.4-0.4-0.6-0.4c-0.3,0-0.6,0-0.8,0.2c-0.6,0.3-0.7,0.8-0.3,1.4l0,0.1L30.4,104z"/>
		<path class="st0" d="M32.2,97.6l-8.1,3.7l-1.8-4.1l1.9-0.9l0.8,1.9l1.2-0.5L25.4,96l1.8-0.8l0.8,1.7l1.2-0.6l-0.8-1.9l2-0.9
			L32.2,97.6z"/>
		<path class="st0" d="M28.2,86.7l0.7,2.4l-1,0.5l0.5,1.6l1.1-0.1l0.7,2.4l-9.2,0.6l-0.9-2.8L28.2,86.7z M26.1,90.4l-0.9,0.5
			c0,0-0.1,0-0.1,0.1c-0.1,0-0.4,0.2-0.9,0.4c-0.1,0-0.1,0.1-0.2,0.1s-0.2,0.1-0.4,0.2l-0.8,0.3c0.1,0,0.2,0,0.3,0
			c0.1,0,0.2,0,0.3-0.1c0.2,0,0.4-0.1,0.5-0.1c0.1,0,0.1,0,0.2,0l1.1-0.2l1.4-0.2L26.1,90.4z"/>
		<path class="st0" d="M28.1,86.3l-8.8,1.4L19,85.6c-0.2-1.2,0-2.1,0.5-2.9c0.7-1,1.8-1.6,3.3-1.8c1.5-0.2,2.6,0,3.6,0.6
			c0.8,0.5,1.3,1.4,1.5,2.6L28.1,86.3z M25.6,84.2c-0.2-0.8-1-1.2-2.4-0.9c-0.7,0.1-1.2,0.3-1.6,0.6c-0.4,0.3-0.5,0.6-0.5,1l0,0.1
			L25.6,84.2z"/>
		<path class="st0" d="M27.6,67.5L27.4,70l-1.1,0.1l-0.2,1.6l1.1,0.3L27,74.5l-8.7-3l0.3-2.9L27.6,67.5z M24.3,70.2l-1.1,0.1
			c0,0-0.1,0-0.2,0c-0.1,0-0.4,0-1,0c-0.1,0-0.2,0-0.3,0c-0.1,0-0.3,0-0.4,0l-0.8,0c0.1,0,0.2,0,0.3,0.1c0.1,0,0.2,0,0.3,0.1
			c0.2,0,0.4,0.1,0.5,0.1c0.1,0,0.1,0,0.2,0l1.1,0.3l1.4,0.4L24.3,70.2z"/>
		<path class="st0" d="M28.7,63l-0.9,4.1l-8.7-1.9l0.5-2.4l6.6,1.4l0.4-1.8L28.7,63z"/>
		<path class="st0" d="M30.1,58.5l-1.3,4l-8.5-2.7l0.7-2.3l6.5,2.1l0.6-1.7L30.1,58.5z"/>
		<path class="st0" d="M35.9,47.5l-1.3,2.1l-1.1-0.4l-0.8,1.4l0.9,0.8l-1.3,2.1L25.7,47l1.5-2.5L35.9,47.5z M31.7,48.5l-1-0.4
			c0,0-0.1,0-0.1-0.1c-0.1,0-0.4-0.2-0.9-0.4c-0.1,0-0.1-0.1-0.2-0.1c-0.1,0-0.2-0.1-0.4-0.2l-0.8-0.4c0.1,0,0.1,0.1,0.2,0.2
			c0.1,0.1,0.2,0.1,0.3,0.2c0.2,0.1,0.3,0.2,0.4,0.3c0.1,0.1,0.1,0.1,0.1,0.1l0.8,0.7l1.1,0.9L31.7,48.5z"/>
		<path class="st0" d="M36.2,47.2l-6.9-5.6l1.8-2.2c0.7-0.8,1.3-1.3,2-1.4c0.7-0.1,1.3,0.1,1.9,0.6c0.9,0.7,1,1.5,0.4,2.4
			c0.5-0.4,0.9-0.7,1.4-0.7c0.4,0,0.9,0.2,1.4,0.5c0.6,0.5,0.9,1.1,1,1.7c0.1,0.7-0.2,1.3-0.7,2L36.2,47.2z M33.4,41.9l0.1-0.1
			c0.2-0.2,0.3-0.4,0.3-0.7c0-0.2-0.1-0.4-0.3-0.6c-0.4-0.3-0.8-0.3-1.1,0.2c0,0,0,0-0.1,0.1c0,0-0.1,0.1-0.1,0.1L33.4,41.9z
			 M36.2,44.1C36.2,44.1,36.2,44,36.2,44.1c0.1-0.1,0.1-0.1,0.1-0.2c0.2-0.2,0.3-0.5,0.3-0.7c0-0.2-0.1-0.4-0.3-0.6
			c-0.2-0.2-0.4-0.2-0.7-0.2c-0.2,0-0.4,0.2-0.6,0.4L34.8,43L36.2,44.1z"/>
		<path class="st0" d="M42.3,34.2c0.9,1,1.4,2,1.6,3.1c0.1,1-0.2,1.9-0.9,2.6c-0.6,0.6-1.4,0.9-2.3,0.8c-1.1-0.1-2.3-0.7-3.4-1.9
			c-1.1-1.2-1.6-2.3-1.6-3.5c0-0.9,0.4-1.6,1-2.2c0.8-0.7,1.6-0.9,2.7-0.7C40.3,32.6,41.3,33.2,42.3,34.2z M40.4,36
			c-1.1-1.2-1.9-1.6-2.3-1.2c-0.2,0.2-0.2,0.5-0.1,0.9c0.1,0.4,0.5,0.9,1,1.4c0.5,0.6,1,0.9,1.4,1.1c0.4,0.2,0.7,0.2,0.9,0
			c0.2-0.2,0.2-0.5,0.1-0.9C41.3,37,40.9,36.5,40.4,36z"/>
		<path class="st0" d="M43.8,27.7l2-1.4l3.6,5.2c0.3,0.4,0.5,0.8,0.5,1.2c0.1,0.4,0,0.8-0.1,1.2c-0.2,0.6-0.6,1.1-1.2,1.5
			c-0.7,0.5-1.4,0.7-2.1,0.7c-0.9,0-1.6-0.5-2.3-1.5l-3.4-4.9l2-1.4l3.3,4.8c0.2,0.3,0.4,0.5,0.6,0.6c0.2,0.1,0.3,0.1,0.5-0.1
			c0.2-0.1,0.3-0.3,0.3-0.5c0-0.2-0.1-0.4-0.4-0.8L43.8,27.7z"/>
		<path class="st0" d="M54.5,31.8l-2.1,1.1l-3.1-6l-1.2,0.6l-1-1.9l4.5-2.4l1,1.9l-1.2,0.6L54.5,31.8z"/>
		<path class="st0" d="M63.6,28.4l-2.3,0.7l-2.5-8.6l2.3-0.7L63.6,28.4z"/>
		<path class="st0" d="M67.7,27.5L65.4,28l-1.3-6.7l-1.3,0.3l-0.4-2.1l5-1l0.4,2.1l-1.4,0.3L67.7,27.5z"/>
	</g>
	<path class="st1" d="M133.4,114.7l-5.3,1.2c-3.9,0.9-6.8,4.1-7.2,8.1l-0.5,5.4c-0.6,5.7-6.1,9.5-11.6,8l-5.3-1.4
		c-3.9-1.1-8,0.5-10.2,3.8l-3,4.6c-3.1,4.8-9.8,5.6-14,1.7l-4-3.7c-2.9-2.7-7.3-3.3-10.8-1.3l-4.8,2.6c-5,2.8-11.3,0.4-13.2-5
		l-1.8-5.1c-1.3-3.8-4.9-6.3-8.9-6.2l-5.4,0.1c-5.7,0.1-10.2-4.9-9.4-10.6l0.8-5.4c0.6-4-1.4-7.9-5-9.6l-4.9-2.4
		c-5.1-2.5-6.7-9.1-3.4-13.7l3.2-4.4c2.4-3.2,2.4-7.6,0-10.9L5.6,66C2.2,61.4,3.8,54.9,9,52.3l4.9-2.4c3.6-1.8,5.6-5.7,5.1-9.6
		l-0.8-5.4c-0.8-5.7,3.7-10.7,9.4-10.6l5.4,0.1c4,0.1,7.6-2.4,9-6.2l1.8-5.1c1.9-5.4,8.2-7.8,13.2-5l4.8,2.7c3.5,2,7.9,1.4,10.8-1.3
		l4-3.7c4.2-3.9,10.9-3.1,14,1.7l3,4.6c2.2,3.4,6.3,4.9,10.2,3.9l5.3-1.4c5.5-1.5,11.1,2.3,11.6,8L121,28c0.4,4,3.3,7.3,7.2,8.1
		l5.3,1.2c5.6,1.2,8.7,7.2,6.6,12.5l-2.1,5c-1.5,3.7-0.5,8,2.6,10.6l4.2,3.5c4.4,3.7,4.4,10.4,0,14.1l-4.2,3.5
		c-3.1,2.6-4.1,6.8-2.6,10.5l2,5C142.2,107.5,139,113.5,133.4,114.7z"/>
</g>
</svg>
