<?xml version="1.0" encoding="utf-8"?>
<!-- Generator: Adobe Illustrator 23.0.6, SVG Export Plug-In . SVG Version: 6.00 Build 0)  -->
<svg version="1.1" id="Layer_1" xmlns="http://www.w3.org/2000/svg" xmlns:xlink="http://www.w3.org/1999/xlink" x="0px" y="0px"
	 viewBox="0 0 101.3 101.3" style="enable-background:new 0 0 101.3 101.3;" xml:space="preserve">
<style type="text/css">
	.st0{fill:#EAE5D3;}
</style>
<path class="st0" d="M50.7,0C22.8,0,0,22.7,0,50.6c0,28,22.7,50.6,50.6,50.6c28,0,50.6-22.7,50.6-50.6C101.3,22.7,78.7,0,50.7,0z
	 M81.1,38h-1.5c-2.1,0-3.2,0.2-3.9,2.8c-0.9,3.4-4.5,16.4-6.9,25.9c-0.6,2.4,1,2.7,2.4,2.7l2.1,0c-0.1,1.2-0.1,3.1,0,4.4
	c0,0-10.5-0.2-18.2-0.1c-0.5-1.9-3.5-14.5-4.9-19.4c-1.4,4.9-4.4,17.5-4.9,19.4c-2.6-0.1-5.7-0.1-8.2-0.1c-2.9,0-9.7,0.1-9.7,0.1
	c0-1.4,0-3.3,0-4.5c0,0,1.5,0.1,2.3,0.1c1.6,0,2.9-0.4,2.4-2.3c-1.8-6.3-5.8-20.7-6.3-22.5L25,42c-1.2-3.5-2.1-3.9-4.8-3.9h-1.3
	c0-0.5,0-1.3,0-2.2h0c0-0.6,0-1,0-1.4c0.8,0,5,0.1,7.8,0.1c2.9,0,7.7-0.1,7.7-0.1c0,0.3,0,0.8,0,1.4h0c0,0.9,0,1.7,0,2.2h-1.1
	c-2.8-0.1-3.8,0.5-3.3,2.9c0,0,4.3,16.7,5.4,20.6c1.2-4,6.5-27,6.5-27c1.1,0,1.5,0,4,0c2.9,0,3.3,0,4.5-0.1c0,0,5.9,24,7,27.6
	c0-0.1,0-0.1,0.1-0.2c1.3-4.4,4.6-17.7,5.1-20.9c0.4-2.8-0.9-3-3.2-3H58v-3.5c0.8,0,7.4,0.1,11.5,0.1c4.2,0,11.6-0.1,11.6-0.1V38z"
	/>
</svg>
