<?xml version="1.0" encoding="utf-8"?>
<!-- Generator: Adobe Illustrator 23.0.4, SVG Export Plug-In . SVG Version: 6.00 Build 0)  -->
<svg version="1.1" id="Layer_1" xmlns="http://www.w3.org/2000/svg" xmlns:xlink="http://www.w3.org/1999/xlink" x="0px" y="0px"
	 viewBox="0 0 945.36 227.02" style="enable-background:new 0 0 945.36 227.02;" xml:space="preserve">
<style type="text/css">
	.st0{fill:#EAE5D3;}
</style>
<g>
	<g>
		<g>
			<rect x="766.94" y="2.31" class="st0" width="39.68" height="50.92"/>
			<g>
				<path class="st0" d="M248.45,134.56h6.79c8.91,0,10.4-1.65,11.03-8.87c0.64-9.97,0.64-87.78,0-97.33
					c-0.64-8.28-3.4-11.88-11.03-11.88h-6.79c0.21-4.67,0.21-8.93,0-13.38c0,0,26.1,0.42,40.53,0.42s39.26-0.42,40.32-0.42
					c-0.21,4.46-0.21,8.72,0,13.38h-6.79c-7.64,0-10.4,3.61-11.03,11.88c-0.85,9.55-0.64,87.36,0,97.33
					c0.42,7.22,2.76,8.87,11.03,8.87h6.58c-0.21,4.67-0.21,10.93,0,15.59c0,0-25.68-0.64-40.32-0.64c-14.43,0-40.32,0.64-40.32,0.64
					C248.66,145.48,248.66,139.23,248.45,134.56z"/>
				<path class="st0" d="M602.18,113.26h-19.59c-3.26,18.26-11.13,21.33-23.97,21.33h-8.06c-11.12,0-13.16-1.62-13.16-12.1
					c0-12.97-0.65-81.68,0-92.72c0.63-9.76,4.87-13.36,13.58-13.36h6.36c-0.21-4.67-0.21-8.65,0.22-13.31
					c-1.49,0-26.31,0.43-41.17,0.43c-15.07,0-41.59-0.43-41.59-0.43c0.21,4.46,0.21,8.65,0,13.31h6.79c7.65,0,10.4,5.09,11.04,13.36
					c0.63,9.55,0.63,78.71,0,90.8c-0.43,9.34-1.69,14.01-11.45,14.01h-7c0.21,4.67,0.21,10.68,0,15.14
					c11.04-0.22,28.43-0.22,37.35-0.22h48.8c10.61,0,27.12,0,41.76,0.85C601.92,140.32,601.97,126.22,602.18,113.26z"/>
				<path class="st0" d="M466.71,113.26h-19.59c-3.26,18.26-11.13,21.33-23.97,21.33h-8.06c-11.12,0-13.16-1.62-13.16-12.1
					c0-12.97-0.65-81.68,0-92.72c0.63-9.76,4.87-13.36,13.58-13.36h6.36c-0.21-4.67-0.21-8.65,0.22-13.31
					c-1.49,0-26.31,0.43-41.17,0.43c-15.07,0-40.37-0.43-40.37-0.43c0.21,4.46,0.21,8.65,0,13.31h5.57
					c9.1-0.59,11.28,3.98,11.48,13.1c0.21,9.82-0.23,77.37-0.33,91.15c-0.07,8.67,1.12,14.42-11.57,13.92h-4.57
					c0.21,4.67,0.21,10.68,0,15.14c11.04-0.22,26-0.22,34.91-0.22h48.8c10.61,0,27.12,0,41.76,0.85
					C466.46,140.32,466.5,126.22,466.71,113.26z"/>
				<path class="st0" d="M727.26,104.62c-1.43,21.31-8.98,27.06-25.84,27.06h-11.74c-11.61-0.03-13.36-0.83-13.36-13.38
					c0-5.11-0.43-25.02-0.43-35.21h4.67c13.47,0,17.13,5.21,17.4,19.19h17.03c-0.63-7.46-0.89-13.77-0.89-26.19
					c0-12.39,0.4-17.72,1-25.67h-17.55c0,13.36-3.61,18.46-16.76,18.46h-4.88c0-12.1,0.35-30.79,0.43-36.95
					c0.17-12.73,2.55-12.73,13.16-12.73h11.95c14.25,0,23.83,3.41,25.27,25.62h20.04c-0.04-13.85,0.41-29.35,1.33-42.78
					c-9.98,1.27-37.93,1.49-47.06,1.49h-45.9c-12.52,0-39.26-0.43-42.65-0.43c0.21,4.46,0.21,8.65,0,13.33h5.93
					c8.06,0,12.1,3.81,12.74,14.42c0.63,12.1,0.41,78.83-0.22,89.44c-0.63,9.33-3.4,14.01-13.16,14.01h-5.3
					c0.21,4.67,0.21,11.18,0,15.64c2.33,0,28.01-0.43,42.44-0.43h46.95c11.67,0,32,0.22,44.94,1.06c0-15.14-0.5-31.46,0.5-45.65
					L727.26,104.62z"/>
				<path class="st0" d="M237.31,2.28v13.33h-5.74c-8.11,0-12.22,0.93-14.73,10.45c-3.44,12.99-17.02,61.8-26.01,97.65
					c-2.31,9.23,3.69,10.38,8.99,10.18l7.8-0.07c-0.21,4.68-0.3,11.78-0.1,16.46c0,0-39.85-0.66-68.57-0.3
					c-1.69-7.22-14.76-54.14-20.06-72.59c-5.09,18.46-15.06,65.37-16.75,72.59c-9.77-0.22-23.39-0.33-33.15-0.34
					c-10.78-0.01-36.64,0.33-36.64,0.33c0.2-5.16,0.11-12.39-0.1-17.07c0,0,5.59,0.07,8.63,0.2c4.85,0.2,11.6,0.68,9.13-8.53
					c-6.41-23.93-21.8-78.32-23.84-84.75l-2.92-9.29c-4.42-13.33-7.91-14.86-18.09-14.86H0.23c0.07-1.75,0.12-4.85,0.15-8.25H0.35
					C0.33,5.28,0.29,3.45,0.23,2.28c3.18,0,18.88,0.43,29.49,0.43c10.82,0,28.92-0.43,28.92-0.43c-0.06,1.17-0.1,3-0.13,5.13h-0.02
					c0.02,3.4,0.09,6.49,0.16,8.25h-4.03c-10.54-0.32-14.18,1.92-12.39,11.06c0.01,0.09,16.21,62.98,20.43,77.94
					C67.11,89.38,84.19,2.62,84.19,2.62c3.97,0.05,16.59,0.41,20.01,0.41c3.76,0,15.5-0.37,20.11-0.41c0,0,19.43,90.52,23.47,104.13
					c0.09-0.28,0.17-0.56,0.24-0.85c4.79-16.41,17.24-66.85,19.06-79.05c1.6-10.59-3.44-11.38-11.91-11.24h-5.09V2.28
					c2.97,0,27.8,0.43,43.5,0.43C209.52,2.71,237.31,2.28,237.31,2.28z"/>
				<path class="st0" d="M849.33,35.59c0,11.16,9.27,14.95,36.43,17.48c37.91,3.58,59.6,16.85,59.6,49.49
					c0,32.22-21.9,50.33-59.81,50.33c-18.11,0-29.49-3.79-41.07-10.11c-8.64-4.84-11.79,0-12.85,7.58c-1.9-0.21-14.11-0.21-16.01,0
					c1.9-14.53,2.74-35.38,1.9-49.28c2.11,0.21,13.27,0.21,15.37,0c6.74,22.53,24.01,33.49,52.23,33.49
					c20.85,0,31.8-6.95,31.8-18.74c0-12.43-12.01-16.85-41.07-19.8c-38.33-3.37-55.81-19.38-55.81-46.54
					C820.05,21.9,838.16,0,875.65,0c17.69,0,29.06,4.63,35.59,8c10.11,5.05,11.37,1.26,12.64-5.48c1.68,0.21,13.48,0.21,15.16,0
					c-2.32,12-2.95,32.22-1.9,45.07c-2.11,0-13.06-0.21-15.16,0c-6.32-20.22-21.06-29.06-42.96-29.06
					C857.75,18.53,849.33,26.11,849.33,35.59z"/>
			</g>
		</g>
	</g>
	<g>
		<g>
			<path class="st0" d="M8.67,226.15H0v-31.18h13.8c3.74,0,6.61,0.91,8.6,2.73c1.99,1.82,2.99,4.38,2.99,7.69
				c0,3.31-0.99,5.87-2.99,7.69c-1.99,1.82-4.86,2.73-8.6,2.73H8.67V226.15z M8.67,209.28h2.88c3.18,0,4.78-1.3,4.78-3.89
				c0-2.59-1.59-3.89-4.78-3.89H8.67V209.28z"/>
			<path class="st0" d="M44.76,194.97v16.95c0,0.91,0.04,1.84,0.11,2.79c0.07,0.95,0.3,1.81,0.66,2.59c0.37,0.77,0.95,1.4,1.75,1.88
				c0.8,0.48,1.92,0.72,3.36,0.72s2.56-0.24,3.34-0.72c0.78-0.48,1.36-1.11,1.75-1.88c0.38-0.77,0.61-1.63,0.68-2.59
				c0.07-0.95,0.11-1.88,0.11-2.79v-16.95h8.63v18.07c0,4.85-1.19,8.39-3.56,10.63c-2.37,2.23-6.02,3.35-10.95,3.35
				s-8.58-1.12-10.97-3.35c-2.39-2.23-3.58-5.78-3.58-10.63v-18.07H44.76z"/>
			<path class="st0" d="M105.98,226.15H95.18l-8.27-11.99v11.99h-8.67v-31.18h13.49c1.86,0,3.48,0.25,4.87,0.76
				c1.39,0.51,2.53,1.21,3.43,2.09c0.9,0.88,1.58,1.9,2.04,3.06c0.46,1.16,0.68,2.4,0.68,3.72c0,2.37-0.61,4.29-1.84,5.77
				c-1.22,1.48-3.03,2.48-5.42,3L105.98,226.15z M86.91,208.9h1.64c1.71,0,3.02-0.33,3.94-0.99c0.91-0.66,1.37-1.61,1.37-2.85
				s-0.46-2.19-1.37-2.85c-0.91-0.66-2.23-0.99-3.94-0.99h-1.64V208.9z"/>
			<path class="st0" d="M120.35,194.97l8.05,18.98l8.09-18.98h9.42l-14.06,31.18h-6.9l-14.02-31.18H120.35z"/>
			<path class="st0" d="M174.49,201.83h-10.31v5.21h9.73v6.86h-9.73v5.38h10.31v6.87h-18.97v-31.18h18.97V201.83z"/>
			<path class="st0" d="M194.88,211.18l-12.16-16.21h10.35l6.19,8.52l6.15-8.52h10.35l-12.21,16.21v14.97h-8.67V211.18z"/>
			<path class="st0" d="M221.02,210.56c0-2.32,0.46-4.47,1.37-6.47c0.91-2,2.18-3.74,3.8-5.23c1.62-1.49,3.56-2.65,5.82-3.5
				c2.26-0.84,4.74-1.26,7.45-1.26c2.68,0,5.16,0.42,7.43,1.26c2.27,0.84,4.22,2.01,5.86,3.5c1.64,1.49,2.91,3.23,3.83,5.23
				c0.91,2,1.37,4.16,1.37,6.47s-0.46,4.47-1.37,6.47c-0.91,2-2.19,3.74-3.83,5.23c-1.64,1.49-3.59,2.65-5.86,3.49
				c-2.27,0.84-4.75,1.26-7.43,1.26c-2.71,0-5.2-0.42-7.45-1.26c-2.26-0.84-4.2-2.01-5.82-3.49c-1.62-1.49-2.89-3.23-3.8-5.23
				C221.48,215.03,221.02,212.87,221.02,210.56z M230.09,210.56c0,1.24,0.25,2.38,0.75,3.43c0.5,1.05,1.18,1.96,2.03,2.73
				c0.85,0.77,1.85,1.37,2.99,1.8c1.13,0.43,2.34,0.64,3.61,0.64s2.47-0.21,3.61-0.64c1.13-0.43,2.14-1.03,3.01-1.8
				c0.87-0.77,1.56-1.68,2.06-2.73c0.5-1.05,0.75-2.19,0.75-3.43s-0.25-2.38-0.75-3.43c-0.5-1.05-1.19-1.96-2.06-2.73
				c-0.87-0.77-1.87-1.37-3.01-1.8c-1.14-0.43-2.34-0.64-3.61-0.64s-2.47,0.21-3.61,0.64c-1.13,0.43-2.13,1.03-2.99,1.8
				c-0.85,0.77-1.53,1.68-2.03,2.73C230.34,208.17,230.09,209.32,230.09,210.56z"/>
			<path class="st0" d="M297.28,226.15h-10.79l-8.27-11.99v11.99h-8.67v-31.18h13.49c1.86,0,3.48,0.25,4.87,0.76
				s2.53,1.21,3.43,2.09c0.9,0.88,1.58,1.9,2.04,3.06c0.46,1.16,0.68,2.4,0.68,3.72c0,2.37-0.61,4.29-1.84,5.77
				c-1.22,1.48-3.03,2.48-5.42,3L297.28,226.15z M278.21,208.9h1.64c1.71,0,3.02-0.33,3.94-0.99c0.91-0.66,1.37-1.61,1.37-2.85
				s-0.46-2.19-1.37-2.85c-0.92-0.66-2.23-0.99-3.94-0.99h-1.64V208.9z"/>
			<path class="st0" d="M380.13,210.56c0-2.32,0.46-4.47,1.37-6.47c0.91-2,2.18-3.74,3.8-5.23c1.62-1.49,3.56-2.65,5.82-3.5
				c2.26-0.84,4.74-1.26,7.45-1.26c2.68,0,5.16,0.42,7.43,1.26c2.27,0.84,4.22,2.01,5.86,3.5c1.64,1.49,2.91,3.23,3.83,5.23
				c0.91,2,1.37,4.16,1.37,6.47s-0.46,4.47-1.37,6.47c-0.91,2-2.19,3.74-3.83,5.23c-1.64,1.49-3.59,2.65-5.86,3.49
				c-2.27,0.84-4.75,1.26-7.43,1.26c-2.71,0-5.2-0.42-7.45-1.26c-2.26-0.84-4.2-2.01-5.82-3.49c-1.62-1.49-2.89-3.23-3.8-5.23
				C380.58,215.03,380.13,212.87,380.13,210.56z M389.19,210.56c0,1.24,0.25,2.38,0.75,3.43c0.5,1.05,1.18,1.96,2.03,2.73
				c0.85,0.77,1.85,1.37,2.99,1.8s2.34,0.64,3.61,0.64s2.47-0.21,3.61-0.64c1.13-0.43,2.14-1.03,3.01-1.8
				c0.87-0.77,1.56-1.68,2.06-2.73c0.5-1.05,0.75-2.19,0.75-3.43s-0.25-2.38-0.75-3.43c-0.5-1.05-1.19-1.96-2.06-2.73
				c-0.87-0.77-1.87-1.37-3.01-1.8c-1.14-0.43-2.34-0.64-3.61-0.64s-2.47,0.21-3.61,0.64s-2.13,1.03-2.99,1.8
				c-0.85,0.77-1.53,1.68-2.03,2.73C389.45,208.17,389.19,209.32,389.19,210.56z"/>
			<path class="st0" d="M447.76,201.83h-10.44v5.21h9.51v6.86h-9.51v12.24h-8.67v-31.18h19.11V201.83z"/>
			<path class="st0" d="M552.76,201.83h-10.44v5.21h9.51v6.86h-9.51v12.24h-8.67v-31.18h19.11V201.83z"/>
			<path class="st0" d="M572.71,194.97v31.18h-8.67v-31.18H572.71z"/>
			<path class="st0" d="M585.8,226.15v-31.18h8.67l16.01,19.06v-19.06h8.62v31.18h-8.62l-16.01-19.06v19.06H585.8z"/>
			<path class="st0" d="M651.18,201.83h-10.31v5.21h9.73v6.86h-9.73v5.38h10.31v6.87H632.2v-31.18h18.97V201.83z"/>
			<path class="st0" d="M756.45,202.95c-0.94-0.72-1.89-1.25-2.83-1.59c-0.94-0.35-1.86-0.52-2.74-0.52c-1.12,0-2.03,0.25-2.74,0.75
				c-0.71,0.5-1.06,1.14-1.06,1.94c0,0.55,0.18,1.01,0.53,1.36c0.36,0.36,0.82,0.67,1.39,0.93c0.58,0.26,1.22,0.49,1.95,0.68
				c0.72,0.19,1.44,0.4,2.14,0.62c2.83,0.88,4.9,2.06,6.22,3.54c1.31,1.47,1.97,3.4,1.97,5.77c0,1.6-0.29,3.05-0.86,4.34
				c-0.58,1.3-1.42,2.41-2.52,3.33c-1.11,0.92-2.46,1.64-4.07,2.15c-1.61,0.51-3.43,0.76-5.46,0.76c-4.22,0-8.13-1.17-11.72-3.51
				l3.72-6.53c1.3,1.07,2.58,1.87,3.85,2.4c1.27,0.52,2.52,0.79,3.76,0.79c1.41,0,2.47-0.3,3.16-0.91c0.69-0.61,1.04-1.3,1.04-2.07
				c0-0.47-0.09-0.88-0.26-1.22c-0.18-0.34-0.47-0.66-0.89-0.95c-0.41-0.29-0.95-0.56-1.61-0.81c-0.66-0.25-1.47-0.52-2.41-0.83
				c-1.12-0.33-2.22-0.7-3.3-1.1s-2.03-0.93-2.88-1.59c-0.84-0.66-1.52-1.5-2.03-2.5c-0.52-1.01-0.77-2.28-0.77-3.83
				c0-1.54,0.27-2.94,0.82-4.2c0.54-1.25,1.31-2.33,2.3-3.23c0.99-0.9,2.2-1.59,3.63-2.09c1.43-0.5,3.03-0.75,4.8-0.75
				c1.65,0,3.38,0.21,5.17,0.64c1.8,0.43,3.52,1.05,5.18,1.88L756.45,202.95z"/>
			<path class="st0" d="M781.49,226.15h-8.67v-31.18h13.8c3.74,0,6.61,0.91,8.6,2.73c1.99,1.82,2.99,4.38,2.99,7.69
				c0,3.31-0.99,5.87-2.99,7.69c-1.99,1.82-4.86,2.73-8.6,2.73h-5.13V226.15z M781.49,209.28h2.88c3.18,0,4.78-1.3,4.78-3.89
				c0-2.59-1.59-3.89-4.78-3.89h-2.88V209.28z"/>
			<path class="st0" d="M817.58,194.97v31.18h-8.67v-31.18H817.58z"/>
			<path class="st0" d="M858.4,226.15h-10.79l-8.27-11.99v11.99h-8.67v-31.18h13.49c1.86,0,3.48,0.25,4.87,0.76s2.53,1.21,3.43,2.09
				s1.58,1.9,2.04,3.06c0.46,1.16,0.68,2.4,0.68,3.72c0,2.37-0.61,4.29-1.84,5.77c-1.22,1.48-3.03,2.48-5.42,3L858.4,226.15z
				 M839.34,208.9h1.64c1.71,0,3.02-0.33,3.94-0.99c0.91-0.66,1.37-1.61,1.37-2.85s-0.46-2.19-1.37-2.85
				c-0.91-0.66-2.23-0.99-3.94-0.99h-1.64V208.9z"/>
			<path class="st0" d="M876.8,194.97v31.18h-8.67v-31.18H876.8z"/>
			<path class="st0" d="M902.55,201.83v24.32h-8.67v-24.32h-7.12v-6.86h22.91v6.86H902.55z"/>
			<path class="st0" d="M937.97,202.95c-0.94-0.72-1.89-1.25-2.83-1.59c-0.94-0.35-1.86-0.52-2.74-0.52c-1.12,0-2.03,0.25-2.74,0.75
				c-0.71,0.5-1.06,1.14-1.06,1.94c0,0.55,0.18,1.01,0.53,1.36c0.36,0.36,0.82,0.67,1.39,0.93c0.58,0.26,1.22,0.49,1.95,0.68
				c0.72,0.19,1.44,0.4,2.14,0.62c2.83,0.88,4.9,2.06,6.22,3.54c1.31,1.47,1.97,3.4,1.97,5.77c0,1.6-0.29,3.05-0.86,4.34
				c-0.58,1.3-1.42,2.41-2.52,3.33c-1.11,0.92-2.46,1.64-4.07,2.15c-1.61,0.51-3.43,0.76-5.46,0.76c-4.22,0-8.13-1.17-11.72-3.51
				l3.72-6.53c1.3,1.07,2.58,1.87,3.85,2.4c1.27,0.52,2.52,0.79,3.76,0.79c1.41,0,2.47-0.3,3.16-0.91c0.69-0.61,1.04-1.3,1.04-2.07
				c0-0.47-0.09-0.88-0.26-1.22c-0.18-0.34-0.47-0.66-0.89-0.95c-0.41-0.29-0.95-0.56-1.61-0.81c-0.66-0.25-1.47-0.52-2.41-0.83
				c-1.12-0.33-2.22-0.7-3.3-1.1s-2.03-0.93-2.88-1.59c-0.84-0.66-1.52-1.5-2.03-2.5c-0.52-1.01-0.77-2.28-0.77-3.83
				c0-1.54,0.27-2.94,0.82-4.2c0.54-1.25,1.31-2.33,2.3-3.23c0.99-0.9,2.2-1.59,3.63-2.09c1.43-0.5,3.03-0.75,4.8-0.75
				c1.65,0,3.38,0.21,5.17,0.64c1.8,0.43,3.52,1.05,5.18,1.88L937.97,202.95z"/>
		</g>
	</g>
</g>
</svg>
