<?xml version="1.0" encoding="utf-8"?>
<!-- Generator: Adobe Illustrator 23.0.6, SVG Export Plug-In . SVG Version: 6.00 Build 0)  -->
<svg version="1.1" id="Layer_1" xmlns="http://www.w3.org/2000/svg" xmlns:xlink="http://www.w3.org/1999/xlink" x="0px" y="0px"
	 viewBox="0 0 300 179.3" style="enable-background:new 0 0 300 179.3;" xml:space="preserve">
<style type="text/css">
	.st0{fill:#AE4D33;}
</style>
<g>
	<g>
		<g>
			<path class="st0" d="M44.4,94.3l-8.1-10.7h-2.4v10.7h-6.5V65.7h10.1c8.5,0,10.1,6.1,10.1,8.8c0,3.6-2.2,6-4.9,7.4l9.9,12.3H44.4z
				 M36.7,78.1c3.1,0,4.3-1.6,4.3-3.4c0-2-1.5-3.3-4.2-3.3h-2.9v6.7L36.7,78.1L36.7,78.1z"/>
		</g>
		<g>
			<path class="st0" d="M69.1,94.9c-9.8,0-16.5-7.5-16.5-14.9c0-7.4,6.7-14.9,16.5-14.9S85.6,72.6,85.6,80
				C85.6,87.3,78.9,94.9,69.1,94.9z M78.6,80c0-5.2-4.1-9.1-9.5-9.1s-9.5,4-9.5,9.1s4.1,9.1,9.5,9.1S78.6,85.2,78.6,80z"/>
		</g>
		<g>
			<path class="st0" d="M106.9,94.3l-7.3-9.8l-7.4,9.8h-7.6l11.2-15L85.6,65.7h7.6l6.3,8.5l6.4-8.5h7.6l-10.2,13.6l11.2,15H106.9z"
				/>
		</g>
		<g>
			<path class="st0" d="M139.7,94.3l-2.2-5.9h-11.4l-2.2,5.9h-6.9l11.9-28.6h6l11.9,28.6H139.7z M131.8,73.6l-3.7,9.6h7.3
				L131.8,73.6z"/>
		</g>
		<g>
			<path class="st0" d="M172.7,94.3l-15.5-18.6v18.6h-6.5V65.7h6.5l15.1,18.1V65.7h6.5v28.6L172.7,94.3L172.7,94.3z"/>
		</g>
		<g>
			<path class="st0" d="M207.7,94.3l-15.5-18.6v18.6h-6.5V65.7h6.5l15.1,18.1V65.7h6.5v28.6L207.7,94.3L207.7,94.3z"/>
		</g>
		<g>
			<path class="st0" d="M220.6,94.3V65.7h20.5v5.7h-14v5.4h9.9v5.7h-9.9v6.1h14v5.7C241.1,94.3,220.6,94.3,220.6,94.3z"/>
		</g>
		<g>
			<path class="st0" d="M252,69.6c0,2.4-1.1,6.2-6.5,6.2c-1.2,0-2.7-0.2-3.2-0.6c3.5-0.9,3.9-2.3,3.9-5.5v-4.1h5.9L252,69.6
				L252,69.6z"/>
		</g>
		<g>
			<path class="st0" d="M268.6,73c-0.8-1.3-2.1-2.3-3.8-2.3c-1.8,0-2.8,0.9-2.8,2.2c0,3.8,13,3.3,13,12.5c0,4.4-3.6,9.4-10.5,9.4
				c-5.8,0-8.9-3.7-10.5-6.8l5.8-2.8c0.5,1.8,1.7,4.2,4.8,4.2c1.8,0,3.6-1.4,3.6-3.3c0-4.9-12.8-4.1-12.8-12.8c0-4.2,4-8.2,9.4-8.2
				c3.7,0,7,1.7,9.2,5.1L268.6,73z"/>
		</g>
		<g>
			<path class="st0" d="M113,129c-2.9,1.7-7,2.7-10.1,2.7c-9,0-16.5-6.8-16.5-14.9c0-8.5,7.6-14.9,16.6-14.9c3.4,0,7.5,1,10.1,2.2
				v6.7c-3.3-2-6.7-3.2-9.7-3.2c-6.2,0-10,4.5-10,9.1c0,5.5,4.8,9.1,10.1,9.1c3.5,0,6.8-1.4,9.6-3.8C113,122.2,113,129,113,129z"/>
		</g>
		<g>
			<path class="st0" d="M138,131.1l-8.1-10.7h-2.4v10.7H121v-28.6H131c8.5,0,10.1,6.1,10.1,8.8c0,3.6-2.2,6-4.9,7.4l9.9,12.3H138z
				 M130.3,114.9c3.1,0,4.3-1.6,4.3-3.4c0-2-1.5-3.3-4.2-3.3h-2.9v6.7L130.3,114.9L130.3,114.9z"/>
		</g>
		<g>
			<path class="st0" d="M148.9,131.1v-28.6h20.5v5.7h-14v5.4h9.9v5.7h-9.9v6.1h14v5.7L148.9,131.1L148.9,131.1z"/>
		</g>
		<g>
			<path class="st0" d="M200.3,131.1l-5.9-18.7l-5.9,18.7h-6.2l-9.5-28.6h6.5l6.1,18.6l6-18.6h6l6,18.6l6-18.6h6.5l-9.4,28.6H200.3z
				"/>
		</g>
	</g>
	<g>
		<path class="st0" d="M150,179.3c-82.7,0-150-40.2-150-89.7C0,40.2,67.3,0,150,0s150,40.2,150,89.7
			C300,139.1,232.7,179.3,150,179.3z M150,6.5C70.9,6.5,6.5,43.8,6.5,89.7s64.4,83.1,143.5,83.1c79.1,0,143.5-37.3,143.5-83.1
			S229.1,6.5,150,6.5z"/>
	</g>
</g>
</svg>
