<?xml version="1.0" encoding="utf-8"?>
<!-- Generator: Adobe Illustrator 24.0.3, SVG Export Plug-In . SVG Version: 6.00 Build 0)  -->
<svg version="1.1" id="Layer_1" xmlns="http://www.w3.org/2000/svg" xmlns:xlink="http://www.w3.org/1999/xlink" x="0px" y="0px"
	 viewBox="0 0 538.5 327.3" style="enable-background:new 0 0 538.5 327.3;" xml:space="preserve">
<style type="text/css">
	.st0{fill:#2F456B;}
</style>
<path class="st0" d="M457,45.9C406.6,16.3,340,0,269.2,0S131.8,16.3,81.5,45.9C28.9,76.8,0,118.6,0,163.6s28.9,86.8,81.5,117.7
	c50.4,29.6,117,45.9,187.8,45.9c70.7,0,137.4-16.3,187.8-45.9c52.5-30.9,81.5-72.7,81.5-117.7S509.5,76.8,457,45.9z M453,274.5
	c-49.2,28.9-114.4,44.8-183.7,44.8s-134.6-15.9-183.7-44.8C35.5,245.1,8,205.7,8,163.6S35.5,82.2,85.5,52.8
	C134.7,23.9,199.9,8,269.2,8S403.8,23.9,453,52.8c50,29.4,77.5,68.8,77.5,110.8S502.9,245.1,453,274.5z M103,239.9l0.1-0.1l1.5-6.5
	c0-0.4-0.1-0.7-0.4-0.9s-0.5-0.2-0.8-0.2l-0.8,0.3c-0.3,0.1-0.5,0.1-0.8-0.1c-0.1-0.1-0.3-0.2-0.4-0.4c-0.2-0.2-0.5-0.5-0.9-1.1
	c-0.9-1.2-2.1-2.2-3.5-3.2c-3.4-2.4-6.9-3.3-10.5-2.9c-3.6,0.5-6.5,2.2-8.6,5.3c-2.2,3.1-2.8,6.3-1.8,9.6s3.4,6.3,7.4,9l9.7,6.8
	c0.7,0.5,1.2,0.5,1.6,0c0.2-0.3,0.3-0.5,0.2-0.7c0-0.2-0.3-0.4-0.6-0.7c-0.4-0.4-0.5-0.7-0.4-1.1s0.4-1,1-1.8l1.8-2.5
	c0.3-0.4,0.5-0.8,0.7-1s0.4-0.4,0.6-0.6c0.2-0.2,0.6-0.2,1.1,0l0.4,0.2c0.4,0.2,0.8,0.1,1-0.3c0.4-0.5,0.2-1-0.5-1.5l-6.6-4.6
	c-0.7-0.5-1.2-0.5-1.6-0.1c-0.2,0.3-0.3,0.5-0.2,0.7c0.1,0.2,0.3,0.4,0.7,0.8c0.4,0.4,0.5,0.8,0.3,1.3l-0.3,0.6l-0.7,0.9l-1.8,2.6
	c-0.5,0.7-1,1-1.6,1s-1.4-0.4-2.5-1.1c-2.4-1.7-3.8-3.8-4.2-6.4c-0.4-2.6,0.3-5.1,2.1-7.7c1.7-2.5,3.8-4.1,6.3-4.8
	c2.4-0.7,4.7-0.3,6.7,1.1c1.2,0.8,2.2,1.9,2.9,3.1c0.8,1.3,1.2,2.5,1.3,3.6c0.1,1.1,0.2,1.9,0.3,2.4c0.1,0.5,0.3,0.8,0.5,1
	C102.2,240.4,102.6,240.4,103,239.9z M123.2,243.5l-9.5-4.5c-0.8-0.4-1.3-0.3-1.6,0.2c-0.2,0.5-0.1,0.9,0.5,1.3
	c0.6,0.4,0.9,0.7,0.9,1.1c0,0.4-0.2,1-0.7,2l-6.3,13.3l-0.3,0.7c-0.5,1-0.8,1.6-1.2,1.8c-0.3,0.2-0.8,0.2-1.4,0s-1.1-0.1-1.3,0.4
	c-0.3,0.6,0,1,0.8,1.4l7.9,3.8c0.8,0.4,1.3,0.3,1.6-0.2c0.2-0.5,0.1-0.9-0.4-1.2c-0.5-0.3-0.8-0.6-0.9-0.7s-0.1-0.4-0.1-0.7
	c0-0.2,0.1-0.5,0.2-0.7l0.5-1.1l1-2.2c0.2-0.4,0.5-0.5,0.9-0.3l0.7,0.3l1.2,0.7l1.6,0.6l1.2,4c0.4,1.5,0.6,2.4,0.4,2.7
	c-0.1,0.2-0.5,0.2-1.1,0s-1-0.1-1.2,0.4c-0.3,0.6,0,1,0.8,1.4l9,4.3c0.8,0.4,1.3,0.3,1.5-0.2c0.1-0.3,0.2-0.5,0.1-0.7
	s-0.3-0.4-0.8-0.7c-0.4-0.3-0.8-0.8-1.2-1.5c-0.2-0.4-0.4-0.8-0.5-1.2c-0.1-0.4-0.3-0.9-0.4-1.3l-1.6-5.2c1.4,0.3,2.4,0.4,3.2,0.4
	c0.7,0,1.6-0.2,2.4-0.6c1.5-0.6,2.5-1.7,3.3-3.2c1.2-2.5,1-5.1-0.7-7.8C130,247.7,127.2,245.4,123.2,243.5z M126.4,255.1
	c-0.8,1.6-2,2.6-3.5,2.9c-1.6,0.3-3.4,0-5.7-1.1c-1.1-0.5-1.9-1-2.2-1.5c-0.4-0.5-0.4-1-0.1-1.6l3.8-7.9c0.3-0.6,0.7-0.9,1.1-1
	c0.5,0,1.2,0.2,2.2,0.6c2.2,1,3.7,2.4,4.5,4.2C127.3,251.5,127.3,253.3,126.4,255.1z M161.2,258.6c-0.1-0.4-0.2-0.7-0.3-0.8
	c-0.1-0.1-0.2-0.2-0.5-0.3c-0.3-0.1-0.5-0.1-0.6,0l-0.5,0.2c-0.4,0.1-0.8,0-1.4-0.2l-15.1-5.1c-0.8-0.3-1.3-0.1-1.5,0.4
	s0,0.9,0.6,1.2c0.5,0.3,0.9,0.5,1,0.8c0.1,0.1,0.1,0.3,0.1,0.5s0,0.4,0,0.6s-0.1,0.5-0.3,0.9l-0.1,0.4l-4.7,13.8l-0.3,0.8
	c-0.3,1-0.7,1.6-0.9,1.9c-0.3,0.3-0.7,0.3-1.2,0.2c-0.5-0.1-0.9-0.1-1-0.1c-0.2,0.1-0.3,0.3-0.4,0.5c-0.2,0.6,0.1,1,0.9,1.3l17,5.8
	l1,0.3c0.1,0.1,0.3,0.3,0.4,0.5c0.2,0.4,0.4,0.6,0.5,0.7s0.2,0.2,0.5,0.3c0.2,0.1,0.4,0.1,0.5,0c0.1,0,0.4-0.2,0.6-0.4l4.6-3.9
	c0.3-0.2,0.4-0.4,0.5-0.6c0.2-0.5,0-0.8-0.6-1c-0.3-0.1-0.6,0-1.1,0.3c-0.6,0.4-1.3,0.7-2.1,1c-0.8,0.2-1.6,0.4-2.3,0.4
	c-0.6,0-1.4-0.1-2.4-0.3c-1-0.2-1.9-0.4-2.8-0.7l-3.9-1.3c-1-0.3-1.6-0.7-1.8-1.1s-0.1-1,0.2-1.9l2.4-6.9c0.2-0.7,0.8-0.9,1.5-0.7
	l2.1,0.7c1.7,0.6,3,1.7,3.9,3.3c0.3,0.6,0.6,0.9,0.9,1c0.6,0.2,1,0,1.1-0.5c0.1-0.2,0.1-0.4,0-0.8l-1.4-4.8c-0.2-0.6-0.4-0.9-0.7-1
	c-0.2-0.1-0.4-0.1-0.6,0c-0.2,0.1-0.4,0.2-0.7,0.5s-0.5,0.4-0.7,0.4s-0.5-0.1-1-0.2l-2.2-0.8c-0.8-0.3-1.1-0.8-0.8-1.5l1.2-3.4
	c0.3-1,0.7-1.5,1-1.7s1-0.1,2.1,0.3l2.7,0.9c1.7,0.6,3,1.3,4,2.1c1,0.8,1.8,1.8,2.3,3c0.3,0.5,0.5,0.9,0.8,0.9
	c0.2,0.1,0.5,0.1,0.7,0s0.4-0.2,0.4-0.4c0-0.1,0-0.4,0-0.8L161.2,258.6z M191.5,289.7c-0.7-0.3-1.2-0.7-1.4-1.2
	c-0.2-0.3-0.3-0.7-0.4-1c0-0.1-0.1-0.5-0.2-1l-3.3-20.6c0-0.4-0.1-0.6-0.2-0.7s-0.2-0.2-0.5-0.2l-4.3-1c-0.2-0.1-0.4-0.1-0.5,0
	s-0.3,0.2-0.5,0.5l-12.6,16.8c-0.4,0.5-0.6,0.7-0.7,0.9c-0.2,0.3-0.5,0.5-0.8,0.7c-0.5,0.4-1.1,0.5-1.8,0.5
	c-0.7-0.1-1.2,0.1-1.3,0.6c-0.1,0.6,0.2,1,1,1.2l6.2,1.5c0.8,0.2,1.3,0,1.4-0.6c0.1-0.5-0.1-0.9-0.6-1.1s-0.9-0.4-1-0.5
	c-0.1-0.2-0.2-0.4-0.1-0.7c0.1-0.3,0.4-0.9,1-1.7l0.8-1.1l0.6-0.8c0.1,0,0.4,0,1.1,0.2l7.8,1.8c0.7,0.2,1,0.3,1.1,0.4
	s0.1,0.2,0.1,0.2c0.1,0.3,0.1,0.6,0.2,0.9l0.2,1.2c0.2,0.7,0.2,1.3,0.1,1.8c-0.1,0.5-0.6,0.7-1.4,0.6c-0.8-0.1-1.2,0.1-1.4,0.6
	c-0.1,0.6,0.2,1,1.1,1.2l9.4,2.2c0.9,0.2,1.3,0,1.5-0.6C192.5,290.4,192.2,290,191.5,289.7z M181.2,279.5l-5.9-1.4
	c-0.5-0.1-0.7-0.4-0.6-0.8l0.1-0.3l5.1-6.9c0.2-0.2,0.4-0.3,0.4-0.3c0.1,0,0.1,0.1,0.1,0.1c0,0.1,0.1,0.2,0.1,0.4l1.4,8.4v0.5
	C182,279.6,181.7,279.7,181.2,279.5z M221.3,271.4c-0.1-0.4-0.2-0.7-0.3-0.8c-0.1-0.1-0.3-0.2-0.5-0.2c-0.3,0-0.6,0-0.9,0.3
	c-0.4,0.2-0.6,0.3-0.7,0.3c-0.1,0-0.4,0-0.8-0.1l-15.5-2.4c-0.6-0.1-1.1-0.3-1.3-0.5l-0.3-0.4c-0.1-0.1-0.3-0.2-0.6-0.3
	c-0.4-0.1-0.8,0.1-1.1,0.4l-3.7,4.7c-0.2,0.2-0.3,0.5-0.3,0.6c0,0.2,0,0.4,0.2,0.6s0.3,0.3,0.6,0.3c0.3,0.1,0.7-0.1,1.1-0.4l1.3-1
	c0.7-0.5,1.3-0.9,2-1.1s1.3-0.4,1.9-0.4c0.4,0,1,0,1.7,0.1l1.5,0.2c0.4,0.1,0.7,0.2,0.8,0.4c0.1,0.2,0.2,0.5,0.1,0.9l-2.4,15.6
	L204,289c-0.2,1.1-0.4,1.8-0.6,2.1s-0.7,0.4-1.3,0.4c-0.7,0-1,0.2-1.1,0.7c-0.1,0.6,0.3,1,1.2,1.1l8.6,1.3c0.9,0.1,1.3-0.1,1.4-0.7
	c0.1-0.3,0-0.6-0.1-0.7s-0.4-0.3-0.9-0.4c-0.5-0.2-0.8-0.5-0.9-1c-0.1-0.3-0.1-0.6,0-0.9c0-0.3,0.1-0.6,0.2-1l2.6-16.5
	c0.1-0.7,0.5-0.9,1.3-0.8l1.7,0.3c1.3,0.2,2.5,0.7,3.4,1.6c0.4,0.4,0.8,0.9,1.2,1.5l0.8,1.2c0.3,0.5,0.6,0.8,0.9,0.8
	c0.3,0,0.5,0,0.7-0.1s0.3-0.3,0.4-0.5c0-0.2,0-0.4-0.1-0.6L221.3,271.4z M260,275.6c3.3,0.1,6.2,1.8,8.5,5.1c0.3,0.4,0.6,0.7,1,0.7
	c0.6,0,0.9-0.2,0.9-0.7c0-0.2,0-0.5-0.1-0.7l-2-5.6c-0.1-0.4-0.3-0.6-0.4-0.7s-0.4-0.2-0.7-0.2c-0.4,0-0.7,0.2-0.9,0.6
	s-0.3,0.6-0.4,0.7s-0.3,0.1-0.6,0.1l-1-0.2c-2.1-0.7-4-1-5.8-1.1c-4-0.1-7.4,1-10.1,3.4c-2.7,2.4-4.2,5.4-4.3,9.1s1.2,6.8,3.8,9.2
	c2.7,2.4,6.2,3.7,10.5,3.8c4.8,0.1,8.5-1.1,10.9-3.9c0.7-0.7,1-1.3,1-1.7c0-0.2-0.1-0.5-0.3-0.7c-0.2-0.2-0.4-0.3-0.6-0.3
	s-0.4,0.1-0.6,0.2s-0.4,0.4-0.7,0.8c-0.9,1.1-2,1.9-3.3,2.4s-2.8,0.8-4.4,0.7c-2.9-0.1-5.3-1.1-7-3.1c-1.8-2-2.6-4.6-2.5-7.6
	s1-5.5,2.7-7.4C255.3,276.4,257.4,275.5,260,275.6z M302.4,276.4c-2.9-2.4-6.4-3.5-10.5-3.3c-4,0.2-7.4,1.8-10,4.6
	c-2.6,2.8-3.8,6.2-3.6,10c0.2,3.5,1.7,6.3,4.4,8.2c2.7,2,6.3,2.8,10.6,2.6c4.4-0.3,7.8-1.5,10.4-3.9c2.5-2.3,3.7-5.3,3.5-8.9
	C306.9,281.9,305.3,278.8,302.4,276.4z M298.6,293.1c-1.3,1.8-3.1,2.8-5.3,3c-2.4,0.1-4.3-0.6-5.8-2.3c-1.5-1.7-2.3-3.9-2.5-6.9
	v-0.6c-0.2-3,0.4-5.6,1.8-7.7s3.1-3.2,5.2-3.3c2.2-0.1,4.1,0.8,5.7,2.9s2.5,4.7,2.7,7.9C300.4,288.9,299.9,291.2,298.6,293.1z
	 M348.5,289.6h-0.4c-0.4,0-0.8-0.2-1.1-0.5c-0.3-0.3-0.7-1-1.1-1.9l-6.7-14.6l-0.5-1.1c0-0.1,0-0.3-0.1-0.5c-0.1-0.3,0-0.6,0.1-0.7
	c0.1-0.2,0.4-0.3,0.9-0.5s0.8-0.5,0.7-1c-0.1-0.6-0.6-0.8-1.4-0.7l-7.1,1.1c-0.9,0.1-1.3,0.5-1.2,1.1c0.1,0.5,0.4,0.8,0.9,0.8
	s0.9,0,1.2,0.1s0.4,0.3,0.5,0.6v0.7l-0.3,1.3l-2.3,9.7c0,0-0.1,0.1-0.2,0.2c0,0-0.1,0-0.2,0s-0.1-0.1-0.1-0.1l-5.3-8.5l-0.7-1.1
	c-0.1-0.2-0.2-0.4-0.3-0.7c0-0.3,0-0.5,0.1-0.6s0.4-0.3,1-0.4s0.8-0.5,0.7-1c-0.1-0.6-0.6-0.8-1.4-0.7l-7.2,1.1
	c-0.8,0.1-1.2,0.5-1.1,1.1c0.1,0.5,0.4,0.8,1,0.8s0.9,0,1.1,0.2c0.2,0.1,0.3,0.4,0.3,0.7c0,0.2,0,0.4,0,0.5c0,0.2,0,0.6-0.1,1.1
	l-1.5,15.9c-0.1,1-0.2,1.7-0.4,2.1c-0.2,0.4-0.5,0.7-0.9,0.8L315,295c-0.4,0.1-0.6,0.4-0.5,0.9c0.1,0.6,0.6,0.9,1.4,0.7l5.4-0.8
	c0.9-0.1,1.3-0.5,1.2-1.1c-0.1-0.5-0.5-0.8-1.2-0.8c-0.8,0.1-1.3-0.2-1.4-1v-0.4l0.1-1.2l0.6-10.9c0-0.2,0.1-0.3,0.2-0.4h0.1
	c0.1,0.1,0.2,0.1,0.2,0.2l8.8,13.7c0.2,0.3,0.4,0.4,0.6,0.3c0.2,0,0.4-0.2,0.4-0.5l3.8-15.6c0,0,0.1-0.1,0.3-0.3
	c0.2,0,0.3,0,0.4,0.2l4,10.3l0.5,1.1l0.1,0.4c0.1,0.7-0.2,1.1-0.9,1.3s-1.1,0.5-1,1.1s0.6,0.8,1.4,0.7l8.9-1.4
	c0.8-0.1,1.2-0.5,1.1-1.1C349.2,289.8,348.9,289.6,348.5,289.6z M369.9,263.5c-2.9-1-6.5-1-10.7,0l-9.2,2.3
	c-0.8,0.2-1.2,0.6-1.1,1.2c0.1,0.5,0.5,0.7,1.3,0.6c0.7-0.1,1.2,0.1,1.5,0.5c0.2,0.3,0.3,0.6,0.4,1.1l0.2,0.7l3.6,14.3l0.2,0.7
	c0.2,0.6,0.2,1,0.3,1.2c0,0.2,0,0.4,0,0.6c-0.1,0.5-0.5,0.9-1.1,1.2c-0.6,0.3-0.9,0.6-0.8,1.1c0.2,0.6,0.6,0.8,1.5,0.6l8.6-2.2
	c0.8-0.2,1.2-0.6,1-1.2c-0.1-0.5-0.5-0.7-1.2-0.6s-1.2-0.1-1.5-0.5c-0.2-0.3-0.3-0.6-0.4-0.8s-0.1-0.5-0.2-0.9l-0.5-1.9
	c-0.2-0.6,0.1-1,0.7-1.1l1.3-0.2c0.3-0.1,0.8-0.2,1.5-0.3c0.7-0.1,1.3-0.2,1.6-0.3c1.2-0.3,2.2-0.6,3.1-0.9s1.6-0.7,2.3-1.2
	c1.4-0.9,2.4-2.1,2.9-3.4c0.6-1.4,0.6-2.9,0.2-4.5C374.6,266.5,372.8,264.5,369.9,263.5z M368.3,275c-0.8,1.2-2.1,2-4,2.5
	c-2.2,0.6-3.5,0.2-3.8-0.9l-2.2-8.6c-0.2-0.6-0.1-1.1,0.1-1.5c0.3-0.3,0.8-0.6,1.6-0.8c2.1-0.5,3.9-0.3,5.6,0.6s2.7,2.4,3.2,4.3
	C369.3,272.4,369.1,273.8,368.3,275z M408.4,271.8c-0.7,0.2-1.3,0.1-1.8-0.3c-0.3-0.2-0.6-0.4-0.9-0.7c-0.1-0.1-0.3-0.3-0.7-0.8
	l-13.9-15.5c-0.2-0.3-0.4-0.4-0.5-0.5c-0.1,0-0.3,0-0.5,0.1l-4.2,1.5c-0.2,0.1-0.4,0.2-0.4,0.3c-0.1,0.1-0.1,0.3-0.2,0.7l-1.6,20.9
	c-0.1,0.6-0.1,0.9-0.1,1.1c-0.1,0.4-0.1,0.7-0.3,1c-0.2,0.6-0.6,1-1.3,1.3s-0.9,0.7-0.7,1.2c0.2,0.6,0.7,0.7,1.5,0.4l6-2.1
	c0.8-0.3,1.1-0.7,0.9-1.3c-0.2-0.5-0.6-0.7-1.1-0.6c-0.6,0.1-0.9,0.2-1.1,0.1s-0.4-0.2-0.4-0.5c-0.1-0.3-0.1-1-0.1-1.9l0.1-1.4
	l0.1-1c0-0.1,0.4-0.2,1-0.5l7.6-2.7c0.6-0.2,1-0.3,1.1-0.3s0.2,0.1,0.2,0.1c0.2,0.2,0.4,0.5,0.7,0.7l0.9,0.9c0.5,0.5,0.9,1,1,1.5
	c0.2,0.5-0.1,0.9-0.8,1.3s-1,0.8-0.8,1.3c0.2,0.6,0.7,0.7,1.5,0.4l9.1-3.2c0.8-0.3,1.1-0.7,0.9-1.3
	C409.6,271.8,409.2,271.6,408.4,271.8z M394.2,268.8l-5.7,2c-0.5,0.2-0.8,0-0.9-0.3l-0.1-0.3l0.6-8.6c0-0.3,0.1-0.5,0.2-0.5
	s0.1,0,0.2,0c0,0,0.1,0.1,0.3,0.3l5.7,6.3l0.2,0.4C394.9,268.4,394.7,268.6,394.2,268.8z M429,241.7l-0.3-0.7
	c-0.2-0.3-0.3-0.7-0.4-1c-0.1-0.5,0.1-0.9,0.5-1.2l0.3-0.2c0.4-0.3,0.4-0.6,0.2-1c-0.3-0.5-0.8-0.6-1.5-0.3l-4.4,2.2
	c-0.8,0.4-1,0.8-0.7,1.4c0.2,0.3,0.3,0.5,0.4,0.5s0.5,0,1-0.2s0.9-0.1,1.1,0.1c0.3,0.2,0.6,0.8,1.1,1.8l4,8c0.1,0.2,0.1,0.4-0.1,0.5
	c-0.1,0-0.1,0-0.1,0c-0.2,0-0.3,0-0.4,0l-17.1-6l-0.8-0.3c-0.1,0-0.4,0.1-0.7,0.3l-5.4,2.7c-0.8,0.4-1.1,0.9-0.8,1.4
	c0.2,0.3,0.3,0.5,0.5,0.5s0.5,0,1-0.2s0.9-0.1,1.2,0.1c0.3,0.2,0.7,0.8,1.1,1.8l6.9,13.9c0.2,0.5,0.4,0.9,0.5,1.1s0.2,0.5,0.2,0.7
	c0.1,0.5-0.1,0.9-0.5,1.2c-0.4,0.3-0.7,0.5-0.8,0.7c-0.1,0.2-0.1,0.4,0.1,0.7c0.3,0.6,0.8,0.6,1.6,0.2l4.7-2.3
	c0.8-0.4,1-0.8,0.7-1.4c-0.1-0.3-0.3-0.5-0.5-0.5s-0.5,0-1,0.2s-0.9,0.1-1.2-0.1c-0.3-0.2-0.7-0.8-1.2-1.8l-6-12
	c-0.1-0.2-0.1-0.4,0.1-0.5c0.1,0,0.1,0,0.2,0s0.1,0,0.1,0l20.7,7.2c0.4,0.1,0.7,0.3,0.8,0.4c0.1,0.1,0.3,0.4,0.5,0.9l0.1,0.2
	c0.1,0.3,0.4,0.4,0.6,0.2l2-1c0.2-0.1,0.3-0.3,0.1-0.7L429,241.7z M461.1,242.6c-0.1,0-0.5,0.1-0.9,0.3c-0.5,0.2-0.9,0.2-1.3-0.1
	l-0.5-0.5l-0.7-0.9l-2.2-3.1c-0.4-0.5-0.6-1-0.6-1.5l-0.4-12.1c0-1.2,0-2,0-2.6s0.2-0.9,0.5-1.2l0.3-0.3c0.3-0.3,0.4-0.7,0.1-1.1
	c-0.4-0.5-0.9-0.5-1.6,0L449,223c-0.7,0.5-0.9,1-0.6,1.5s0.8,0.5,1.4,0.2c0.6-0.4,1-0.4,1.2-0.1c0.2,0.2,0.3,0.6,0.3,0.9l0.1,1.4
	l0.4,8.1c0,0.1,0,0.2,0,0.3s-0.1,0.1-0.1,0.2c-0.2,0.1-0.3,0.1-0.6,0l-7.8-2.9l-1.3-0.5l-0.7-0.4l-0.2-0.2c-0.2-0.3,0-0.6,0.5-1.1
	s0.6-0.9,0.3-1.3c-0.4-0.5-0.9-0.5-1.6,0l-7.9,5.6c-0.7,0.5-0.9,1-0.5,1.5c0.3,0.4,0.6,0.5,1,0.3l0.4-0.2c0.3-0.1,0.7-0.2,1.3-0.1
	c0.5,0.1,1.3,0.4,2.5,0.8l12.1,4.4c0.6,0.2,1,0.5,1.3,1l1.9,2.7c0.6,0.9,0.9,1.5,1,1.9c0,0.4-0.1,0.7-0.5,1.1
	c-0.4,0.3-0.6,0.6-0.6,0.8s0,0.4,0.2,0.6c0.4,0.5,0.9,0.5,1.6,0l6.9-4.9c0.7-0.5,0.9-1,0.5-1.5C461.4,242.7,461.2,242.6,461.1,242.6
	z M75.7,116.6c-0.3-0.2-0.5-0.3-0.7-0.2c-0.2,0-0.4,0.3-0.7,0.6c-0.4,0.4-0.7,0.5-1.1,0.5c-0.4-0.1-1-0.4-1.8-1l-2.5-1.7
	c-0.5-0.3-0.8-0.5-1-0.7s-0.4-0.4-0.6-0.6s-0.2-0.6-0.1-1.1l0.2-0.4c0.2-0.4,0-0.8-0.3-1c-0.5-0.3-1-0.2-1.5,0.5l-4.5,6.7
	c-0.5,0.7-0.5,1.2,0,1.6c0.3,0.2,0.5,0.3,0.7,0.2c0.2-0.1,0.4-0.3,0.8-0.7c0.3-0.4,0.8-0.5,1.3-0.4l0.7,0.3l1,0.6l2.6,1.8
	c0.7,0.5,1,1,1,1.6s-0.4,1.4-1.1,2.5c-1.6,2.4-3.7,3.9-6.3,4.3c-2.6,0.4-5.1-0.2-7.7-2c-2.5-1.7-4.1-3.8-4.9-6.2
	c-0.7-2.4-0.4-4.7,1-6.7c0.8-1.2,1.8-2.2,3.1-3c1.2-0.8,2.4-1.2,3.6-1.3c1.1-0.1,1.9-0.2,2.4-0.3c0.5-0.1,0.8-0.3,1-0.5
	c0.4-0.5,0.3-1-0.2-1.3l-0.1-0.1l-6.5-1.4c-0.4,0-0.7,0.1-0.9,0.4s-0.2,0.5-0.2,0.8l0.3,0.8c0.1,0.3,0.1,0.5-0.1,0.8
	c-0.1,0.1-0.2,0.3-0.4,0.5s-0.5,0.5-1,0.9c-1.1,1-2.2,2.1-3.1,3.5c-2.3,3.4-3.2,7-2.7,10.5c0.5,3.6,2.3,6.4,5.4,8.5
	c3.2,2.1,6.4,2.7,9.7,1.6c3.3-1,6.2-3.5,8.9-7.5l6.6-9.8C76.2,117.5,76.2,116.9,75.7,116.6z M81.2,109.7c3.4,0,6.7-1.3,10.2-4
	c3.4-2.7,5.5-5.8,6.2-9.1c0.7-3.4,0-6.4-2.3-9.3c-2.3-3-5.4-4.6-9.2-4.9c-3.8-0.3-7.3,0.8-10.5,3.3s-5,5.7-5.5,9.5s0.4,7.2,2.8,10.2
	C75.1,108.2,77.8,109.6,81.2,109.7z M76.9,87.5c1.7-1.4,3.8-1.7,6.3-0.9c2.5,0.8,4.7,2.4,6.7,4.9c1.8,2.2,2.6,4.4,2.6,6.7
	c0,2.3-0.9,4.1-2.6,5.5c-1.8,1.5-3.9,2-6,1.5c-2.2-0.5-4.2-1.9-6-4.2l-0.4-0.5c-1.9-2.4-2.9-4.8-3-7.3
	C74.5,90.7,75.3,88.8,76.9,87.5z M107.9,90.1c3.3,0.6,6.9-0.1,10.7-2.1c3.9-2.1,6.5-4.7,7.8-7.8c1.3-3.2,1.2-6.3-0.5-9.5
	c-1.8-3.3-4.5-5.5-8.2-6.5s-7.3-0.5-10.9,1.4s-6,4.7-7.2,8.4c-1.2,3.7-0.9,7.2,0.9,10.6C102.2,87.6,104.6,89.4,107.9,90.1z
	 M104.4,72.7c0.4-2.4,1.5-4.2,3.4-5.2s4.1-0.9,6.4,0.3c2.3,1.2,4.2,3.2,5.7,6c1.3,2.5,1.8,4.8,1.3,7c-0.4,2.2-1.6,3.8-3.6,4.9
	c-2.1,1.1-4.1,1.2-6.2,0.3c-2-0.9-3.8-2.6-5.1-5.2l-0.3-0.5C104.6,77.7,104,75.1,104.4,72.7z M128.3,57.2c0.1,0.1,0.5,0,1-0.1
	s0.9,0,1.1,0.2c0.2,0.3,0.5,0.9,0.9,1.9l5.3,14.5c0.4,1,0.6,1.7,0.5,2.1c0,0.4-0.3,0.7-0.7,0.9c-0.4,0.2-0.7,0.4-0.8,0.5
	c-0.1,0.2-0.1,0.4,0,0.7c0.2,0.6,0.7,0.7,1.5,0.4l10.7-3.9c3.6-1.3,6.2-3,7.7-5.1c1-1.4,1.6-2.9,1.9-4.6s0-3.3-0.6-5
	c-1.3-3.5-3.9-6-7.8-7.5s-7.9-1.4-12.1,0.1l-8.2,3c-0.8,0.3-1.1,0.7-0.9,1.3C128.1,56.9,128.2,57.1,128.3,57.2z M137,55.2
	c0.2-0.3,0.5-0.6,1.2-0.8c2.4-0.9,4.8-0.6,7.2,0.8c2.4,1.4,4.1,3.6,5.2,6.6c0.9,2.5,1,4.7,0.1,6.6c-0.8,1.9-2.4,3.3-4.8,4.2
	c-0.9,0.3-1.5,0.4-2,0.4c-0.4-0.1-0.7-0.2-0.9-0.4c-0.2-0.2-0.4-0.7-0.7-1.5L137,56.6C136.9,56,136.9,55.6,137,55.2z M182.6,49.6
	c0.9,0.3,2,0.5,3.2,0.7s2.5,0.3,3.6,0.4l3.3,0.2c2,0.1,3.5,0.4,4.5,1c1,0.5,1.6,1.3,1.8,2.3c0.3,1.2-0.1,2.3-1.1,3.3
	s-2.5,1.7-4.3,2.1c-2.2,0.4-4.3,0.5-6.5,0c-0.9-0.2-1.9-0.5-3-0.9c-1.2-0.4-1.9-0.8-2.4-1.1c-0.4-0.3-0.7-0.5-0.9-0.5
	s-0.4-0.1-0.5,0c-0.3,0.1-0.5,0.2-0.6,0.4s-0.2,0.4-0.1,0.7c0,0.2,0.2,0.4,0.4,0.7l4.3,4.5c0.3,0.3,0.5,0.5,0.6,0.5s0.3,0,0.5,0
	c0.4-0.1,0.7-0.4,0.9-0.9s0.4-0.8,0.8-0.9c0.2,0,0.4-0.1,0.6-0.1c0.2,0,0.5,0,0.9,0c1.6,0,3-0.1,4.1-0.2s2.2-0.2,3.2-0.4
	c3.1-0.6,5.5-1.9,7.2-3.8s2.3-3.9,1.8-6.3c-0.8-4.1-4.8-6.3-11.8-6.5h-3.3c-1.9-0.1-3.2-0.2-4-0.6c-0.8-0.3-1.3-0.8-1.4-1.6
	c-0.2-0.8,0.1-1.4,0.6-2c0.6-0.6,1.4-1,2.4-1.2c0.8-0.2,1.7-0.2,2.7-0.2c1,0.1,1.9,0.2,2.8,0.4c0.3,0,0.7,0.1,1.2,0.3s1,0.3,1.3,0.5
	l1.2,0.5c0.2,0.1,0.4,0.2,0.6,0.2c0.2,0.1,0.4,0.1,0.5,0.1c0.6-0.1,0.9-0.4,0.8-0.9c0-0.2-0.2-0.3-0.4-0.5l-4.2-3.6l-0.5-0.4
	c-0.2-0.1-0.4-0.1-0.6-0.1c-0.2,0-0.3,0.1-0.4,0.1c-0.1,0-0.2,0.2-0.4,0.5c-0.3,0.4-0.6,0.7-1.1,0.8h-0.8h-0.6c-0.8,0-1.5,0-2.3,0.1
	c-0.7,0.1-1.5,0.2-2.3,0.4c-2.3,0.5-4.1,1.4-5.3,2.8c-1.2,1.4-1.6,3-1.3,4.8C178.9,47.4,180.3,48.8,182.6,49.6z M209.9,35.4
	c0.7,0,1.2,0.2,1.5,0.7c0.1,0.3,0.2,0.6,0.3,1.1l0.1,0.7l1.7,14.6l0.1,0.7c0.1,0.6,0.1,1,0.1,1.2s0,0.4-0.1,0.6
	c-0.2,0.5-0.6,0.8-1.3,1s-1,0.5-0.9,1c0.1,0.6,0.5,0.9,1.4,0.8l8.8-1c0.8-0.1,1.2-0.4,1.2-1c-0.1-0.5-0.4-0.8-1.1-0.8
	c-0.7,0-1.2-0.2-1.4-0.7c-0.1-0.3-0.2-0.6-0.3-0.9c0-0.2-0.1-0.6-0.1-1l-0.2-1.9c-0.1-0.6,0.2-1,0.8-1l1.4-0.1
	c0.3,0,0.8-0.1,1.5-0.1s1.3-0.1,1.6-0.1c1.2-0.1,2.3-0.3,3.1-0.5c0.9-0.2,1.7-0.5,2.4-0.9c1.5-0.7,2.6-1.7,3.3-3s1-2.8,0.8-4.5
	c-0.4-3-1.9-5.1-4.6-6.6c-2.7-1.4-6.3-1.9-10.6-1.3l-9.4,1.1c-0.9,0.1-1.3,0.4-1.2,1C208.8,35.1,209.2,35.4,209.9,35.4z M218.3,35.4
	c0.3-0.3,0.9-0.5,1.7-0.6c2.1-0.2,3.9,0.2,5.4,1.3s2.4,2.7,2.7,4.7c0.2,1.7-0.2,3.1-1.1,4.2c-1,1.1-2.4,1.7-4.3,2
	c-2.3,0.3-3.5-0.2-3.6-1.4l-1-8.8C217.9,36.1,218,35.7,218.3,35.4z M240.7,32.2c0.5,0,0.8,0.2,1,0.6c0.2,0.4,0.3,1.1,0.4,2l0.9,15.4
	v0.7c0,0.7,0,1.2-0.2,1.5s-0.5,0.5-0.9,0.6s-0.7,0.2-0.9,0.3c-0.1,0.1-0.2,0.3-0.2,0.6c0,0.6,0.5,0.9,1.4,0.8l8.4-0.5
	c0.9-0.1,1.3-0.4,1.3-1c0-0.3-0.1-0.5-0.3-0.6s-0.5-0.2-1-0.2s-0.8-0.2-1-0.6c-0.2-0.4-0.3-1-0.4-2.1l-0.9-15.4l-0.1-1.2
	c-0.1-0.9,0.3-1.4,1-1.6l0.4-0.1c0.4-0.1,0.6-0.4,0.6-0.9c0-0.6-0.5-0.9-1.3-0.8l-8.2,0.5c-0.9,0.1-1.3,0.4-1.3,1
	c0,0.4,0.1,0.6,0.2,0.7C239.9,32.1,240.2,32.1,240.7,32.2z M259.2,49.3c0,1.1-0.1,1.8-0.3,2.1c-0.2,0.3-0.6,0.5-1.3,0.6
	s-1,0.4-1,0.9c0,0.6,0.4,0.9,1.3,0.9h8.8c0.9,0,1.3-0.3,1.3-0.9c0-0.5-0.3-0.8-0.8-0.9c-0.6-0.1-0.9-0.2-1.1-0.3s-0.3-0.3-0.4-0.5
	s-0.1-0.5-0.1-0.7v-1.2v-2.4c0-0.5,0.2-0.7,0.7-0.7h0.8l1.4,0.1l1.8-0.1l2.8,3.1c1,1.1,1.5,1.9,1.5,2.3c0,0.3-0.3,0.4-1,0.5
	s-0.9,0.4-1,0.9c0,0.6,0.4,0.9,1.3,0.9h10c0.8,0,1.3-0.3,1.3-0.9c0-0.3-0.1-0.5-0.2-0.7c-0.1-0.1-0.5-0.2-1-0.3s-1.1-0.3-1.7-0.8
	c-0.3-0.3-0.7-0.6-1-0.9s-0.6-0.6-0.9-1l-3.7-4c1.4-0.3,2.4-0.6,3-1s1.3-0.9,1.9-1.6c1.1-1.2,1.6-2.6,1.6-4.3c0-2.8-1.3-5-3.9-6.7
	s-6.2-2.5-10.7-2.5h-10.5c-0.9,0-1.3,0.3-1.3,0.9c0,0.5,0.3,0.8,1,0.9s1.1,0.3,1.3,0.6c0.2,0.3,0.3,1,0.2,2.1l-0.1,14.7L259.2,49.3z
	 M265.6,33.5c0-0.7,0.2-1.1,0.6-1.4c0.4-0.2,1.2-0.4,2.2-0.3c2.4,0,4.4,0.6,5.8,1.9c1.5,1.2,2.2,2.9,2.2,4.9c0,1.8-0.6,3.2-1.9,4.2
	s-3.1,1.4-5.6,1.4c-1.2,0-2.1-0.1-2.6-0.4c-0.5-0.3-0.8-0.7-0.8-1.4L265.6,33.5z M290.3,54.5l8.4,0.5c0.9,0.1,1.3-0.2,1.4-0.8
	c0-0.3,0-0.5-0.2-0.7c-0.1-0.1-0.4-0.2-0.9-0.3s-0.8-0.3-0.9-0.7s-0.2-1.1-0.1-2.1l1-15.4l0.1-1.2c0.1-0.9,0.4-1.4,1.2-1.5h0.4
	c0.4-0.1,0.7-0.3,0.7-0.8c0-0.6-0.4-0.9-1.2-1L292,30c-0.9-0.1-1.3,0.2-1.4,0.8c0,0.4,0,0.6,0.1,0.7s0.4,0.2,0.9,0.3s0.8,0.3,1,0.7
	c0.1,0.4,0.2,1.1,0.1,2.1l-1,15.4v0.7c0,0.7-0.2,1.2-0.4,1.4c-0.2,0.3-0.5,0.4-1,0.4c-0.4,0-0.8,0.1-0.9,0.2
	c-0.2,0.1-0.3,0.3-0.3,0.6C289,54.1,289.4,54.4,290.3,54.5z M306.8,37.3c0.3,0,0.7-0.1,1.1-0.4l1.3-1.1c0.6-0.5,1.3-0.9,2-1.2
	s1.3-0.5,1.9-0.5c0.4-0.1,1,0,1.7,0l1.5,0.2c0.4,0.1,0.7,0.2,0.9,0.3c0.1,0.2,0.2,0.5,0.1,0.9l-2,15.7l-0.1,0.8
	c-0.1,1.1-0.3,1.8-0.5,2.1s-0.7,0.5-1.3,0.5s-1,0.2-1.1,0.7c-0.1,0.6,0.3,1,1.2,1.1l8.6,1.1c0.9,0.1,1.3-0.1,1.4-0.7
	c0-0.3,0-0.6-0.1-0.7c-0.1-0.1-0.4-0.3-1-0.4c-0.5-0.1-0.8-0.4-0.9-0.9c-0.1-0.3-0.1-0.6-0.1-0.9c0-0.3,0.1-0.6,0.1-1l2.1-16.5
	c0.1-0.7,0.5-0.9,1.3-0.8l1.7,0.2c1.3,0.2,2.5,0.7,3.5,1.5c0.4,0.4,0.8,0.9,1.3,1.5l0.8,1.2c0.3,0.5,0.7,0.7,1,0.8
	c0.3,0,0.5,0,0.7-0.1s0.3-0.3,0.3-0.5s0-0.4-0.1-0.6l-2-5.4c-0.1-0.4-0.3-0.7-0.4-0.8s-0.3-0.2-0.5-0.2c-0.3,0-0.6,0.1-0.9,0.3
	s-0.6,0.3-0.7,0.3s-0.4,0-0.8-0.1l-15.6-2c-0.7-0.1-1.1-0.3-1.3-0.5l-0.4-0.4c-0.1-0.1-0.3-0.2-0.6-0.3c-0.4-0.1-0.8,0.1-1.1,0.5
	l-3.6,4.8c-0.2,0.3-0.3,0.5-0.3,0.6c0,0.2,0,0.4,0.2,0.6C306.4,37.2,306.6,37.3,306.8,37.3z M338.3,60.1c0.1,0.4,0.3,0.6,0.3,0.7
	c0.1,0.1,0.2,0.2,0.4,0.2c0.4,0.1,0.8-0.1,1.2-0.5c0.4-0.4,0.7-0.6,1.1-0.5c0.2,0,0.4,0.1,0.6,0.2c0.2,0.1,0.5,0.2,0.8,0.3
	c1.5,0.6,2.8,1.1,3.8,1.5c1.1,0.4,2.1,0.7,3.1,0.9c3.1,0.7,5.8,0.5,8.1-0.5c2.3-1,3.7-2.7,4.2-5c0.9-4.1-1.8-7.7-8.1-10.7l-3-1.4
	c-1.7-0.8-2.8-1.5-3.4-2.1s-0.8-1.3-0.7-2s0.6-1.3,1.4-1.6s1.7-0.4,2.7-0.1c0.8,0.2,1.7,0.5,2.5,0.9c0.9,0.4,1.7,1,2.4,1.5
	c0.2,0.1,0.6,0.4,1,0.8c0.4,0.4,0.7,0.7,1,0.9l0.9,0.9c0.1,0.1,0.3,0.3,0.4,0.4c0.2,0.2,0.3,0.2,0.5,0.3c0.6,0.1,1,0,1.1-0.5
	c0-0.2,0-0.4-0.2-0.7l-2.4-5l-0.3-0.6c-0.1-0.2-0.3-0.3-0.5-0.3s-0.3-0.1-0.4,0c-0.1,0-0.2,0.1-0.5,0.4c-0.4,0.3-0.8,0.4-1.3,0.3
	l-0.7-0.3l-0.6-0.3c-0.7-0.3-1.4-0.6-2.1-0.8s-1.5-0.4-2.3-0.6c-2.3-0.5-4.3-0.4-6,0.4c-1.7,0.8-2.7,2.1-3.1,3.9
	c-0.5,2.1,0.2,4,2,5.6c0.7,0.6,1.6,1.3,2.7,2s2.1,1.3,3.2,1.9l3,1.5c1.8,0.9,3,1.8,3.8,2.7c0.7,0.9,1,1.8,0.7,2.9
	c-0.3,1.2-1.1,2.1-2.4,2.6s-2.9,0.6-4.8,0.1c-2.2-0.5-4.2-1.3-6-2.6c-0.7-0.5-1.5-1.2-2.4-2s-1.5-1.5-1.7-1.9s-0.5-0.7-0.6-0.8
	s-0.3-0.2-0.5-0.3c-0.3-0.1-0.5,0-0.7,0.1s-0.3,0.3-0.4,0.5c0,0.2,0,0.5,0.1,0.8L338.3,60.1z M379.9,70.2l5.1,2
	c0.8,0.3,1.3,0.2,1.5-0.3s0-0.9-0.7-1.3c-0.8-0.3-1-0.8-0.7-1.5l0.2-0.3l0.7-1l6-9.1c0.1-0.2,0.2-0.2,0.4-0.2c0,0,0,0.1,0.1,0.1
	c0,0.1,0.1,0.2,0.1,0.3l0.7,16.2c0,0.3,0.1,0.5,0.4,0.6c0.2,0.1,0.4,0,0.6-0.3l11.1-11.6c0,0,0.2-0.1,0.4-0.1
	c0.2,0.1,0.2,0.2,0.2,0.3l-1.8,10.9l-0.2,1.2l-0.1,0.4c-0.2,0.6-0.7,0.8-1.5,0.6c-0.7-0.2-1.2-0.1-1.4,0.4c-0.2,0.6,0.1,1,0.9,1.3
	l8.4,3.3c0.8,0.3,1.3,0.2,1.5-0.4c0.2-0.5,0.1-0.8-0.3-1.1l-0.4-0.2c-0.4-0.2-0.6-0.6-0.7-1c-0.1-0.5-0.1-1.2,0-2.2l1.5-16l0.2-1.2
	c0-0.1,0.1-0.3,0.2-0.5c0.1-0.3,0.3-0.5,0.4-0.6c0.2-0.1,0.5-0.1,1,0.1c0.5,0.1,0.9,0,1.1-0.5c0.2-0.6-0.1-1-0.9-1.3l-6.7-2.6
	c-0.8-0.3-1.3-0.2-1.5,0.3s-0.1,0.9,0.4,1.1c0.5,0.2,0.8,0.5,1,0.7s0.2,0.4,0.1,0.7l-0.3,0.6l-0.9,0.9l-6.9,7.2c0,0-0.1,0.1-0.3,0.1
	l-0.1-0.1c0-0.1-0.1-0.1-0.1-0.2l-0.3-10v-1.3c0-0.2,0-0.4,0.1-0.7s0.2-0.4,0.4-0.5c0.2-0.1,0.5,0,1.1,0.1s0.9,0,1.1-0.5
	c0.2-0.6-0.1-1-0.9-1.3l-6.8-2.7c-0.8-0.3-1.3-0.2-1.5,0.4c-0.2,0.5,0,0.9,0.5,1.2s0.8,0.5,0.9,0.7s0.1,0.5-0.1,0.8
	c-0.1,0.2-0.1,0.3-0.2,0.5c-0.1,0.1-0.3,0.5-0.6,0.9l-9.2,13c-0.6,0.8-1,1.3-1.4,1.6c-0.4,0.3-0.8,0.3-1.2,0.3l-0.4-0.1
	c-0.4-0.1-0.7,0.1-0.9,0.5C378.8,69.5,379.1,69.9,379.9,70.2z M413.9,82.8c-0.3,0.5-0.1,1,0.6,1.4l5.5,3.2c0.7,0.4,1.3,0.4,1.5-0.1
	c0.3-0.5,0.2-0.9-0.3-1.2s-0.7-0.6-0.8-0.8c-0.1-0.2,0-0.4,0.1-0.7c0.2-0.3,0.6-0.7,1.4-1.3l1.1-0.8l0.8-0.5c0.1,0,0.4,0.1,1,0.5
	l7,4c0.6,0.3,0.9,0.6,0.9,0.7s0,0.2,0,0.2c0,0.3-0.1,0.6-0.1,0.9l-0.1,1.2c-0.1,0.7-0.2,1.3-0.5,1.8s-0.8,0.5-1.5,0.2
	s-1.2-0.2-1.5,0.2c-0.3,0.5-0.1,1,0.7,1.4l8.4,4.9c0.8,0.4,1.3,0.4,1.6-0.1c0.3-0.5,0.1-0.9-0.5-1.4c-0.6-0.4-0.9-1-1-1.6
	c-0.1-0.4-0.1-0.7,0-1.1c0-0.1,0.1-0.5,0.1-1l2.8-20.6c0.1-0.4,0.1-0.6,0-0.7c0-0.1-0.2-0.2-0.4-0.4l-3.8-2.2
	c-0.2-0.1-0.4-0.2-0.5-0.1c-0.1,0-0.3,0.1-0.6,0.4l-17,12.4c-0.5,0.3-0.8,0.5-0.9,0.6c-0.3,0.2-0.6,0.3-0.9,0.5
	c-0.6,0.2-1.2,0.2-1.8-0.1C414.6,82.3,414.2,82.4,413.9,82.8z M426.9,79.9l0.2-0.3l6.9-5.1c0.3-0.2,0.4-0.2,0.5-0.2
	c0.1,0.1,0.1,0.1,0.1,0.2s0,0.2,0,0.4l-1.1,8.4l-0.1,0.4c-0.2,0.3-0.5,0.3-0.9,0.1l-5.2-3C426.8,80.5,426.7,80.2,426.9,79.9z
	 M462.1,114.2c0-0.4,0-0.8,0.1-1.1c0.1-0.4,0.2-0.7,0.3-1l3.5-14.9l2.7-0.1c0.8,0,1.4-0.1,1.8-0.1s0.7,0,1.1,0.1
	c0.9,0.1,1.6,0.4,2.2,0.8s1.1,0.4,1.4,0.1c0.4-0.5,0.3-1-0.4-1.6l-5.2-4.4c-0.7-0.6-1.2-0.6-1.6-0.2s-0.3,0.9,0.1,1.3
	s0.6,0.8,0.4,0.9c-0.2,0.3-0.7,0.4-1.3,0.3l-1.6,0.1l-8.9,0.5l4-4.7l0.3-0.3c0.3-0.3,0.5-0.5,0.6-0.7c0.1-0.1,0.3-0.2,0.4-0.3
	c0.4-0.3,0.9-0.3,1.3,0s0.7,0.4,0.9,0.4c0.2,0,0.3-0.1,0.5-0.3c0.4-0.5,0.3-1-0.4-1.6L458,82c-0.7-0.6-1.2-0.6-1.6-0.2
	c-0.3,0.4-0.3,0.8,0.1,1.3s0.6,0.9,0.5,1.2c-0.1,0.3-0.5,0.9-1.2,1.8l-9.7,11.4l-0.3,0.4l-0.2,0.2c-0.6,0.7-1.1,1.1-1.4,1.3
	c-0.3,0.1-0.7,0.1-1.1-0.2c-0.4-0.3-0.7-0.4-0.9-0.4c-0.2,0-0.4,0.1-0.6,0.3c-0.4,0.5-0.3,1,0.4,1.5l6.4,5.4
	c0.7,0.6,1.2,0.6,1.6,0.2c0.2-0.2,0.3-0.5,0.3-0.6c0-0.2-0.2-0.5-0.6-0.9s-0.5-0.8-0.3-1.2s0.3-0.7,0.5-0.9s0.4-0.5,0.7-0.8l3.7-4.3
	l5.5-0.3l-2.5,10.4c-0.2,0.8-0.3,1.3-0.4,1.5s-0.2,0.4-0.3,0.6c-0.2,0.3-0.6,0.3-1,0s-0.7-0.4-0.9-0.4c-0.2,0-0.4,0.1-0.6,0.3
	c-0.4,0.5-0.3,1,0.4,1.5l6.8,5.8c0.6,0.6,1.2,0.6,1.5,0.2c0.2-0.3,0.3-0.5,0.3-0.6s-0.2-0.4-0.6-0.8
	C462.2,115.3,462.1,114.8,462.1,114.2z M495.6,121.8c-0.1-0.2-0.3-0.4-0.5-0.4l-0.5-0.2c-0.3-0.2-0.7-0.5-1-1l-8.7-13.3
	c-0.5-0.7-0.9-0.9-1.4-0.6s-0.5,0.7-0.3,1.3c0.3,0.5,0.4,0.9,0.3,1.2c0,0.1-0.1,0.3-0.3,0.5c-0.1,0.2-0.3,0.3-0.4,0.4
	s-0.4,0.3-0.7,0.5l-0.3,0.2l-12.2,8l-0.7,0.5c-0.9,0.6-1.5,0.9-1.9,0.9s-0.7-0.2-1.1-0.6s-0.6-0.6-0.8-0.7s-0.4,0-0.6,0.2
	c-0.5,0.3-0.5,0.9-0.1,1.6l9.8,15l0.6,0.9c0,0.1,0,0.4,0,0.7c-0.1,0.4-0.1,0.7-0.1,0.8s0.1,0.3,0.2,0.5s0.3,0.3,0.4,0.4
	c0.1,0.1,0.4,0.1,0.7,0.1l6-0.2c0.4,0,0.6-0.1,0.7-0.2c0.4-0.3,0.5-0.7,0.1-1.2c-0.1-0.2-0.5-0.4-1.1-0.4c-0.7-0.1-1.5-0.2-2.3-0.5
	s-1.4-0.7-2.1-1.1c-0.5-0.4-1-0.9-1.7-1.7s-1.2-1.5-1.8-2.3l-2.3-3.5c-0.6-0.9-0.8-1.5-0.8-1.9c0.1-0.4,0.5-0.9,1.3-1.4l6.1-4
	c0.6-0.4,1.2-0.3,1.6,0.4l1.2,1.9c1,1.5,1.3,3.2,1,5c-0.1,0.7-0.1,1.1,0,1.3c0.3,0.5,0.7,0.6,1.2,0.3c0.2-0.1,0.3-0.3,0.5-0.6
	l1.9-4.6c0.2-0.5,0.2-1,0.1-1.2s-0.3-0.3-0.4-0.4c-0.2-0.1-0.5-0.1-0.8,0c-0.4,0-0.6,0-0.8-0.1c-0.2-0.1-0.4-0.4-0.7-0.8l-1.3-2
	c-0.5-0.7-0.4-1.2,0.3-1.7l3-2c0.9-0.6,1.5-0.8,1.8-0.7c0.4,0.1,0.9,0.6,1.5,1.5l1.6,2.4c1,1.5,1.6,2.9,1.9,4.1
	c0.3,1.3,0.3,2.5,0,3.8c-0.1,0.6-0.1,1,0,1.2c0.1,0.2,0.3,0.3,0.5,0.4s0.4,0.1,0.6-0.1c0.1-0.1,0.2-0.3,0.4-0.6l1.9-4.6
	c0.2-0.4,0.3-0.7,0.3-0.8C495.8,122.2,495.7,122,495.6,121.8z M305.1,235.5c12.1-2.2,17.5-5.4,17.5-10.3v-80.8
	c0-4.9-5.4-8.1-17.5-10.3c-9.4-1.7-21.9-2.7-35.1-2.7s-25.7,0.9-35.1,2.7c-12.1,2.2-17.5,5.4-17.5,10.3l0,0v35.9l0,0v44.9
	c0,4.9,5.4,8,17.5,10.3c9.4,1.7,21.9,2.7,35.1,2.7C283.2,238.2,295.7,237.2,305.1,235.5z M270,139.5c22.8,0,37.5,2.8,42.9,5
	c-5.4,2.1-20.1,5-42.9,5s-37.5-2.8-42.9-5C232.5,142.3,247.2,139.5,270,139.5z M225.3,152.3c2.5,0.9,5.7,1.7,9.5,2.4
	c9.4,1.7,21.9,2.7,35.1,2.7c13.2,0,25.7-1,35.1-2.7c3.8-0.7,7-1.5,9.5-2.4v20.2h-0.2c-0.4-0.2-0.9-0.3-1.3-0.4c-0.1,0-0.2,0-0.2-0.1
	c-0.3-0.1-0.6-0.2-0.9-0.2c-0.4-0.1-0.8-0.2-1.2-0.3c-0.1,0-0.3-0.1-0.4-0.1c-0.6-0.1-1.1-0.3-1.8-0.4c-0.1,0-0.1,0-0.2,0
	c-0.7-0.1-1.4-0.3-2.1-0.4c0,0,0,0-0.1,0c-0.4-0.1-0.8-0.2-1.2-0.2c-7.8-1.4-17.6-2.3-28.2-2.6c-1,0-2-0.1-3-0.1c-0.2,0-0.5,0-0.7,0
	c-1,0-2.1,0-3.2,0s-2.1,0-3.1,0c-0.2,0-0.5,0-0.7,0c-11.8,0.2-22.8,1.1-31.3,2.7c-0.4,0.1-0.8,0.2-1.2,0.2h-0.1
	c-0.7,0.1-1.4,0.3-2.1,0.4c-0.1,0-0.2,0-0.2,0.1c-0.6,0.1-1.2,0.3-1.7,0.4c-0.1,0-0.3,0.1-0.5,0.1c-0.4,0.1-0.8,0.2-1.1,0.3
	s-0.6,0.2-0.9,0.3c-0.1,0-0.1,0-0.2,0.1c-0.5,0.2-0.9,0.3-1.4,0.5l-0.2,0.1v-20.6H225.3z M225.4,184c0.3-0.8,1.1-1.2,1.9-0.9
	c8.3,2.9,24.6,4.7,42.7,4.7s34.4-1.8,42.7-4.7c0.8-0.3,1.6,0.1,1.9,0.9c0.3,0.8-0.1,1.6-0.9,1.9c-8.6,3-25.3,4.9-43.7,4.9
	c-18.4,0-35.1-1.9-43.7-4.9C225.5,185.6,225.1,184.8,225.4,184z M225.3,224.3v-9.2c0,0,0,0,0.1,0c0,0,0.1,0,0.1,0.1
	c0.4,0.1,0.8,0.3,1.3,0.4c0.1,0,0.2,0.1,0.3,0.1c0.5,0.1,1,0.3,1.5,0.4c0.1,0,0.2,0.1,0.3,0.1c0.5,0.1,1,0.2,1.5,0.4
	c0.1,0,0.2,0,0.2,0.1c0.6,0.1,1.2,0.3,1.8,0.4c0.1,0,0.3,0.1,0.4,0.1c0.6,0.1,1.3,0.3,2,0.4c9.4,1.7,21.9,2.7,35.1,2.7
	s25.7-1,35.1-2.7c0.7-0.1,1.3-0.2,1.9-0.4c0.1,0,0.3-0.1,0.4-0.1c0.6-0.1,1.2-0.3,1.8-0.4c0.1,0,0.2,0,0.3-0.1
	c0.5-0.1,1-0.2,1.5-0.4c0.1,0,0.2-0.1,0.3-0.1c0.5-0.1,1-0.3,1.5-0.4c0.1,0,0.2-0.1,0.3-0.1c0.5-0.1,0.9-0.3,1.3-0.4
	c0,0,0.1,0,0.1-0.1c0,0,0,0,0.1,0v9.2c-3.1,2.2-18.5,5.9-44.7,5.9C243.9,230.2,228.4,226.5,225.3,224.3z M116.1,111.5L116.1,111.5
	l-11.3,34l0,0l-14.1,42.6c-1.5,4.6,2.6,9.3,13.4,15.3c8.4,4.6,19.9,9.5,32.5,13.6c12.6,4.2,24.7,7.2,34.2,8.5
	c12.2,1.7,18.3,0.4,19.9-4.2l25.4-76.6c1.5-4.6-2.6-9.3-13.4-15.3c-8.4-4.6-19.9-9.5-32.5-13.6c-12.6-4.2-24.7-7.2-34.2-8.5
	C123.8,105.5,117.6,106.8,116.1,111.5z M183.3,217.9c-3.6,1.1-19.4-0.3-44.2-8.5s-38.3-16.6-40.5-19.6l2.9-8.7c0,0,0,0,0.1,0
	l0.1,0.1c0.3,0.3,0.7,0.5,1.1,0.8c0.1,0.1,0.2,0.1,0.3,0.2c0.4,0.3,0.8,0.6,1.3,0.9c0.1,0.1,0.2,0.1,0.3,0.2
	c0.4,0.3,0.9,0.5,1.3,0.8c0.1,0,0.1,0.1,0.2,0.1c0.5,0.3,1,0.6,1.6,0.9c0.1,0.1,0.2,0.1,0.4,0.2c0.6,0.3,1.1,0.7,1.7,1
	c8.4,4.6,19.9,9.5,32.5,13.6c12.6,4.2,24.7,7.2,34.2,8.5c0.7,0.1,1.3,0.2,2,0.3c0.1,0,0.3,0,0.4,0.1c0.6,0.1,1.2,0.1,1.8,0.2
	c0.1,0,0.2,0,0.3,0c0.5,0,1,0.1,1.5,0.1c0.1,0,0.2,0,0.3,0c0.5,0,1.1,0.1,1.6,0.1c0.1,0,0.2,0,0.3,0c0.5,0,0.9,0,1.4,0h0.1
	c0,0,0,0,0.1,0L183.3,217.9z M194.5,181.1c-9.1,0.2-25.6-3.3-43-9.1s-32.7-12.8-39.9-18.4c-0.7-0.5-0.8-1.4-0.3-2.1
	c0.5-0.7,1.4-0.8,2.1-0.3c6.9,5.4,21.9,12.3,39,17.9s33.2,9.1,42,8.9c0.8,0,1.5,0.6,1.5,1.5C195.9,180.4,195.3,181.1,194.5,181.1z
	 M199.6,168.7l-0.1-0.1c-0.4-0.3-0.7-0.5-1.1-0.8c-0.1-0.1-0.1-0.1-0.2-0.2c-0.2-0.2-0.5-0.3-0.7-0.5c-0.3-0.2-0.6-0.4-1-0.7
	c-0.1-0.1-0.2-0.2-0.4-0.2c-0.5-0.3-1-0.6-1.5-1c-0.1,0-0.1-0.1-0.2-0.1c-0.6-0.4-1.2-0.7-1.9-1.1c0,0,0,0-0.1,0
	c-0.4-0.2-0.7-0.4-1.1-0.6c-6.9-3.8-16-7.8-26-11.4c-0.9-0.3-1.9-0.7-2.9-1c-0.2-0.1-0.4-0.2-0.7-0.2c-1-0.3-2-0.7-3-1s-2-0.7-3-1
	c-0.2-0.1-0.4-0.1-0.7-0.2c-11.3-3.6-22-6.1-30.5-7.3c-0.4-0.1-0.8-0.1-1.3-0.2h-0.1c-0.7-0.1-1.4-0.2-2.1-0.2c-0.1,0-0.2,0-0.2,0
	c-0.6-0.1-1.2-0.1-1.8-0.1c-0.2,0-0.3,0-0.5,0c-0.4,0-0.8,0-1.2-0.1c-0.3,0-0.6,0-0.9,0c-0.1,0-0.1,0-0.2,0c-0.5,0-1,0-1.4,0h-0.2
	l6.4-19.2c2.1,1.7,4.9,3.4,8.3,5.3c8.4,4.6,19.9,9.5,32.5,13.6c12.6,4.2,24.7,7.2,34.2,8.5c3.9,0.5,7.1,0.8,9.8,0.7L199.6,168.7z
	 M206.8,141.6c-5.8,0.3-20.6-1.6-42.3-8.8c-21.6-7.2-34.7-14.5-39.1-18.2c5.8-0.3,20.6,1.6,42.3,8.8
	C189.3,130.5,202.3,137.8,206.8,141.6z M323.9,144.6l25.4,76.6c1.5,4.6,7.7,5.9,19.9,4.2c9.5-1.3,21.6-4.3,34.2-8.5
	s24.1-9,32.5-13.6c10.8-5.9,14.9-10.6,13.4-15.3l-14.1-42.6l0,0l-11.3-34l0,0c-1.5-4.6-7.7-5.9-19.9-4.2c-9.5,1.3-21.6,4.3-34.2,8.5
	s-24.1,9-32.5,13.6C326.5,135.3,322.4,140,323.9,144.6z M432,185.4c0.1-0.1,0.2-0.1,0.4-0.2c0.5-0.3,1.1-0.6,1.6-0.9
	c0.1,0,0.1-0.1,0.2-0.1c0.5-0.3,0.9-0.6,1.3-0.8c0.1-0.1,0.2-0.1,0.3-0.2c0.4-0.3,0.9-0.6,1.3-0.9c0.1-0.1,0.2-0.1,0.3-0.2
	c0.4-0.3,0.7-0.5,1.1-0.8l0.1-0.1c0,0,0,0,0.1,0l2.9,8.7c-2.2,3-15.7,11.4-40.5,19.6c-24.8,8.2-40.6,9.6-44.2,8.5l-2.9-8.7
	c0,0,0,0,0.1,0h0.1c0.4,0,0.9,0,1.4,0c0.1,0,0.2,0,0.3,0c0.5,0,1,0,1.6-0.1c0.1,0,0.2,0,0.3,0c0.5,0,1-0.1,1.5-0.1
	c0.1,0,0.2,0,0.3,0c0.6-0.1,1.2-0.1,1.8-0.2c0.1,0,0.3,0,0.4-0.1c0.6-0.1,1.3-0.2,2-0.3c9.5-1.3,21.6-4.3,34.2-8.5s24.1-9,32.5-13.6
	C430.9,186,431.4,185.7,432,185.4z M428.7,151.5c0.5,0.7,0.4,1.6-0.3,2.1c-7.2,5.6-22.5,12.6-39.9,18.4c-17.4,5.8-33.9,9.3-43,9.1
	c-0.8,0-1.5-0.7-1.5-1.5s0.7-1.5,1.5-1.5c8.8,0.2,24.9-3.3,42-8.9s32.1-12.6,39-17.9C427.2,150.8,428.2,150.9,428.7,151.5z
	 M425.1,140.6h-0.2c-0.5,0-0.9,0-1.4,0c-0.1,0-0.1,0-0.2,0c-0.3,0-0.6,0-0.9,0c-0.4,0-0.8,0-1.2,0.1c-0.2,0-0.3,0-0.5,0
	c-0.6,0-1.2,0.1-1.8,0.1c-0.1,0-0.2,0-0.2,0c-0.7,0.1-1.4,0.2-2.1,0.2h-0.1c-0.4,0.1-0.8,0.1-1.3,0.2c-8.6,1.2-19.3,3.8-30.5,7.3
	c-0.2,0.1-0.4,0.1-0.7,0.2c-1,0.3-2,0.6-3,1c-1,0.3-2,0.7-3,1c-0.2,0.1-0.4,0.2-0.7,0.2c-1,0.3-1.9,0.7-2.9,1
	c-10,3.6-19.1,7.6-26,11.4c-0.4,0.2-0.7,0.4-1.1,0.6c0,0,0,0-0.1,0c-0.6,0.4-1.3,0.7-1.9,1.1c-0.1,0-0.1,0.1-0.2,0.1
	c-0.5,0.3-1,0.6-1.5,1c-0.1,0.1-0.2,0.2-0.4,0.2c-0.3,0.2-0.7,0.4-1,0.7c-0.3,0.2-0.5,0.3-0.7,0.5c-0.1,0.1-0.1,0.1-0.2,0.2
	c-0.4,0.3-0.8,0.5-1.1,0.8l-0.1,0.1l-6.4-19.1c2.7,0.1,5.9-0.2,9.8-0.7c9.5-1.3,21.6-4.3,34.2-8.5s24.1-9,32.5-13.6
	c3.4-1.9,6.2-3.6,8.3-5.3L425.1,140.6z M372.3,123.3c21.6-7.2,36.5-9.1,42.3-8.8c-4.5,3.7-17.5,11-39.1,18.2s-36.5,9.1-42.3,8.8
	C337.7,137.8,350.7,130.5,372.3,123.3z"/>
</svg>
