<?xml version="1.0" encoding="utf-8"?>
<!-- Generator: Adobe Illustrator 23.0.4, SVG Export Plug-In . SVG Version: 6.00 Build 0)  -->
<svg version="1.1" id="Layer_1" xmlns="http://www.w3.org/2000/svg" xmlns:xlink="http://www.w3.org/1999/xlink" x="0px" y="0px"
	 viewBox="0 0 500 303.92" style="enable-background:new 0 0 500 303.92;" xml:space="preserve">
<style type="text/css">
	.st0{fill:#EAE5D3;}
</style>
<g>
	<g>
		<path class="st0" d="M95.94,215.55c0.24-0.07,0.48-0.01,0.72,0.15c0.28,0.2,0.4,0.47,0.37,0.84l-1.38,6.02l-0.09,0.13
			c-0.32,0.47-0.73,0.53-1.21,0.2c-0.22-0.16-0.38-0.45-0.48-0.89c-0.09-0.44-0.17-1.19-0.23-2.25c-0.06-1.06-0.45-2.17-1.17-3.34
			c-0.72-1.17-1.62-2.13-2.72-2.9c-1.89-1.32-3.97-1.66-6.23-1.03c-2.26,0.63-4.2,2.11-5.81,4.43c-1.66,2.38-2.32,4.77-1.97,7.14
			c0.35,2.38,1.65,4.35,3.89,5.91c0.96,0.67,1.72,1.01,2.28,1.03c0.55,0.02,1.05-0.29,1.48-0.91l1.68-2.41l0.61-0.88l0.3-0.6
			c0.15-0.46,0.05-0.85-0.31-1.18c-0.36-0.33-0.57-0.58-0.62-0.74c-0.05-0.16,0.01-0.37,0.19-0.63c0.3-0.43,0.79-0.42,1.45,0.05
			l6.17,4.3c0.65,0.45,0.81,0.91,0.48,1.38c-0.23,0.33-0.54,0.42-0.93,0.28l-0.34-0.16c-0.48-0.18-0.83-0.17-1.06,0.04
			c-0.22,0.2-0.41,0.39-0.56,0.57c-0.15,0.18-0.37,0.47-0.66,0.89l-1.63,2.34c-0.56,0.8-0.87,1.36-0.94,1.7s0.07,0.68,0.41,1.02
			c0.34,0.29,0.54,0.52,0.58,0.68s-0.03,0.37-0.21,0.63c-0.31,0.45-0.8,0.44-1.47-0.02l-9-6.27c-3.67-2.56-5.95-5.36-6.85-8.4
			s-0.34-6.03,1.69-8.93c1.98-2.84,4.64-4.48,7.97-4.9c3.33-0.43,6.58,0.46,9.74,2.66c1.26,0.88,2.33,1.86,3.21,2.93
			c0.38,0.48,0.66,0.8,0.83,0.98c0.16,0.18,0.3,0.31,0.41,0.38c0.22,0.16,0.46,0.18,0.7,0.06L95.94,215.55z"/>
		<path class="st0" d="M108.88,240.9l-1.52-0.59l-1.11-0.67l-0.64-0.31c-0.37-0.18-0.64-0.07-0.82,0.31l-0.95,2l-0.48,1
			c-0.1,0.21-0.16,0.43-0.16,0.66c-0.01,0.23,0.03,0.44,0.12,0.62c0.09,0.18,0.35,0.41,0.79,0.69c0.44,0.28,0.56,0.64,0.35,1.08
			c-0.24,0.5-0.72,0.57-1.45,0.22l-7.33-3.5c-0.71-0.34-0.95-0.77-0.7-1.28c0.2-0.42,0.6-0.53,1.19-0.33
			c0.59,0.2,1.03,0.19,1.32-0.02c0.29-0.21,0.65-0.77,1.08-1.66l0.3-0.63l5.88-12.31c0.43-0.9,0.63-1.52,0.62-1.86
			c-0.01-0.34-0.29-0.69-0.82-1.04c-0.53-0.35-0.69-0.74-0.48-1.18c0.24-0.5,0.72-0.57,1.46-0.22l8.81,4.21
			c3.73,1.78,6.38,3.9,7.94,6.36s1.78,4.85,0.66,7.2c-0.66,1.39-1.67,2.37-3.02,2.94c-0.82,0.36-1.58,0.55-2.26,0.57
			c-0.69,0.02-1.66-0.1-2.93-0.38l1.5,4.78c0.13,0.41,0.26,0.81,0.4,1.21c0.14,0.39,0.29,0.77,0.47,1.14
			c0.32,0.64,0.68,1.1,1.09,1.36c0.41,0.27,0.65,0.48,0.71,0.64c0.06,0.16,0.03,0.37-0.1,0.64c-0.24,0.49-0.71,0.57-1.42,0.23
			l-8.34-3.98c-0.75-0.36-1.01-0.8-0.76-1.32c0.2-0.42,0.58-0.54,1.14-0.35c0.56,0.19,0.89,0.18,0.99-0.04
			c0.15-0.31,0.02-1.14-0.38-2.51L108.88,240.9z M113.27,228.01c-0.92-0.44-1.59-0.64-2.02-0.6c-0.43,0.04-0.79,0.35-1.06,0.92
			l-3.52,7.36c-0.26,0.53-0.22,1.02,0.11,1.46s1.01,0.9,2.05,1.4c2.06,0.98,3.81,1.33,5.25,1.03c1.44-0.3,2.53-1.21,3.26-2.74
			c0.8-1.68,0.84-3.33,0.09-4.95C116.69,230.29,115.3,228.99,113.27,228.01z"/>
		<path class="st0" d="M128,251.47l4.36-12.83l0.12-0.36c0.12-0.36,0.2-0.62,0.23-0.79c0.03-0.17,0.05-0.35,0.05-0.55
			c0-0.2-0.03-0.37-0.08-0.5c-0.11-0.24-0.42-0.48-0.92-0.71c-0.5-0.24-0.68-0.6-0.51-1.08c0.17-0.5,0.63-0.62,1.38-0.37l13.98,4.75
			c0.51,0.18,0.94,0.23,1.27,0.15l0.48-0.16c0.16-0.06,0.36-0.05,0.6,0.03c0.24,0.08,0.38,0.17,0.45,0.26
			c0.06,0.09,0.14,0.35,0.25,0.75l1.26,4.49c0.06,0.37,0.08,0.61,0.05,0.71c-0.06,0.18-0.19,0.3-0.4,0.38
			c-0.2,0.07-0.41,0.07-0.63,0c-0.21-0.07-0.45-0.36-0.7-0.87c-0.51-1.09-1.23-2.02-2.16-2.81c-0.93-0.78-2.17-1.44-3.73-1.97
			l-2.5-0.85c-0.96-0.33-1.61-0.42-1.93-0.27c-0.32,0.15-0.64,0.67-0.95,1.57l-1.07,3.15c-0.22,0.66,0.03,1.11,0.75,1.36l2.08,0.71
			c0.45,0.15,0.76,0.22,0.93,0.2c0.17-0.02,0.39-0.14,0.65-0.38c0.26-0.23,0.47-0.38,0.63-0.44c0.16-0.06,0.34-0.05,0.53,0.01
			c0.28,0.09,0.5,0.4,0.65,0.92l1.27,4.48c0.06,0.31,0.07,0.54,0.01,0.7c-0.16,0.48-0.51,0.63-1.05,0.45
			c-0.23-0.08-0.5-0.39-0.79-0.94c-0.82-1.5-2.03-2.53-3.61-3.06l-1.99-0.68c-0.73-0.25-1.2-0.04-1.43,0.62l-2.19,6.43
			c-0.29,0.86-0.35,1.47-0.17,1.81c0.18,0.34,0.73,0.67,1.65,0.98l3.65,1.24c0.84,0.28,1.71,0.51,2.63,0.69
			c0.92,0.18,1.65,0.27,2.19,0.28c0.72-0.02,1.45-0.14,2.17-0.35c0.73-0.21,1.38-0.51,1.97-0.89c0.45-0.27,0.79-0.37,1.03-0.29
			c0.53,0.18,0.73,0.49,0.58,0.93c-0.05,0.14-0.2,0.32-0.44,0.55l-4.3,3.61c-0.26,0.2-0.46,0.32-0.59,0.37
			c-0.14,0.04-0.3,0.03-0.49-0.03c-0.24-0.08-0.39-0.16-0.45-0.24c-0.07-0.08-0.21-0.3-0.42-0.66c-0.16-0.24-0.29-0.41-0.4-0.49
			l-0.93-0.32l-15.74-5.35c-0.75-0.25-1.03-0.65-0.85-1.19c0.09-0.26,0.21-0.43,0.37-0.5c0.15-0.07,0.47-0.05,0.95,0.05
			c0.48,0.11,0.85,0.04,1.11-0.21c0.26-0.25,0.55-0.84,0.87-1.78L128,251.47z"/>
		<path class="st0" d="M152.48,264.78c-0.77-0.18-1.09-0.55-0.96-1.11c0.11-0.45,0.5-0.64,1.18-0.57c0.68,0.07,1.23-0.07,1.66-0.42
			c0.26-0.2,0.5-0.43,0.72-0.68c0.1-0.11,0.31-0.37,0.64-0.79l11.74-15.58c0.23-0.27,0.39-0.43,0.48-0.49
			c0.09-0.05,0.25-0.05,0.47,0l3.99,0.94c0.24,0.06,0.39,0.13,0.46,0.2c0.06,0.08,0.11,0.29,0.15,0.62l3.06,19.09
			c0.09,0.52,0.14,0.84,0.16,0.95c0.07,0.32,0.18,0.64,0.33,0.95c0.23,0.51,0.67,0.88,1.32,1.12c0.65,0.24,0.92,0.6,0.81,1.07
			c-0.13,0.54-0.58,0.71-1.38,0.52l-8.77-2.06c-0.79-0.19-1.12-0.55-1-1.08c0.12-0.49,0.53-0.69,1.25-0.6
			c0.72,0.09,1.14-0.11,1.25-0.6c0.11-0.47,0.09-1.04-0.05-1.7l-0.22-1.13c-0.07-0.28-0.14-0.56-0.18-0.86
			c-0.01-0.05-0.04-0.11-0.09-0.18c-0.05-0.08-0.38-0.19-1-0.33l-7.28-1.71c-0.59-0.14-0.93-0.19-1.01-0.14l-0.59,0.71l-0.73,1.03
			c-0.54,0.72-0.85,1.23-0.92,1.54c-0.06,0.25-0.02,0.45,0.1,0.61c0.13,0.16,0.44,0.33,0.94,0.5c0.5,0.17,0.7,0.5,0.58,1
			c-0.13,0.54-0.57,0.71-1.34,0.53L152.48,264.78z M162.24,257.57c-0.09,0.37,0.09,0.61,0.53,0.71l5.47,1.29
			c0.46,0.11,0.73,0.01,0.8-0.3l0-0.43l-1.31-7.78c-0.03-0.18-0.05-0.29-0.08-0.34c-0.02-0.05-0.07-0.09-0.13-0.13
			c-0.09-0.02-0.23,0.07-0.42,0.29l-4.77,6.39L162.24,257.57z"/>
		<path class="st0" d="M189.42,267.54l2.25-14.48c0.06-0.4,0.03-0.68-0.09-0.83c-0.12-0.16-0.38-0.27-0.78-0.33l-1.37-0.21
			c-0.62-0.1-1.14-0.12-1.56-0.08c-0.55,0-1.14,0.13-1.77,0.39s-1.26,0.61-1.87,1.05l-1.2,0.95c-0.39,0.31-0.74,0.43-1.05,0.38
			c-0.2-0.03-0.37-0.13-0.52-0.29c-0.15-0.16-0.2-0.35-0.17-0.56c0.03-0.17,0.13-0.36,0.3-0.59l3.45-4.33
			c0.3-0.34,0.64-0.48,1.02-0.42c0.29,0.05,0.48,0.13,0.58,0.25l0.32,0.37c0.19,0.24,0.59,0.41,1.19,0.5l14.39,2.24
			c0.4,0.06,0.65,0.09,0.74,0.08c0.09-0.01,0.3-0.11,0.63-0.3c0.33-0.19,0.61-0.27,0.86-0.23c0.22,0.03,0.38,0.1,0.47,0.2
			c0.09,0.09,0.19,0.34,0.32,0.73l1.72,5.05c0.06,0.18,0.08,0.35,0.06,0.52c-0.03,0.18-0.14,0.34-0.33,0.46
			c-0.19,0.12-0.41,0.16-0.65,0.12c-0.29-0.05-0.58-0.29-0.88-0.75l-0.71-1.14c-0.41-0.6-0.79-1.07-1.15-1.43
			c-0.91-0.78-1.97-1.27-3.2-1.46l-1.61-0.25c-0.74-0.11-1.15,0.13-1.24,0.74l-2.38,15.29c-0.06,0.38-0.11,0.69-0.15,0.94
			c-0.04,0.25-0.02,0.52,0.05,0.81c0.07,0.46,0.34,0.76,0.82,0.9c0.48,0.14,0.77,0.27,0.88,0.39s0.14,0.34,0.09,0.66
			c-0.09,0.54-0.53,0.75-1.33,0.63l-7.96-1.24c-0.8-0.13-1.16-0.47-1.07-1.03c0.07-0.46,0.42-0.68,1.04-0.66
			c0.63,0.02,1.04-0.11,1.24-0.38c0.2-0.28,0.38-0.92,0.54-1.92L189.42,267.54z"/>
		<path class="st0" d="M250.98,259.92c0.08,0.23,0.12,0.46,0.11,0.67c-0.01,0.46-0.3,0.69-0.87,0.67c-0.29-0.01-0.59-0.22-0.9-0.63
			c-2.19-3.06-4.83-4.64-7.92-4.74c-2.39-0.07-4.39,0.77-6.01,2.54c-1.61,1.76-2.46,4.06-2.54,6.88c-0.09,2.86,0.69,5.23,2.33,7.09
			c1.64,1.86,3.81,2.83,6.52,2.92c1.47,0.05,2.83-0.19,4.09-0.69c1.26-0.51,2.28-1.25,3.08-2.23c0.28-0.35,0.5-0.58,0.66-0.7
			c0.16-0.12,0.33-0.18,0.52-0.17c0.2,0.01,0.4,0.09,0.6,0.24c0.22,0.22,0.33,0.44,0.32,0.67c-0.01,0.38-0.32,0.92-0.93,1.61
			c-2.29,2.54-5.67,3.74-10.14,3.6c-3.99-0.12-7.23-1.3-9.72-3.55c-2.48-2.25-3.67-5.09-3.57-8.52c0.1-3.44,1.43-6.25,3.98-8.45
			c2.55-2.2,5.68-3.24,9.38-3.13c1.67,0.05,3.48,0.38,5.42,0.99l0.94,0.22c0.23,0.01,0.39-0.03,0.51-0.11
			c0.11-0.08,0.25-0.3,0.41-0.65c0.16-0.35,0.44-0.52,0.84-0.51c0.27,0.01,0.47,0.07,0.61,0.18c0.13,0.11,0.26,0.34,0.38,0.68
			L250.98,259.92z"/>
		<path class="st0" d="M258.42,267.1c-0.2-3.53,0.92-6.62,3.36-9.25c2.45-2.63,5.54-4.06,9.28-4.28c3.76-0.22,7.01,0.81,9.74,3.08
			s4.2,5.15,4.4,8.64c0.2,3.35-0.88,6.09-3.23,8.25c-2.35,2.15-5.56,3.35-9.61,3.58c-4.06,0.24-7.35-0.55-9.87-2.37
			C259.97,272.93,258.61,270.38,258.42,267.1z M271.09,255.66c-1.96,0.11-3.57,1.13-4.83,3.05s-1.81,4.29-1.64,7.11l0.03,0.57
			c0.16,2.71,0.93,4.84,2.32,6.37c1.39,1.53,3.18,2.24,5.37,2.11c2.07-0.12,3.71-1.03,4.93-2.74c1.22-1.71,1.74-3.87,1.59-6.47
			c-0.17-2.94-1-5.38-2.49-7.3C274.87,256.44,273.11,255.54,271.09,255.66z"/>
		<path class="st0" d="M297.07,270.35l-0.07,1.13l0,0.35c0.11,0.71,0.54,1,1.3,0.88c0.68-0.02,1.06,0.22,1.14,0.72
			c0.08,0.54-0.28,0.88-1.08,1l-5.05,0.78c-0.81,0.12-1.25-0.1-1.34-0.68c-0.07-0.45,0.09-0.73,0.45-0.85l0.39-0.13
			c0.39-0.14,0.67-0.4,0.84-0.78s0.3-1.02,0.38-1.94l1.36-14.72c0.05-0.54,0.08-0.89,0.08-1.05c0-0.16-0.02-0.32-0.04-0.49
			c-0.05-0.33-0.16-0.56-0.32-0.69c-0.15-0.13-0.5-0.17-1.03-0.14s-0.84-0.21-0.91-0.71c-0.09-0.54,0.26-0.88,1.04-1l6.73-1.04
			c0.8-0.12,1.25,0.09,1.33,0.66c0.08,0.48-0.14,0.79-0.66,0.92c-0.52,0.13-0.82,0.26-0.92,0.38c-0.09,0.12-0.12,0.31-0.09,0.56
			c0.05,0.27,0.12,0.48,0.24,0.64l0.63,1.02l4.92,7.92c0.03,0.06,0.08,0.1,0.14,0.12c0.06,0.02,0.11,0.03,0.16,0.02
			c0.12-0.1,0.19-0.18,0.21-0.22l2.15-9.01l0.25-1.17l0.02-0.61c-0.05-0.29-0.19-0.47-0.43-0.54c-0.24-0.07-0.6-0.09-1.09-0.07
			c-0.49,0.02-0.77-0.22-0.85-0.72c-0.09-0.54,0.27-0.88,1.08-1l6.56-1.02c0.81-0.12,1.25,0.09,1.34,0.66
			c0.07,0.46-0.14,0.76-0.63,0.9c-0.49,0.14-0.78,0.28-0.87,0.42c-0.09,0.14-0.12,0.37-0.07,0.68c0.04,0.23,0.06,0.4,0.08,0.5
			l0.44,1.05l6.24,13.52c0.41,0.86,0.76,1.44,1.05,1.76c0.29,0.32,0.63,0.48,1.03,0.48l0.41,0c0.42,0,0.66,0.23,0.73,0.7
			c0.09,0.55-0.26,0.89-1.04,1.01l-8.23,1.27c-0.78,0.12-1.22-0.1-1.3-0.66c-0.08-0.48,0.23-0.81,0.91-0.99
			c0.68-0.18,0.97-0.57,0.88-1.18l-0.09-0.37l-0.44-1.05l-3.67-9.55c-0.07-0.14-0.18-0.2-0.34-0.17c-0.14,0.13-0.22,0.22-0.23,0.26
			l-3.52,14.48c-0.07,0.31-0.2,0.48-0.4,0.51c-0.23,0.03-0.41-0.07-0.56-0.3l-8.13-12.71c-0.05-0.06-0.12-0.11-0.2-0.16
			c-0.05,0.01-0.08,0-0.1-0.02c-0.14,0.02-0.21,0.13-0.23,0.32L297.07,270.35z"/>
		<path class="st0" d="M330.56,263.87l-3.36-13.26l-0.17-0.68c-0.1-0.41-0.23-0.74-0.39-0.98c-0.29-0.38-0.77-0.53-1.43-0.45
			c-0.66,0.08-1.05-0.11-1.17-0.59c-0.14-0.53,0.19-0.9,0.98-1.1l8.56-2.17c3.93-1,7.24-1.01,9.92-0.03
			c2.69,0.97,4.37,2.8,5.05,5.48c0.38,1.52,0.32,2.91-0.19,4.2c-0.51,1.29-1.42,2.35-2.72,3.2c-0.64,0.42-1.34,0.79-2.12,1.09
			c-0.77,0.3-1.72,0.6-2.83,0.88c-0.33,0.08-0.83,0.19-1.49,0.31s-1.13,0.22-1.39,0.29l-1.24,0.21c-0.57,0.14-0.78,0.49-0.64,1.04
			l0.44,1.75c0.09,0.37,0.17,0.66,0.22,0.87c0.05,0.22,0.17,0.48,0.34,0.78c0.28,0.38,0.75,0.54,1.39,0.46
			c0.65-0.08,1.03,0.12,1.15,0.59c0.14,0.53-0.18,0.89-0.95,1.09l-7.94,2.01c-0.77,0.19-1.22,0.01-1.36-0.54
			c-0.11-0.45,0.13-0.79,0.73-1.04c0.6-0.24,0.95-0.6,1.04-1.08c0.02-0.2,0.02-0.4-0.01-0.6c-0.03-0.2-0.11-0.58-0.25-1.13
			L330.56,263.87z M334.36,246.74c-0.74,0.19-1.23,0.44-1.47,0.75c-0.24,0.31-0.28,0.76-0.13,1.36l2.01,7.95
			c0.28,1.11,1.45,1.4,3.51,0.88c1.75-0.44,3-1.22,3.74-2.32c0.75-1.1,0.92-2.44,0.52-4.02c-0.46-1.8-1.46-3.14-3.01-4.01
			C337.99,246.45,336.26,246.26,334.36,246.74z"/>
		<path class="st0" d="M355.67,262.44c-0.75,0.26-1.22,0.13-1.4-0.41c-0.15-0.44,0.08-0.81,0.68-1.11c0.61-0.3,1-0.72,1.18-1.25
			c0.11-0.31,0.18-0.62,0.24-0.95c0.02-0.14,0.06-0.48,0.11-1.01l1.47-19.45c0.04-0.35,0.09-0.57,0.14-0.67
			c0.05-0.09,0.18-0.18,0.39-0.26l3.87-1.36c0.23-0.08,0.4-0.11,0.49-0.07c0.1,0.03,0.25,0.18,0.46,0.44l12.88,14.43
			c0.36,0.39,0.57,0.63,0.65,0.71c0.23,0.23,0.49,0.44,0.8,0.63c0.46,0.31,1.04,0.38,1.72,0.23c0.68-0.15,1.09,0,1.26,0.46
			c0.18,0.52-0.11,0.91-0.87,1.18l-8.5,2.99c-0.77,0.27-1.24,0.15-1.42-0.37c-0.17-0.48,0.08-0.87,0.73-1.18
			c0.65-0.31,0.9-0.7,0.73-1.18c-0.16-0.46-0.48-0.93-0.96-1.41l-0.79-0.83c-0.21-0.19-0.42-0.4-0.62-0.62
			c-0.03-0.03-0.09-0.07-0.18-0.1c-0.09-0.04-0.42,0.05-1.02,0.26l-7.06,2.49c-0.58,0.2-0.88,0.34-0.93,0.43l-0.11,0.91l-0.06,1.26
			c-0.07,0.9-0.05,1.49,0.06,1.79c0.09,0.24,0.22,0.39,0.41,0.46c0.19,0.07,0.54,0.04,1.06-0.09c0.52-0.13,0.86,0.05,1.03,0.53
			c0.18,0.52-0.09,0.91-0.84,1.17L355.67,262.44z M360,251.1c0.13,0.36,0.41,0.47,0.83,0.32l5.3-1.87c0.45-0.16,0.62-0.39,0.51-0.69
			l-0.23-0.36l-5.31-5.85c-0.12-0.14-0.2-0.22-0.25-0.25c-0.05-0.03-0.1-0.04-0.18-0.04c-0.09,0.03-0.15,0.18-0.2,0.47l-0.57,7.96
			L360,251.1z"/>
		<path class="st0" d="M386.89,250.92c-0.72,0.36-1.22,0.29-1.47-0.23c-0.12-0.25-0.14-0.45-0.06-0.62c0.08-0.17,0.31-0.38,0.7-0.65
			c0.39-0.26,0.55-0.63,0.5-1.1c-0.05-0.19-0.11-0.39-0.19-0.61c-0.09-0.22-0.24-0.55-0.46-1.01l-6.39-12.86
			c-0.44-0.87-0.78-1.42-1.05-1.64c-0.27-0.22-0.63-0.26-1.09-0.11c-0.46,0.15-0.77,0.2-0.91,0.17c-0.14-0.03-0.29-0.19-0.43-0.48
			c-0.24-0.49,0-0.92,0.73-1.28l5.02-2.5c0.33-0.16,0.55-0.24,0.68-0.23l0.7,0.26l15.87,5.54c0.08,0.01,0.19,0.01,0.35,0
			c0.02-0.01,0.05-0.01,0.1-0.02c0.14-0.07,0.16-0.21,0.06-0.42l-3.68-7.4c-0.46-0.93-0.81-1.49-1.05-1.7
			c-0.24-0.21-0.59-0.24-1.05-0.1c-0.46,0.14-0.76,0.2-0.89,0.16c-0.14-0.04-0.27-0.2-0.41-0.48c-0.25-0.49-0.02-0.91,0.69-1.26
			l4.1-2.04c0.71-0.35,1.18-0.27,1.44,0.24c0.2,0.4,0.13,0.72-0.21,0.95l-0.31,0.22c-0.36,0.28-0.51,0.64-0.43,1.1
			c0.08,0.31,0.2,0.63,0.36,0.95l0.32,0.65l8.05,16.19c0.15,0.3,0.11,0.51-0.11,0.62l-1.85,0.92c-0.26,0.13-0.46,0.06-0.59-0.2
			l-0.11-0.23c-0.23-0.45-0.4-0.74-0.51-0.86c-0.11-0.12-0.35-0.25-0.71-0.37l-19.22-6.7c-0.03-0.01-0.07,0-0.13,0.01
			c-0.05,0.02-0.12,0.03-0.18,0.04c-0.18,0.09-0.23,0.23-0.14,0.42l5.54,11.13c0.43,0.87,0.79,1.42,1.08,1.64
			c0.28,0.22,0.64,0.26,1.08,0.12c0.43-0.14,0.73-0.19,0.89-0.14s0.31,0.2,0.44,0.47c0.25,0.49,0.01,0.91-0.69,1.27L386.89,250.92z"
			/>
		<path class="st0" d="M402.21,219.5c-0.36,0.18-0.68,0.09-0.94-0.27c-0.33-0.47-0.17-0.93,0.47-1.38l7.33-5.19
			c0.66-0.47,1.16-0.47,1.49-0.01c0.27,0.38,0.17,0.78-0.3,1.2c-0.46,0.42-0.61,0.75-0.44,0.99l0.17,0.19l0.62,0.34l1.22,0.49
			l7.2,2.7c0.2,0.12,0.37,0.13,0.52,0.02c0.03-0.04,0.05-0.1,0.07-0.16c0.02-0.07,0.03-0.16,0.03-0.28l-0.37-7.56l-0.08-1.3
			c-0.01-0.36-0.09-0.65-0.25-0.87c-0.18-0.26-0.56-0.22-1.14,0.11s-1.02,0.29-1.33-0.15c-0.31-0.43-0.13-0.88,0.54-1.35l4.48-3.17
			c0.66-0.47,1.16-0.47,1.49-0.01c0.26,0.36,0.23,0.69-0.09,0.99l-0.29,0.29c-0.24,0.25-0.39,0.61-0.46,1.08
			c-0.07,0.47-0.08,1.27-0.04,2.38l0.4,11.28c0.02,0.42,0.21,0.88,0.55,1.36l2.01,2.84l0.62,0.88l0.47,0.48
			c0.36,0.28,0.77,0.31,1.22,0.09c0.45-0.23,0.74-0.34,0.87-0.32c0.14,0.01,0.3,0.15,0.49,0.43c0.32,0.45,0.15,0.9-0.49,1.36
			l-6.38,4.52c-0.64,0.46-1.13,0.45-1.46-0.01c-0.16-0.22-0.22-0.42-0.19-0.59c0.04-0.17,0.23-0.41,0.57-0.73
			c0.34-0.32,0.49-0.66,0.44-1.01c-0.05-0.36-0.35-0.93-0.91-1.72l-1.77-2.51c-0.27-0.38-0.67-0.68-1.21-0.89L406.05,220
			c-1.05-0.39-1.82-0.64-2.31-0.74c-0.48-0.1-0.87-0.08-1.17,0.05L402.21,219.5z"/>
	</g>
	<g>
		<path class="st0" d="M48.44,102c-0.07-0.24-0.02-0.48,0.14-0.72c0.19-0.28,0.47-0.41,0.83-0.38l6.04,1.29l0.13,0.09
			c0.47,0.32,0.54,0.72,0.22,1.21c-0.15,0.23-0.45,0.39-0.88,0.49c-0.44,0.1-1.18,0.19-2.24,0.27c-1.06,0.08-2.17,0.49-3.32,1.22
			c-1.16,0.73-2.11,1.65-2.85,2.76c-1.29,1.91-1.6,4-0.93,6.24c0.67,2.25,2.17,4.16,4.52,5.74c2.41,1.62,4.8,2.24,7.17,1.85
			c2.37-0.39,4.32-1.72,5.85-3.98c0.66-0.97,0.99-1.74,0.99-2.29c0-0.55-0.31-1.04-0.93-1.47l-2.43-1.64l-0.89-0.6l-0.61-0.29
			c-0.46-0.15-0.85-0.03-1.18,0.33c-0.32,0.37-0.57,0.58-0.73,0.63c-0.16,0.05-0.37-0.01-0.64-0.18c-0.43-0.29-0.43-0.78,0.03-1.45
			l4.2-6.24c0.44-0.66,0.9-0.82,1.37-0.51c0.33,0.23,0.43,0.53,0.29,0.93l-0.16,0.34c-0.17,0.48-0.16,0.84,0.05,1.06
			c0.21,0.22,0.4,0.41,0.58,0.56c0.18,0.15,0.48,0.36,0.9,0.65l2.36,1.59c0.81,0.54,1.38,0.85,1.72,0.91
			c0.34,0.07,0.68-0.08,1.01-0.42c0.29-0.35,0.51-0.55,0.67-0.59c0.16-0.04,0.36,0.02,0.63,0.2c0.45,0.31,0.46,0.8,0,1.47l-6.13,9.1
			c-2.5,3.71-5.26,6.04-8.3,6.99c-3.03,0.95-6.02,0.44-8.96-1.54c-2.87-1.93-4.55-4.56-5.03-7.89c-0.48-3.33,0.35-6.58,2.5-9.78
			c0.86-1.28,1.82-2.36,2.88-3.26c0.47-0.39,0.79-0.68,0.97-0.84c0.18-0.17,0.3-0.31,0.38-0.42c0.15-0.23,0.17-0.46,0.05-0.7
			L48.44,102z"/>
		<path class="st0" d="M67.69,99.28c-2.2-2.77-3.06-5.94-2.57-9.5c0.49-3.56,2.2-6.51,5.13-8.84c2.95-2.34,6.2-3.37,9.74-3.09
			c3.54,0.29,6.4,1.8,8.57,4.54c2.08,2.63,2.78,5.5,2.1,8.61c-0.68,3.11-2.62,5.93-5.8,8.46c-3.18,2.53-6.33,3.77-9.44,3.74
			C72.31,103.16,69.74,101.86,67.69,99.28z M71.48,82.64c-1.54,1.22-2.27,2.98-2.19,5.27c0.08,2.29,0.99,4.55,2.75,6.76l0.35,0.45
			c1.69,2.13,3.54,3.42,5.56,3.88c2.02,0.45,3.89,0,5.6-1.36c1.63-1.29,2.45-2.98,2.46-5.08c0.01-2.09-0.79-4.16-2.42-6.21
			c-1.83-2.31-3.91-3.82-6.24-4.53C75.03,81.1,73.07,81.38,71.48,82.64z"/>
		<path class="st0" d="M93.37,79.76c-1.66-3.13-1.93-6.4-0.8-9.81c1.13-3.41,3.35-6,6.65-7.76c3.33-1.77,6.71-2.19,10.14-1.27
			c3.43,0.92,5.97,2.93,7.61,6.02c1.57,2.96,1.74,5.91,0.5,8.84c-1.24,2.94-3.65,5.36-7.24,7.26c-3.59,1.91-6.91,2.56-9.96,1.96
			C97.21,84.42,94.91,82.67,93.37,79.76z M100.12,64.09c-1.74,0.92-2.77,2.51-3.12,4.78c-0.34,2.27,0.15,4.65,1.47,7.15l0.27,0.5
			c1.27,2.4,2.86,4.01,4.77,4.82c1.9,0.81,3.82,0.71,5.75-0.32c1.83-0.97,2.95-2.49,3.34-4.55c0.39-2.06-0.02-4.24-1.25-6.55
			c-1.38-2.6-3.15-4.47-5.31-5.59C103.89,63.22,101.91,63.14,100.12,64.09z"/>
		<path class="st0" d="M127.54,74.13c-0.76,0.28-1.24,0.15-1.44-0.38c-0.09-0.26-0.1-0.46-0.03-0.61c0.08-0.15,0.31-0.32,0.7-0.51
			c0.44-0.25,0.67-0.54,0.69-0.88c0.02-0.33-0.14-0.98-0.49-1.93l-4.93-13.44c-0.36-0.97-0.64-1.57-0.86-1.81
			c-0.22-0.23-0.56-0.3-1.03-0.2c-0.47,0.1-0.76,0.13-0.89,0.07s-0.25-0.23-0.36-0.53c-0.19-0.52,0.1-0.91,0.86-1.19l7.6-2.79
			c3.84-1.41,7.57-1.45,11.2-0.11c3.63,1.33,6.05,3.65,7.26,6.94c0.57,1.55,0.75,3.1,0.53,4.65c-0.21,1.55-0.79,2.98-1.73,4.27
			c-1.4,1.95-3.77,3.55-7.12,4.77L127.54,74.13z M128.4,51.92c-0.57,0.21-0.93,0.46-1.08,0.75c-0.15,0.29-0.11,0.72,0.1,1.3
			l4.93,13.43c0.25,0.69,0.46,1.14,0.6,1.35c0.15,0.2,0.43,0.34,0.83,0.4c0.41,0.07,1.02-0.05,1.82-0.35
			c2.18-0.8,3.66-2.08,4.43-3.85c0.77-1.77,0.73-3.82-0.12-6.14c-1-2.74-2.62-4.77-4.86-6.11C132.83,51.38,130.61,51.12,128.4,51.92
			z"/>
		<path class="st0" d="M167.15,56.07c-0.24-0.25-0.37-0.47-0.41-0.66c-0.05-0.23-0.01-0.43,0.12-0.61c0.13-0.18,0.31-0.29,0.55-0.34
			c0.18-0.04,0.35-0.02,0.51,0.04c0.16,0.06,0.44,0.23,0.83,0.49c0.39,0.27,1.12,0.59,2.19,0.99c1.07,0.39,2.01,0.67,2.83,0.83
			c2.01,0.38,4.03,0.37,6.04-0.04c1.75-0.36,3.09-1,4.03-1.92c0.94-0.92,1.29-1.95,1.06-3.09c-0.2-0.97-0.77-1.7-1.71-2.17
			c-0.94-0.47-2.34-0.77-4.21-0.88l-3.08-0.18c-1.1-0.08-2.23-0.21-3.38-0.39c-1.15-0.18-2.15-0.4-2.99-0.66
			c-2.15-0.72-3.43-2.06-3.83-4.03c-0.34-1.65,0.06-3.13,1.18-4.43c1.13-1.3,2.78-2.17,4.95-2.61c0.75-0.16,1.47-0.27,2.14-0.34
			c0.68-0.07,1.37-0.1,2.09-0.07l0.59,0.01l0.72-0.02c0.42-0.09,0.75-0.33,0.99-0.72c0.17-0.29,0.28-0.46,0.33-0.51
			c0.05-0.04,0.16-0.08,0.34-0.12c0.2-0.04,0.38-0.01,0.54,0.09l0.49,0.38l3.93,3.3c0.22,0.19,0.35,0.36,0.38,0.5
			c0.09,0.45-0.15,0.74-0.72,0.86c-0.13,0.03-0.3,0.01-0.5-0.06c-0.2-0.07-0.37-0.14-0.53-0.21l-1.13-0.45
			c-0.32-0.13-0.73-0.27-1.21-0.43c-0.48-0.16-0.85-0.26-1.11-0.29c-0.81-0.22-1.67-0.36-2.59-0.41c-0.92-0.05-1.76,0-2.51,0.16
			c-0.97,0.2-1.72,0.58-2.26,1.14c-0.53,0.56-0.72,1.19-0.58,1.89c0.14,0.7,0.59,1.2,1.32,1.49c0.74,0.29,1.98,0.46,3.72,0.51
			l3.09,0.05c6.49,0.2,10.13,2.21,10.91,6.03c0.44,2.15-0.11,4.09-1.66,5.81c-1.55,1.73-3.78,2.89-6.7,3.49
			c-0.91,0.18-1.89,0.32-2.94,0.41c-1.05,0.09-2.33,0.14-3.82,0.16c-0.32,0-0.59,0.01-0.81,0.01c-0.22,0-0.42,0.02-0.59,0.06
			c-0.33,0.07-0.58,0.34-0.75,0.81c-0.17,0.48-0.45,0.76-0.85,0.84c-0.2,0.04-0.35,0.04-0.45,0c-0.1-0.05-0.28-0.2-0.54-0.47
			L167.15,56.07z"/>
		<path class="st0" d="M198.23,50.19l-1.62-13.58l-0.08-0.69c-0.05-0.42-0.14-0.76-0.26-1.02c-0.24-0.42-0.69-0.63-1.36-0.63
			c-0.67-0.01-1.03-0.25-1.09-0.73c-0.06-0.54,0.31-0.87,1.12-0.96l8.77-1.04c4.03-0.48,7.31-0.06,9.85,1.25
			c2.54,1.31,3.97,3.34,4.3,6.09c0.18,1.55-0.06,2.93-0.73,4.14c-0.68,1.21-1.71,2.15-3.11,2.82c-0.69,0.34-1.43,0.61-2.24,0.81
			s-1.78,0.37-2.92,0.51c-0.34,0.04-0.84,0.08-1.52,0.12c-0.68,0.04-1.15,0.07-1.42,0.11l-1.25,0.05c-0.59,0.07-0.84,0.39-0.77,0.95
			l0.21,1.79c0.05,0.38,0.08,0.68,0.11,0.9c0.03,0.22,0.1,0.49,0.23,0.82c0.23,0.42,0.67,0.63,1.32,0.64c0.65,0.01,1,0.25,1.06,0.74
			c0.07,0.54-0.29,0.86-1.08,0.96l-8.14,0.97c-0.79,0.09-1.21-0.14-1.28-0.71c-0.05-0.46,0.23-0.77,0.86-0.93
			c0.63-0.16,1.02-0.47,1.17-0.94c0.05-0.2,0.07-0.4,0.07-0.6c0-0.2-0.03-0.59-0.1-1.15L198.23,50.19z M204.22,33.7
			c-0.76,0.09-1.28,0.27-1.55,0.55c-0.27,0.28-0.38,0.72-0.3,1.33l0.97,8.14c0.14,1.13,1.26,1.57,3.36,1.32
			c1.79-0.21,3.13-0.82,4.01-1.82c0.88-1,1.23-2.3,1.04-3.92c-0.22-1.84-1.04-3.3-2.46-4.36C207.85,33.88,206.17,33.47,204.22,33.7z
			"/>
		<path class="st0" d="M225.64,48.06l-0.85-14.32c-0.05-0.91-0.17-1.53-0.35-1.88c-0.18-0.35-0.5-0.54-0.97-0.58
			c-0.47-0.04-0.75-0.09-0.86-0.17c-0.11-0.08-0.17-0.29-0.19-0.62c-0.03-0.55,0.36-0.84,1.17-0.89l7.61-0.45
			c0.79-0.05,1.2,0.21,1.23,0.78c0.02,0.4-0.16,0.66-0.56,0.79l-0.4,0.09c-0.65,0.14-0.95,0.64-0.9,1.48l0.07,1.11l0.85,14.32
			c0.05,0.95,0.17,1.59,0.33,1.91c0.17,0.33,0.48,0.51,0.93,0.55c0.45,0.04,0.75,0.1,0.89,0.2c0.14,0.1,0.22,0.29,0.24,0.59
			c0.03,0.55-0.36,0.85-1.16,0.89l-7.78,0.46c-0.81,0.05-1.23-0.21-1.26-0.78c-0.02-0.27,0.04-0.47,0.18-0.6
			c0.14-0.12,0.41-0.23,0.82-0.3c0.41-0.08,0.69-0.25,0.84-0.53c0.15-0.27,0.21-0.72,0.17-1.36L225.64,48.06z"/>
		<path class="st0" d="M250.83,44.41l-1.63,0.12l-1.29-0.13l-0.71,0c-0.41,0-0.61,0.21-0.61,0.63l-0.01,2.22l-0.01,1.11
			c0,0.23,0.04,0.45,0.13,0.67c0.09,0.21,0.21,0.38,0.37,0.51c0.16,0.13,0.5,0.22,1.01,0.29c0.52,0.07,0.78,0.34,0.78,0.83
			c0,0.55-0.41,0.82-1.22,0.82l-8.13-0.04c-0.79,0-1.18-0.29-1.18-0.86c0-0.46,0.31-0.73,0.93-0.8c0.62-0.07,1.02-0.26,1.19-0.58
			c0.17-0.32,0.26-0.97,0.26-1.96l0-0.7l0.06-13.64c0-0.99-0.07-1.64-0.23-1.95c-0.16-0.31-0.55-0.5-1.18-0.59
			c-0.63-0.09-0.94-0.37-0.94-0.86c0-0.55,0.41-0.82,1.22-0.82l9.77,0.05c4.13,0.02,7.43,0.8,9.89,2.36
			c2.46,1.56,3.68,3.63,3.67,6.23c-0.01,1.54-0.5,2.86-1.47,3.95c-0.59,0.67-1.19,1.17-1.81,1.48c-0.61,0.31-1.55,0.61-2.81,0.9
			l3.4,3.68c0.29,0.32,0.59,0.63,0.88,0.92c0.29,0.3,0.59,0.57,0.91,0.83c0.56,0.45,1.09,0.7,1.57,0.77
			c0.49,0.07,0.79,0.16,0.91,0.27c0.12,0.11,0.18,0.32,0.18,0.62c0,0.55-0.4,0.82-1.19,0.81l-9.24-0.04c-0.83,0-1.25-0.29-1.25-0.86
			c0-0.47,0.3-0.73,0.88-0.81c0.59-0.07,0.88-0.22,0.88-0.46c0-0.34-0.47-1.04-1.41-2.1L250.83,44.41z M249.3,30.88
			c-1.02,0-1.71,0.1-2.08,0.32c-0.37,0.22-0.56,0.65-0.57,1.28l-0.04,8.16c0,0.59,0.24,1.02,0.72,1.27c0.48,0.26,1.3,0.38,2.45,0.39
			c2.28,0.01,4.01-0.43,5.19-1.31c1.18-0.88,1.77-2.17,1.78-3.87c0.01-1.86-0.67-3.37-2.03-4.52
			C253.37,31.47,251.56,30.89,249.3,30.88z"/>
		<path class="st0" d="M270.71,47.84l0.94-14.31c0.06-0.9,0.02-1.54-0.11-1.91c-0.14-0.37-0.43-0.6-0.89-0.69
			c-0.46-0.09-0.73-0.19-0.83-0.28c-0.09-0.09-0.13-0.3-0.11-0.64c0.04-0.55,0.46-0.79,1.27-0.74l7.6,0.5
			c0.79,0.05,1.16,0.36,1.13,0.93c-0.03,0.4-0.25,0.64-0.66,0.72l-0.41,0.04c-0.66,0.06-1.02,0.52-1.08,1.36l-0.07,1.11l-0.94,14.31
			c-0.06,0.95-0.03,1.6,0.09,1.94c0.13,0.35,0.41,0.57,0.86,0.66c0.45,0.09,0.73,0.2,0.86,0.31c0.13,0.11,0.18,0.32,0.16,0.61
			c-0.04,0.55-0.46,0.79-1.27,0.74l-7.78-0.51c-0.81-0.05-1.19-0.36-1.16-0.93c0.02-0.27,0.1-0.46,0.26-0.57
			c0.15-0.11,0.43-0.17,0.85-0.2c0.41-0.03,0.71-0.17,0.9-0.42c0.18-0.25,0.3-0.69,0.34-1.33L270.71,47.84z"/>
		<path class="st0" d="M292.64,49.02l1.85-14.53c0.05-0.4,0.01-0.68-0.12-0.83c-0.13-0.16-0.39-0.26-0.79-0.31l-1.37-0.17
			c-0.63-0.08-1.14-0.09-1.56-0.04c-0.54,0.02-1.13,0.16-1.76,0.44c-0.63,0.27-1.24,0.64-1.84,1.1l-1.18,0.98
			c-0.38,0.32-0.72,0.45-1.04,0.41c-0.2-0.03-0.38-0.12-0.53-0.27c-0.15-0.16-0.21-0.34-0.18-0.55c0.02-0.17,0.11-0.37,0.28-0.6
			l3.33-4.43c0.3-0.34,0.63-0.49,1.01-0.45c0.29,0.04,0.49,0.11,0.59,0.23l0.33,0.36c0.2,0.24,0.6,0.39,1.2,0.47l14.45,1.84
			c0.4,0.05,0.65,0.07,0.74,0.06c0.09-0.01,0.3-0.11,0.62-0.32c0.32-0.2,0.6-0.29,0.85-0.26c0.23,0.03,0.38,0.09,0.47,0.18
			c0.09,0.09,0.2,0.33,0.33,0.72l1.85,5c0.07,0.18,0.09,0.35,0.07,0.52c-0.02,0.19-0.13,0.34-0.32,0.47
			c-0.19,0.12-0.41,0.17-0.65,0.14c-0.29-0.04-0.59-0.28-0.9-0.72l-0.74-1.12c-0.43-0.59-0.82-1.05-1.19-1.4
			c-0.93-0.76-2.01-1.21-3.24-1.37l-1.61-0.2c-0.74-0.09-1.15,0.16-1.22,0.77l-1.95,15.35c-0.05,0.38-0.09,0.69-0.12,0.94
			c-0.04,0.25-0.01,0.52,0.07,0.81c0.08,0.46,0.36,0.75,0.84,0.88c0.49,0.13,0.78,0.25,0.89,0.37c0.11,0.12,0.14,0.34,0.1,0.65
			c-0.07,0.54-0.5,0.77-1.31,0.66l-8-1.02c-0.81-0.1-1.18-0.44-1.1-1c0.06-0.46,0.4-0.69,1.03-0.68c0.63,0,1.04-0.14,1.23-0.42
			c0.19-0.28,0.36-0.93,0.49-1.94L292.64,49.02z"/>
		<path class="st0" d="M312.09,51.71c-0.11-0.33-0.15-0.58-0.11-0.77c0.05-0.23,0.17-0.4,0.35-0.51c0.18-0.11,0.4-0.14,0.64-0.09
			c0.18,0.04,0.33,0.12,0.45,0.24c0.12,0.12,0.31,0.39,0.56,0.79c0.25,0.4,0.78,0.99,1.61,1.79c0.82,0.79,1.58,1.43,2.26,1.9
			c1.69,1.16,3.54,1.96,5.55,2.39c1.74,0.38,3.23,0.33,4.46-0.14s1.97-1.27,2.22-2.41c0.21-0.97-0.02-1.86-0.69-2.67
			c-0.67-0.81-1.83-1.65-3.49-2.5l-2.75-1.4c-0.98-0.51-1.96-1.09-2.94-1.72c-0.99-0.63-1.81-1.24-2.47-1.81
			c-1.68-1.53-2.31-3.27-1.89-5.23c0.36-1.65,1.31-2.84,2.86-3.58s3.41-0.87,5.58-0.4c0.75,0.16,1.45,0.34,2.1,0.55
			c0.65,0.2,1.3,0.46,1.95,0.77l0.54,0.25l0.67,0.27c0.42,0.09,0.82,0,1.2-0.27c0.27-0.2,0.44-0.31,0.5-0.33
			c0.06-0.02,0.18-0.01,0.36,0.03c0.2,0.04,0.35,0.14,0.45,0.29l0.3,0.55l2.26,4.61c0.13,0.27,0.18,0.47,0.14,0.61
			c-0.1,0.45-0.43,0.62-1.01,0.5c-0.13-0.03-0.27-0.11-0.43-0.25c-0.15-0.14-0.29-0.28-0.4-0.41l-0.86-0.86
			c-0.25-0.25-0.56-0.54-0.94-0.88c-0.37-0.34-0.68-0.58-0.9-0.71c-0.65-0.53-1.39-1-2.21-1.42c-0.82-0.41-1.61-0.7-2.36-0.86
			c-0.97-0.21-1.81-0.16-2.52,0.14c-0.71,0.3-1.14,0.8-1.29,1.5c-0.15,0.7,0.05,1.33,0.61,1.9c0.56,0.56,1.63,1.22,3.2,1.97
			l2.81,1.28c5.86,2.79,8.38,6.1,7.56,9.91c-0.46,2.14-1.75,3.69-3.86,4.65c-2.11,0.96-4.62,1.12-7.54,0.5
			c-0.9-0.2-1.85-0.46-2.86-0.8c-1-0.34-2.19-0.81-3.56-1.4c-0.3-0.13-0.54-0.23-0.74-0.32c-0.2-0.09-0.39-0.15-0.57-0.18
			c-0.33-0.07-0.67,0.08-1.01,0.45c-0.35,0.37-0.72,0.51-1.12,0.43c-0.2-0.04-0.33-0.11-0.41-0.19c-0.07-0.08-0.18-0.3-0.31-0.65
			L312.09,51.71z"/>
		<path class="st0" d="M358.38,64.26l-0.63,0.94l-0.17,0.31c-0.26,0.67-0.04,1.14,0.68,1.42c0.6,0.32,0.81,0.72,0.63,1.2
			c-0.2,0.51-0.68,0.62-1.44,0.32l-4.76-1.86c-0.76-0.29-1.03-0.71-0.81-1.26c0.16-0.42,0.44-0.59,0.81-0.51l0.41,0.09
			c0.41,0.07,0.78-0.01,1.12-0.25c0.33-0.24,0.77-0.73,1.31-1.49l8.57-12.05c0.32-0.44,0.52-0.73,0.59-0.87
			c0.08-0.14,0.15-0.29,0.21-0.45c0.12-0.31,0.15-0.57,0.08-0.75c-0.07-0.19-0.35-0.4-0.82-0.64c-0.47-0.24-0.62-0.6-0.43-1.07
			c0.2-0.51,0.67-0.62,1.4-0.34l6.33,2.48c0.76,0.3,1.03,0.71,0.82,1.24c-0.18,0.45-0.52,0.61-1.04,0.46
			c-0.51-0.14-0.84-0.19-0.98-0.13c-0.14,0.06-0.27,0.2-0.36,0.44c-0.1,0.26-0.14,0.48-0.12,0.67l0.04,1.2l0.27,9.32
			c0,0.07,0.02,0.13,0.06,0.18s0.09,0.08,0.13,0.1c0.16-0.03,0.25-0.06,0.29-0.09l6.39-6.71l0.8-0.88l0.32-0.52
			c0.11-0.27,0.08-0.5-0.09-0.68c-0.18-0.18-0.48-0.38-0.91-0.61c-0.43-0.23-0.56-0.57-0.37-1.04c0.2-0.51,0.68-0.62,1.44-0.32
			l6.18,2.42c0.76,0.3,1.03,0.71,0.82,1.24c-0.17,0.43-0.5,0.59-1,0.46c-0.5-0.13-0.82-0.15-0.97-0.07
			c-0.15,0.08-0.29,0.26-0.4,0.56c-0.09,0.22-0.15,0.37-0.18,0.47l-0.15,1.13l-1.4,14.83c-0.08,0.94-0.07,1.63,0.03,2.05
			c0.09,0.42,0.31,0.73,0.64,0.93l0.36,0.21c0.36,0.21,0.45,0.53,0.28,0.97c-0.21,0.52-0.68,0.64-1.41,0.35l-7.76-3.04
			c-0.74-0.29-1-0.7-0.79-1.23c0.18-0.45,0.6-0.59,1.28-0.4c0.68,0.19,1.13,0,1.35-0.57l0.11-0.37l0.15-1.13l1.63-10.11
			c0.01-0.16-0.05-0.26-0.2-0.32c-0.18,0.04-0.3,0.08-0.33,0.11l-10.31,10.75c-0.22,0.23-0.41,0.32-0.6,0.24
			c-0.21-0.08-0.32-0.26-0.33-0.54l-0.64-15.07c-0.02-0.07-0.05-0.15-0.09-0.24c-0.05-0.02-0.07-0.04-0.09-0.07
			c-0.13-0.05-0.24,0.01-0.36,0.17L358.38,64.26z"/>
		<path class="st0" d="M384.84,79.6c-0.68-0.39-0.88-0.84-0.6-1.33c0.23-0.4,0.66-0.47,1.29-0.2c0.63,0.27,1.2,0.29,1.72,0.08
			c0.3-0.12,0.59-0.27,0.88-0.44c0.13-0.08,0.41-0.27,0.84-0.58l15.73-11.53c0.3-0.2,0.5-0.31,0.6-0.33
			c0.1-0.02,0.26,0.02,0.45,0.13l3.55,2.05c0.22,0.13,0.34,0.23,0.38,0.33s0.02,0.31-0.04,0.64l-2.58,19.17
			c-0.07,0.52-0.11,0.84-0.12,0.95c-0.03,0.32-0.02,0.66,0.04,1.01c0.07,0.55,0.38,1.04,0.94,1.46c0.55,0.42,0.71,0.84,0.46,1.26
			c-0.27,0.48-0.76,0.51-1.47,0.1l-7.8-4.5c-0.7-0.41-0.92-0.85-0.64-1.32c0.25-0.44,0.71-0.51,1.37-0.21
			c0.66,0.3,1.12,0.23,1.37-0.21c0.24-0.42,0.39-0.97,0.44-1.65l0.11-1.14c0.01-0.29,0.04-0.58,0.07-0.87c0-0.05-0.01-0.12-0.04-0.2
			c-0.03-0.09-0.32-0.29-0.86-0.61l-6.48-3.74c-0.53-0.31-0.84-0.45-0.93-0.43l-0.76,0.51l-1,0.78c-0.72,0.53-1.17,0.94-1.32,1.21
			c-0.13,0.22-0.15,0.42-0.08,0.61c0.07,0.19,0.32,0.44,0.76,0.75c0.43,0.31,0.52,0.68,0.27,1.12c-0.27,0.48-0.75,0.52-1.44,0.12
			L384.84,79.6z M396.26,75.52c-0.19,0.33-0.09,0.61,0.3,0.84l4.87,2.81c0.41,0.24,0.69,0.22,0.86-0.06l0.12-0.41l0.99-7.83
			c0.03-0.18,0.04-0.3,0.03-0.35c-0.01-0.05-0.04-0.11-0.09-0.16c-0.08-0.05-0.24,0.01-0.48,0.15l-6.41,4.74L396.26,75.52z"/>
		<path class="st0" d="M421.83,92.05l-3.42,4.02c-0.26,0.31-0.47,0.55-0.63,0.74c-0.16,0.18-0.31,0.45-0.44,0.81
			c-0.14,0.35-0.05,0.71,0.28,1.07c0.33,0.36,0.5,0.63,0.52,0.8s-0.07,0.36-0.26,0.59c-0.36,0.42-0.84,0.36-1.46-0.16l-5.94-5.05
			c-0.62-0.52-0.74-1-0.37-1.44c0.18-0.21,0.36-0.31,0.54-0.31c0.18,0.01,0.45,0.13,0.81,0.36c0.36,0.23,0.69,0.29,1.01,0.15
			c0.32-0.13,0.75-0.53,1.31-1.19l0.14-0.17l0.29-0.34l9-10.59c0.65-0.77,1.03-1.32,1.13-1.64c0.09-0.32-0.05-0.7-0.45-1.15
			c-0.39-0.45-0.44-0.84-0.14-1.2c0.36-0.42,0.85-0.36,1.46,0.16l5.86,4.98c0.62,0.53,0.74,1.01,0.37,1.44
			c-0.19,0.23-0.36,0.33-0.5,0.32c-0.14-0.01-0.41-0.13-0.82-0.36c-0.41-0.24-0.81-0.24-1.22,0c-0.14,0.1-0.28,0.21-0.41,0.32
			c-0.13,0.11-0.31,0.32-0.56,0.6l-0.27,0.32l-3.69,4.34l8.3-0.47l1.5-0.13c0.62,0.03,1.04-0.07,1.24-0.31
			c0.12-0.14-0.02-0.43-0.41-0.87c-0.4-0.44-0.44-0.85-0.11-1.23c0.34-0.4,0.82-0.34,1.44,0.19l4.8,4.08
			c0.62,0.53,0.74,1.01,0.37,1.44c-0.3,0.35-0.74,0.34-1.33-0.05c-0.59-0.39-1.28-0.63-2.08-0.73c-0.3-0.03-0.63-0.05-0.99-0.05
			c-0.36,0-0.92,0.02-1.69,0.06l-2.47,0.14l-3.21,13.86c-0.09,0.31-0.17,0.63-0.24,0.96c-0.07,0.33-0.11,0.67-0.12,1.02
			c-0.03,0.56,0.13,1.03,0.46,1.41c0.34,0.38,0.52,0.65,0.54,0.79c0.01,0.14-0.08,0.33-0.28,0.57c-0.36,0.42-0.84,0.37-1.44-0.14
			l-6.32-5.38c-0.6-0.51-0.72-0.99-0.35-1.42c0.18-0.21,0.36-0.31,0.54-0.3c0.19,0.01,0.48,0.14,0.87,0.39
			c0.39,0.25,0.71,0.24,0.94-0.03c0.11-0.13,0.2-0.3,0.28-0.51c0.08-0.21,0.2-0.68,0.36-1.4l2.3-9.61L421.83,92.05z"/>
		<path class="st0" d="M435.92,111.24l11.32-7.45l0.32-0.21c0.32-0.21,0.54-0.37,0.67-0.48c0.13-0.11,0.25-0.25,0.37-0.41
			c0.12-0.16,0.2-0.31,0.24-0.44c0.06-0.26-0.04-0.63-0.29-1.13c-0.25-0.5-0.16-0.88,0.26-1.16c0.44-0.29,0.88-0.11,1.31,0.55
			l8.12,12.33c0.3,0.45,0.6,0.75,0.91,0.9l0.48,0.18c0.17,0.05,0.32,0.18,0.45,0.39s0.2,0.37,0.19,0.48
			c-0.01,0.11-0.1,0.36-0.27,0.74l-1.76,4.32c-0.18,0.34-0.32,0.53-0.4,0.59c-0.16,0.1-0.34,0.12-0.54,0.05
			c-0.21-0.07-0.37-0.19-0.5-0.38c-0.13-0.19-0.13-0.56-0.02-1.12c0.27-1.18,0.27-2.35,0.02-3.54c-0.25-1.19-0.83-2.47-1.74-3.85
			l-1.45-2.21c-0.56-0.85-1.01-1.31-1.36-1.4c-0.34-0.08-0.91,0.14-1.71,0.66l-2.78,1.83c-0.58,0.38-0.66,0.9-0.24,1.54l1.21,1.84
			c0.26,0.4,0.46,0.64,0.61,0.73c0.15,0.09,0.4,0.12,0.75,0.1c0.35-0.03,0.6-0.01,0.77,0.04c0.16,0.06,0.3,0.17,0.41,0.34
			c0.16,0.25,0.14,0.62-0.05,1.13l-1.75,4.31c-0.14,0.28-0.28,0.47-0.42,0.56c-0.42,0.28-0.79,0.18-1.1-0.29
			c-0.14-0.21-0.15-0.62-0.05-1.23c0.27-1.69-0.05-3.24-0.97-4.63l-1.15-1.75c-0.42-0.64-0.93-0.77-1.51-0.38l-5.68,3.74
			c-0.76,0.5-1.18,0.94-1.24,1.32c-0.06,0.38,0.17,0.98,0.7,1.79l2.13,3.22c0.48,0.74,1.03,1.45,1.65,2.16
			c0.62,0.7,1.13,1.22,1.56,1.57c0.59,0.43,1.23,0.78,1.93,1.06c0.7,0.28,1.4,0.45,2.09,0.5c0.52,0.06,0.85,0.2,0.99,0.41
			c0.31,0.47,0.27,0.84-0.11,1.09c-0.13,0.08-0.36,0.14-0.69,0.17l-5.61,0.21c-0.33,0-0.56-0.02-0.69-0.07
			c-0.14-0.05-0.26-0.16-0.37-0.33c-0.14-0.21-0.21-0.36-0.21-0.47c0-0.11,0.02-0.37,0.07-0.78c0.03-0.29,0.02-0.5-0.02-0.64
			l-0.54-0.82l-9.14-13.89c-0.44-0.66-0.41-1.15,0.06-1.46c0.23-0.15,0.43-0.2,0.59-0.16c0.16,0.04,0.4,0.25,0.71,0.62
			c0.31,0.38,0.65,0.55,1,0.52c0.36-0.03,0.95-0.32,1.78-0.87L435.92,111.24z"/>
	</g>
	<g>
		<g>
			<path class="st0" d="M250,303.92c-65.67,0-127.6-15.14-174.36-42.64C26.86,232.6,0,193.78,0,151.96S26.86,71.32,75.64,42.64
				C122.4,15.14,184.32,0,250,0s127.6,15.14,174.36,42.64C473.14,71.32,500,110.14,500,151.96s-26.86,80.64-75.64,109.32
				C377.6,288.77,315.67,303.92,250,303.92z M250,7.43c-64.37,0-124.96,14.78-170.6,41.62C32.99,76.33,7.43,112.88,7.43,151.96
				c0,39.08,25.56,75.63,71.97,102.91c45.64,26.84,106.23,41.62,170.6,41.62c64.37,0,124.96-14.78,170.6-41.62
				c46.41-27.29,71.97-63.84,71.97-102.91c0-39.08-25.56-75.63-71.97-102.91C374.96,22.21,314.37,7.43,250,7.43z"/>
		</g>
		<g>
			<g>
				<g>
					<path class="st0" d="M183.02,131.09c-11.54,0-25.18-2.15-31.29-3.22c-12.1-2.13-23.36-5.02-31.69-8.13
						c-10.72-4-15.15-7.77-14.37-12.22c1.94-11,38.95-5.36,50.24-3.37c12.1,2.13,23.36,5.02,31.69,8.13
						c10.72,4,15.16,7.77,14.37,12.22l0,0C201.09,129.54,192.81,131.09,183.02,131.09z M114.61,109.08
						c4.6,2.84,17.56,7.78,38.41,11.46c20.86,3.68,34.72,3.46,40.02,2.37c-4.6-2.84-17.56-7.78-38.41-11.46
						C133.77,107.78,119.9,108,114.61,109.08z"/>
				</g>
				<g>
					<path class="st0" d="M162.73,208.84c-6.87,0-15.66-0.88-24.84-2.5c-14.27-2.52-37.99-8.04-36.45-16.77
						c1.54-8.73,25.71-5.81,39.99-3.29c9.45,1.67,18.24,3.92,24.76,6.36c6.28,2.34,12.57,5.41,11.69,10.41l0,0
						c-0.88,5.01-7.85,5.74-14.55,5.79C163.14,208.84,162.93,208.84,162.73,208.84z M111.79,191.4c4.6,2.17,13.79,5.23,27.39,7.63
						c13.61,2.4,23.29,2.67,28.35,2.2c-4.6-2.17-13.79-5.23-27.4-7.63C126.54,191.2,116.85,190.92,111.79,191.4z"/>
				</g>
				<g>
					
						<rect x="66.13" y="145.47" transform="matrix(0.0515 -0.9987 0.9987 0.0515 -47.2945 248.5727)" class="st0" width="82.17" height="7.43"/>
				</g>
				<g>
					
						<rect x="145.19" y="159.41" transform="matrix(0.2933 -0.956 0.956 0.2933 -24.3152 293.3557)" class="st0" width="82.17" height="7.43"/>
				</g>
			</g>
			<g>
				<path class="st0" d="M250.05,146.74c-11.47,0-48.9-0.87-48.9-12.04s37.43-12.04,48.9-12.04c11.47,0,48.89,0.87,48.89,12.04
					S261.52,146.74,250.05,146.74z M210.23,134.7c5.02,2,18.64,4.62,39.82,4.62s34.8-2.62,39.82-4.62c-5.02-2-18.64-4.62-39.82-4.62
					C228.87,130.08,215.25,132.7,210.23,134.7z"/>
			</g>
			<g>
				<path class="st0" d="M250.05,226.43c-14.49,0-38.81-1.32-38.81-10.18c0-8.86,24.32-10.18,38.81-10.18
					c14.49,0,38.81,1.32,38.81,10.18C288.86,225.11,264.55,226.43,250.05,226.43z M221.75,216.25c4.91,1.34,14.49,2.76,28.3,2.76
					s23.4-1.41,28.3-2.76c-4.91-1.34-14.49-2.76-28.3-2.76S226.66,214.91,221.75,216.25z"/>
			</g>
			<g>
				
					<rect x="206.2" y="134.39" transform="matrix(0.9924 -0.1228 0.1228 0.9924 -19.9535 27.0967)" class="st0" width="7.43" height="82.17"/>
			</g>
			<g>
				
					<rect x="249.1" y="171.76" transform="matrix(0.1231 -0.9924 0.9924 0.1231 80.3379 441.8601)" class="st0" width="82.17" height="7.43"/>
			</g>
			<g>
				<g>
					<path class="st0" d="M317.08,131.09c-9.79,0-18.06-1.54-18.96-6.59c-1.94-11,34.77-18.36,46.06-20.35
						c11.3-1.99,48.31-7.63,50.25,3.37c0.79,4.46-3.65,8.23-14.37,12.22c-8.34,3.11-19.59,5.99-31.69,8.13
						C342.26,128.94,328.62,131.09,317.08,131.09z M307.06,122.91c5.29,1.09,19.16,1.31,40.02-2.37
						c20.85-3.68,33.81-8.62,38.41-11.46c-5.29-1.09-19.16-1.31-40.02,2.37C324.62,115.13,311.66,120.08,307.06,122.91z"/>
				</g>
				<g>
					<path class="st0" d="M337.84,208.91c-8.21,0-14.84-1.43-15.62-5.86c-1.54-8.73,22.18-14.25,36.45-16.77
						c9.45-1.67,18.52-2.52,25.44-2.5c6.7,0.05,13.66,0.78,14.54,5.79c0.88,5.01-5.41,8.08-11.69,10.41
						c-6.52,2.43-15.31,4.69-24.76,6.35C355.19,207.58,345.78,208.91,337.84,208.91z M332.57,201.22c5.06,0.47,14.75,0.2,28.35-2.2
						c13.6-2.4,22.79-5.45,27.39-7.63c-5.06-0.48-14.74-0.2-28.35,2.2C346.35,196,337.16,199.05,332.57,201.22z"/>
				</g>
				<g>
					
						<rect x="310.12" y="122.04" transform="matrix(0.956 -0.2932 0.2932 0.956 -34.0374 99.1933)" class="st0" width="7.43" height="82.17"/>
				</g>
				<g>
					
						<rect x="389.17" y="108.1" transform="matrix(0.9987 -0.0514 0.0514 0.9987 -7.1517 20.4006)" class="st0" width="7.43" height="82.17"/>
				</g>
			</g>
		</g>
	</g>
</g>
</svg>
