<?xml version="1.0" encoding="utf-8"?>
<!-- Generator: Adobe Illustrator 23.0.6, SVG Export Plug-In . SVG Version: 6.00 Build 0)  -->
<svg version="1.1" id="Layer_1" xmlns="http://www.w3.org/2000/svg" xmlns:xlink="http://www.w3.org/1999/xlink" x="0px" y="0px"
	 viewBox="0 0 400 171.6" style="enable-background:new 0 0 400 171.6;" xml:space="preserve">
<style type="text/css">
	.st0{fill:#AE4D33;}
</style>
<g>
	<g>
		<path class="st0" d="M388.8,171.6H11.2c-6.1,0-11.2-5-11.2-11.1V11.2C0,5,5,0,11.2,0h377.7C395,0,400,5,400,11.2v149.3
			C400,166.6,395,171.6,388.8,171.6z M11.2,5.8c-3,0-5.4,2.4-5.4,5.4v149.3c0,3,2.4,5.4,5.4,5.4h377.7c3,0,5.4-2.4,5.4-5.4V11.2
			c0-3-2.4-5.4-5.4-5.4H11.2z"/>
	</g>
	<g>
		<g>
			<path class="st0" d="M32.7,39.9l1.2,1.1h7.2v3.1h-8.8L28.9,41v-11l3.4-3.1h8.8v3.1h-7.2l-1.2,1.1C32.6,31.2,32.6,39.9,32.7,39.9z
				"/>
		</g>
		<g>
			<path class="st0" d="M55.4,26.9h5.9l5.4,17.2h-3.8l-1.2-3.8H55l-1.2,3.8H50L55.4,26.9z M55.9,37.4h5l-2.3-7.4h-0.3L55.9,37.4z"/>
		</g>
		<g>
			<path class="st0" d="M79.9,26.9V41h8v3.1H76.1V26.9H79.9z"/>
		</g>
		<g>
			<path class="st0" d="M101.5,26.9v17.2h-3.7V26.9H101.5z"/>
		</g>
		<g>
			<path class="st0" d="M125.2,26.9v3.1h-9.1v4.2h7v3.1h-7v6.7h-3.7V26.9H125.2z"/>
		</g>
		<g>
			<path class="st0" d="M138.5,26.9h7.4l3.4,3.1V41l-3.4,3.1h-7.4l-3.4-3.1V30.1L138.5,26.9z M145.6,31.2l-1.2-1.1h-4.3l-1.2,1.1
				v8.7l1.2,1.1h4.3l1.2-1.1V31.2z"/>
		</g>
		<g>
			<path class="st0" d="M159.8,44.2V26.9h10.4l3.4,3.1v4.8l-3,2.8l3.6,6.5h-4l-3.4-6.2h-3.2v6.2L159.8,44.2L159.8,44.2z M163.5,30.1
				v4.8h5.1l1.2-1.1v-2.5l-1.2-1.1C168.6,30.1,163.5,30.1,163.5,30.1z"/>
		</g>
		<g>
			<path class="st0" d="M187.8,44.2h-3.7V26.9h4.1l7.5,11.8l-0.2-11.8h3.7v17.2h-4.1l-7.6-11.8L187.8,44.2z"/>
		</g>
		<g>
			<path class="st0" d="M213.9,26.9v17.2h-3.7V26.9H213.9z"/>
		</g>
		<g>
			<path class="st0" d="M228.7,26.9h5.9l5.4,17.2h-3.8l-1.2-3.8h-6.8l-1.2,3.8h-3.8L228.7,26.9z M229.2,37.4h5l-2.3-7.4h-0.4
				L229.2,37.4z"/>
		</g>
	</g>
	<g>
		<g>
			<path class="st0" d="M68.8,76l-9,4.9c-1.7-2.7-3.2-4.5-4.8-5.3c-1.6-0.9-3.6-1.4-6.1-1.4c-3.1,0-5.6,0.8-7.6,2.4
				c-2,1.6-3,3.6-3.1,6c0,3.3,2.6,6,7.9,8.1l7.3,2.8c5.9,2.3,10.2,5,13,8.3c2.7,3.2,4.1,7.2,4.1,11.9c0,6.3-2.3,11.5-6.8,15.5
				c-4.5,4.1-10.1,6.1-16.8,6.1c-6.3,0-11.6-1.8-15.7-5.4c-4.1-3.5-6.6-8.5-7.5-14.9l11.2-2.2c0.5,4,1.3,6.8,2.6,8.3
				c2.2,3,5.6,4.4,9.9,4.5c3.4,0,6.3-1,8.6-3.2s3.4-4.9,3.5-8.2c0-1.3-0.2-2.6-0.6-3.7c-0.4-1.1-1-2.1-1.8-3.1s-1.9-1.8-3.2-2.6
				c-1.3-0.8-2.9-1.6-4.7-2.3l-7-2.8c-10-4-14.9-9.8-14.9-17.4c0-5.1,2.1-9.4,6.4-12.8c4.2-3.5,9.4-5.2,15.7-5.1
				C57.6,64.5,64.2,68.3,68.8,76z"/>
		</g>
		<g>
			<path class="st0" d="M101.3,106.6l-0.2,27.7l-11-0.1L90.5,66L103,66c6.1,0,10.7,0.4,13.8,1.3c3.2,0.8,5.9,2.3,8.3,4.6
				c4.2,3.9,6.2,8.7,6.2,14.5c0,6.2-2.3,11.2-6.8,14.8s-10.6,5.4-18.2,5.4L101.3,106.6z M101.3,97l4.1,0
				c10.1,0.1,15.2-3.6,15.2-10.8c0-7.1-5.2-10.6-15.6-10.7l-3.6,0L101.3,97z"/>
		</g>
		<g>
			<path class="st0" d="M160.2,66.3l-0.4,68.3l-11-0.1l0.4-68.3L160.2,66.3z"/>
		</g>
		<g>
			<path class="st0" d="M208.7,105.8l22.4,29.2l-13.5-0.1l-20.7-28.1l-2,0l-0.1,27.9l-11-0.1l0.4-68.3l12.9,0.1
				c9.6,0.1,16.6,1.8,20.9,5.2c4.7,3.8,7.1,8.8,7,15c0,4.8-1.5,9-4.5,12.4C217.5,102.6,213.5,104.8,208.7,105.8z M195,97.9l3.5,0
				c10.4,0.1,15.7-3.6,15.7-11.1c0-7-5-10.5-15.2-10.6l-3.9,0L195,97.9z"/>
		</g>
		<g>
			<path class="st0" d="M259.9,66.9l-0.4,68.3l-11-0.1l0.4-68.3L259.9,66.9z"/>
		</g>
		<g>
			<path class="st0" d="M303.9,76.8l-0.3,58.6l-11-0.1l0.3-58.6l-16.8-0.1l0-9.7l44.6,0.2l0,9.7L303.9,76.8z"/>
		</g>
		<g>
			<path class="st0" d="M376.9,77.7l-9,4.9c-1.7-2.7-3.2-4.5-4.8-5.3c-1.6-0.9-3.6-1.4-6.1-1.4c-3.1,0-5.6,0.8-7.6,2.4
				c-2,1.6-3,3.6-3.1,6c0,3.3,2.6,6,7.9,8.1l7.3,2.8c5.9,2.3,10.2,5,13,8.3c2.7,3.2,4.1,7.2,4,11.9c0,6.3-2.3,11.5-6.8,15.5
				c-4.5,4.1-10.1,6.1-16.8,6.1c-6.3,0-11.6-1.8-15.7-5.4c-4-3.5-6.6-8.5-7.5-14.9l11.2-2.2c0.5,4,1.4,6.8,2.6,8.3
				c2.2,3,5.6,4.4,9.9,4.5c3.4,0,6.3-1,8.6-3.2s3.4-4.9,3.5-8.2c0-1.3-0.2-2.6-0.6-3.7c-0.4-1.1-1-2.1-1.8-3.1s-1.9-1.8-3.2-2.6
				c-1.3-0.8-2.9-1.6-4.7-2.3l-7-2.8c-10-4-14.9-9.8-14.9-17.4c0-5.1,2.1-9.4,6.4-12.8c4.2-3.5,9.4-5.2,15.7-5.1
				C365.7,66.1,372.2,70,376.9,77.7z"/>
		</g>
	</g>
	<g>
		<path class="st0" d="M275.4,22.5v23.7h102V22.5H275.4z M285.9,41.4h-6.5V27.1h6.5V41.4z M343.1,42.5h-11.8v-3.1h4.1V28.7h-4.1
			v-3.1h7.8v13.8h4L343.1,42.5L343.1,42.5z M359.9,39.4l-3.3,3.1h-8.9v-3.1h7.4l1.2-1.1v-1.8h-5.5l-3.3-3.1v-4.7l3.3-3.1h5.9
			l3.3,3.1L359.9,39.4L359.9,39.4z M373.8,41.4h-6.5V27.1h6.5V41.4z M352.3,28.7l-1.2,1.1v2.4l1.2,1.1h4v-3.6l-1.2-1.1L352.3,28.7
			L352.3,28.7z"/>
	</g>
</g>
</svg>
