<?xml version="1.0" encoding="utf-8"?>
<!-- Generator: Adobe Illustrator 23.0.4, SVG Export Plug-In . SVG Version: 6.00 Build 0)  -->
<svg version="1.1" id="Layer_1" xmlns="http://www.w3.org/2000/svg" xmlns:xlink="http://www.w3.org/1999/xlink" x="0px" y="0px"
	 viewBox="0 0 300 179.31" style="enable-background:new 0 0 300 179.31;" xml:space="preserve">
<style type="text/css">
	.st0{fill:#EAE5D3;}
</style>
<g>
	<g>
		<g>
			<path class="st0" d="M44.42,94.28l-8.09-10.72h-2.41v10.72h-6.54V65.7h10.08c8.5,0,10.13,6.12,10.13,8.85
				c0,3.61-2.18,5.99-4.86,7.44l9.9,12.29H44.42z M36.74,78.08c3.13,0,4.32-1.58,4.32-3.4c0-2-1.5-3.27-4.23-3.27h-2.91v6.68H36.74z
				"/>
		</g>
		<g>
			<path class="st0" d="M69.1,94.87c-9.77,0-16.49-7.53-16.49-14.88c0-7.36,6.72-14.88,16.49-14.88s16.5,7.53,16.5,14.88
				C85.59,87.34,78.87,94.87,69.1,94.87z M78.64,79.99c0-5.19-4.09-9.14-9.54-9.14c-5.45,0-9.54,3.96-9.54,9.14
				c0,5.18,4.09,9.14,9.54,9.14C74.55,89.13,78.64,85.17,78.64,79.99z"/>
		</g>
		<g>
			<path class="st0" d="M106.91,94.28l-7.31-9.82l-7.36,9.82H84.6l11.18-14.97L85.6,65.7h7.64l6.31,8.5l6.36-8.5h7.63l-10.18,13.61
				l11.18,14.97H106.91z"/>
		</g>
		<g>
			<path class="st0" d="M139.73,94.28l-2.23-5.87H126.1l-2.23,5.87h-6.95l11.86-28.57h6.04l11.86,28.57H139.73z M131.82,73.57
				l-3.68,9.57h7.31L131.82,73.57z"/>
		</g>
		<g>
			<path class="st0" d="M172.73,94.28l-15.54-18.63v18.63h-6.54V65.7h6.54l15.14,18.11V65.7h6.54v28.57H172.73z"/>
		</g>
		<g>
			<path class="st0" d="M207.68,94.28l-15.54-18.63v18.63h-6.54V65.7h6.54l15.14,18.11V65.7h6.54v28.57H207.68z"/>
		</g>
		<g>
			<path class="st0" d="M220.56,94.28V65.7h20.53v5.7H227.1v5.36h9.95v5.7h-9.95v6.12h13.99v5.7H220.56z"/>
		</g>
		<g>
			<path class="st0" d="M251.97,69.62c0,2.42-1.05,6.21-6.5,6.21c-1.23,0-2.69-0.25-3.22-0.55c3.5-0.89,3.86-2.34,3.86-5.49V65.7
				h5.87V69.62z"/>
		</g>
		<g>
			<path class="st0" d="M268.59,73.02c-0.77-1.27-2.09-2.34-3.77-2.34c-1.77,0-2.77,0.93-2.77,2.21c0,3.78,13,3.27,13,12.54
				c0,4.38-3.59,9.44-10.45,9.44c-5.77,0-8.9-3.66-10.49-6.85l5.77-2.85c0.5,1.83,1.68,4.17,4.77,4.17c1.82,0,3.59-1.36,3.59-3.27
				c0-4.89-12.82-4.12-12.82-12.76c0-4.25,4-8.21,9.41-8.21c3.68,0,7.04,1.74,9.23,5.06L268.59,73.02z"/>
		</g>
		<g>
			<path class="st0" d="M113,128.99c-2.95,1.66-7,2.68-10.13,2.68c-9,0-16.54-6.85-16.54-14.88c0-8.5,7.59-14.88,16.59-14.88
				c3.45,0,7.5,0.98,10.13,2.21v6.72c-3.32-2.04-6.68-3.19-9.72-3.19c-6.23,0-10.04,4.54-10.04,9.14c0,5.53,4.81,9.14,10.08,9.14
				c3.5,0,6.82-1.44,9.63-3.78V128.99z"/>
		</g>
		<g>
			<path class="st0" d="M138,131.07l-8.09-10.72h-2.41v10.72h-6.54v-28.58h10.08c8.5,0,10.13,6.12,10.13,8.85
				c0,3.61-2.18,6-4.86,7.44l9.9,12.29H138z M130.32,114.87c3.13,0,4.32-1.58,4.32-3.4c0-2-1.5-3.27-4.23-3.27h-2.91v6.68H130.32z"
				/>
		</g>
		<g>
			<path class="st0" d="M148.88,131.07v-28.58h20.53v5.7h-13.99v5.36h9.95v5.69h-9.95v6.12h13.99v5.7H148.88z"/>
		</g>
		<g>
			<path class="st0" d="M200.28,131.07l-5.91-18.71l-5.91,18.71h-6.17l-9.46-28.58h6.5l6.05,18.62l6-18.62h6l6,18.62l6.04-18.62h6.5
				l-9.45,28.58H200.28z"/>
		</g>
	</g>
	<g>
		<path class="st0" d="M150,179.31c-82.71,0-150-40.22-150-89.66C0,40.22,67.29,0,150,0s150,40.22,150,89.66
			C300,139.09,232.71,179.31,150,179.31z M150,6.54C70.9,6.54,6.54,43.83,6.54,89.66S70.9,172.77,150,172.77
			c79.11,0,143.46-37.29,143.46-83.12S229.1,6.54,150,6.54z"/>
	</g>
</g>
</svg>
