<?xml version="1.0" encoding="utf-8"?>
<!-- Generator: Adobe Illustrator 23.0.6, SVG Export Plug-In . SVG Version: 6.00 Build 0)  -->
<svg version="1.1" id="Layer_1" xmlns="http://www.w3.org/2000/svg" xmlns:xlink="http://www.w3.org/1999/xlink" x="0px" y="0px"
	 viewBox="0 0 101.3 101.3" style="enable-background:new 0 0 101.3 101.3;" xml:space="preserve">
<style type="text/css">
	.st0{fill:#EAE5D3;}
</style>
<path class="st0" d="M50.6,0C22.7,0,0,22.7,0,50.6c0,28,22.7,50.6,50.6,50.6c28,0,50.6-22.7,50.6-50.6C101.3,22.7,78.6,0,50.6,0z
	 M80.9,38.1h-1.5c-2.1,0-3.2,0.2-3.9,2.8c-0.9,3.4-4.5,16.3-6.9,25.8c-0.6,2.4,1,2.7,2.4,2.7l2.1,0c-0.1,1.2-0.1,3.1,0,4.3
	c0,0-10.5-0.2-18.1-0.1c-0.4-1.9-3.9-14.3-5.3-19.1c-1.3,4.9-4,17.2-4.4,19.1c-2.6-0.1-6.2-0.1-8.7-0.1c-2.8,0-9.7,0.1-9.7,0.1
	c0.1-1.4,0-3.3,0-4.5c0,0,1.5,0.1,2.3,0.1c1.6,0,2.9-0.4,2.4-2.3c-1.8-6.3-5.8-20.7-6.3-22.4L24.4,42c-1.2-3.5-2.1-3.9-4.8-3.9h-1.3
	c0-0.5,0-1.3,0-2.2h0c0-0.6,0-1,0-1.4c0.8,0,5,0.1,7.8,0.1c2.9,0,7.6-0.1,7.6-0.1c0,0.3,0,0.8,0,1.4h0c0,0.9,0,1.7,0,2.2h-1.1
	c-2.8-0.1-3.7,0.5-3.3,2.9c0,0,4.3,16.6,5.4,20.6c1.2-4,5.7-26.9,5.7-26.9c1,0,4.4,0.1,5.3,0.1c1,0,4.1-0.1,5.3-0.1
	c0,0,5.1,23.9,6.2,27.5c0-0.1,0-0.1,0.1-0.2c1.3-4.3,4.5-17.6,5-20.8c0.4-2.8-0.9-3-3.1-3h-1.3v-3.5c0.8,0,7.3,0.1,11.5,0.1
	c4.2,0,11.5-0.1,11.5-0.1V38.1z"/>
</svg>
