<?xml version="1.0" encoding="utf-8"?>
<!-- Generator: Adobe Illustrator 24.0.3, SVG Export Plug-In . SVG Version: 6.00 Build 0)  -->
<svg version="1.1" id="Layer_1" xmlns="http://www.w3.org/2000/svg" xmlns:xlink="http://www.w3.org/1999/xlink" x="0px" y="0px"
	 viewBox="0 0 300 302.3" style="enable-background:new 0 0 300 302.3;" xml:space="preserve">
<style type="text/css">
	.st0{fill:#2F456B;}
</style>
<g>
	<g>
		<g>
			<path class="st0" d="M26.7,231.7l2.6,3.8l1.9-1.3l-2.4-3.4l2.5-1.7l2.4,3.4l4.4-3.1l2.2,3.1L29,240.3l-4.8-6.9L26.7,231.7z"/>
			<path class="st0" d="M19.5,225.6l11.8-6.9l1.9,3.3l-11.8,6.9L19.5,225.6z"/>
			<path class="st0" d="M28.7,214.3L16.3,220l-1.6-3.5l4.7-9.8l-7.6,3.4l-1.6-3.4l12.5-5.6l1.6,3.4l-4.7,9.8l7.6-3.4L28.7,214.3z"/>
			<path class="st0" d="M8.5,191.8l1.4,4.3l2.2-0.7l-1.3-4.1l2.9-0.9l1.3,4.1l2.2-0.7l-1.4-4.3l2.9-0.9l2.5,7.9l-13,4.1l-2.5-7.9
				L8.5,191.8z"/>
			<path class="st0" d="M5.9,178.4c-0.2,0.5-0.4,0.9-0.4,1.4c-0.1,0.4-0.1,0.8,0,1.2c0.1,0.5,0.3,0.9,0.6,1.1
				c0.3,0.3,0.6,0.4,0.9,0.3c0.2,0,0.4-0.2,0.5-0.4s0.2-0.4,0.3-0.7c0.1-0.3,0.1-0.6,0.1-0.9c0-0.3,0-0.7,0.1-1c0.1-1.3,0.4-2.3,1-3
				s1.3-1.2,2.3-1.4c0.7-0.1,1.3-0.2,1.9,0c0.6,0.1,1.2,0.4,1.7,0.8c0.5,0.4,0.9,0.9,1.3,1.6c0.4,0.6,0.6,1.4,0.8,2.3
				c0.4,1.8,0.2,3.6-0.4,5.4l-3.1-1c0.3-0.7,0.6-1.3,0.7-1.9c0.1-0.6,0.1-1.2,0-1.7c-0.1-0.6-0.4-1-0.7-1.3c-0.3-0.2-0.6-0.3-1-0.3
				c-0.2,0-0.4,0.1-0.5,0.2c-0.1,0.1-0.2,0.3-0.3,0.5s-0.2,0.5-0.2,0.8s-0.1,0.7-0.1,1.1c0,0.5-0.1,1-0.2,1.5
				c-0.1,0.5-0.2,1-0.4,1.4s-0.5,0.8-0.9,1.1S9,186,8.3,186.2c-0.7,0.1-1.3,0.1-1.9,0s-1.1-0.4-1.6-0.7s-0.9-0.8-1.2-1.4
				c-0.3-0.6-0.6-1.2-0.8-2c-0.1-0.7-0.2-1.5-0.2-2.3s0.1-1.6,0.3-2.4L5.9,178.4z"/>
			<path class="st0" d="M3.6,165.7l10.6-1.2l0.4,3.8L4,169.5l0.3,3.1l-3,0.3l-1.1-10l3-0.3L3.6,165.7z"/>
			<path class="st0" d="M0.2,140.4l13.7,0.8l-0.2,3.8L0,144.2L0.2,140.4z"/>
			<path class="st0" d="M14.1,136.2L0.6,134l0.6-3.8l9.4-5.6l-8.3-1.3l0.6-3.7l13.5,2.2l-0.6,3.7l-9.4,5.6l8.3,1.3L14.1,136.2z"/>
			<path class="st0" d="M14.7,102.8c-0.9-0.4-1.7-0.9-2.4-1.6c-0.7-0.7-1.1-1.5-1.5-2.4c-0.3-0.9-0.5-1.9-0.4-2.9
				c0-1.1,0.3-2.1,0.7-3.2c0.5-1.1,1-2,1.8-2.8c0.7-0.8,1.5-1.4,2.4-1.8s1.8-0.6,2.8-0.7c1,0,1.9,0.1,2.9,0.5
				c0.9,0.4,1.6,0.9,2.2,1.5s1.1,1.3,1.4,2.1l3.2-1.4L27,93.6l-1.7,0.7c0,0.6-0.1,1.2-0.2,1.9c-0.1,0.6-0.3,1.3-0.6,2
				c-0.5,1.1-1,2-1.8,2.8c-0.7,0.8-1.5,1.4-2.4,1.8s-1.8,0.6-2.8,0.7C16.6,103.4,15.7,103.2,14.7,102.8z M16.3,99.2
				c0.5,0.2,1,0.3,1.5,0.3s1-0.1,1.4-0.4c0.5-0.2,0.9-0.5,1.2-0.9c0.4-0.4,0.7-0.8,0.9-1.4c0.1-0.3,0.2-0.6,0.3-1L18.8,97l1-3.5
				l1.3-0.5c-0.4-0.7-0.9-1.1-1.7-1.5c-0.5-0.2-1-0.3-1.5-0.3s-1,0.1-1.5,0.4c-0.5,0.2-0.9,0.5-1.2,0.9c-0.4,0.4-0.7,0.8-0.9,1.4
				c-0.2,0.5-0.3,1-0.3,1.6c0,0.5,0.1,1,0.2,1.5c0.2,0.5,0.4,0.9,0.8,1.3C15.3,98.7,15.8,98.9,16.3,99.2z"/>
			<path class="st0" d="M19.2,76.9l6.4,3.8c0.3,0.2,0.7,0.4,1.1,0.6s0.8,0.3,1.1,0.3c0.4,0,0.7-0.1,1.1-0.2c0.4-0.2,0.7-0.6,1-1.1
				s0.5-1,0.5-1.4s-0.1-0.8-0.3-1.1c-0.2-0.3-0.5-0.6-0.8-0.8c-0.3-0.2-0.7-0.5-1-0.7l-6.4-3.8l1.9-3.3l6.8,4
				c1.8,1.1,2.9,2.3,3.2,3.7c0.3,1.4-0.1,3-1.2,4.9c-1.1,1.9-2.3,3-3.7,3.4c-1.4,0.4-3,0.1-4.8-1l-6.8-4L19.2,76.9z"/>
			<path class="st0" d="M41.4,64.1l-3.3,4.3l1.4,2.1L37,73.8l-7.5-12.7l2.5-3.3l14.3,3.9l-2.5,3.2L41.4,64.1z M38.7,63.3L34,61.9
				l2.6,4.1L38.7,63.3z"/>
			<path class="st0" d="M41.1,47.3l7.8,7.3l3.1-3.3l2.2,2.1l-5.7,6.1l-10-9.4L41.1,47.3z"/>
			<path class="st0" d="M50.7,38l9.2,10.1l-2.8,2.6l-9.2-10.1L50.7,38z"/>
			<path class="st0" d="M61.6,32.9l6.6,8.4l-3,2.3l-6.6-8.4l-2.5,1.9l-1.9-2.4l7.9-6.2L64,31L61.6,32.9z"/>
			<path class="st0" d="M73.1,29.9l-8.3-3.2l3.9-2.4L73,26l0.3-4.6l3.9-2.4l-0.8,8.9l3.5,5.6l-3.2,2L73.1,29.9z"/>
			<path class="st0" d="M100.8,12.5c0.4-0.1,0.8-0.2,1.2-0.2c0.4,0,0.8,0.1,1.1,0.3c0.3,0.2,0.7,0.4,0.9,0.6
				c0.3,0.3,0.5,0.6,0.6,0.9c0.1,0.4,0.2,0.8,0.2,1.1c0,0.4-0.1,0.7-0.3,1.1c-0.2,0.3-0.4,0.6-0.7,0.9c-0.3,0.3-0.6,0.5-1,0.6
				S102,18,101.6,18s-0.8-0.1-1.1-0.2c-0.3-0.1-0.6-0.4-0.9-0.6c-0.3-0.3-0.5-0.6-0.6-1s-0.2-0.8-0.2-1.1c0-0.4,0.1-0.7,0.3-1.1
				c0.2-0.3,0.4-0.6,0.7-0.9C100.1,12.9,100.4,12.7,100.8,12.5z"/>
			<path class="st0" d="M133.5,3.9L129,4.6l0.3,2.3l4.1-0.6l0.4,3l-4.1,0.6l0.8,5.3l-3.8,0.6l-2-13.5l8.3-1.2L133.5,3.9z"/>
			<path class="st0" d="M147.5,11.3l-5.4,0.2l-0.8,2.4l-4.1,0.2l5-13.9l4.1-0.2l6.2,13.4l-4.1,0.2L147.5,11.3z M146.4,8.6l-1.9-4.5
				L143,8.8L146.4,8.6z"/>
			<path class="st0" d="M160.6,0.2l-0.7,13.7l-3.8-0.2L156.8,0L160.6,0.2z"/>
			<path class="st0" d="M177,15.9l-4.7-0.7l-2.9-5.7l-0.7,5.2l-3.8-0.5l1.9-13.5l5.9,0.8c0.8,0.1,1.5,0.3,2.1,0.6s1,0.7,1.4,1.1
				c0.3,0.4,0.6,0.9,0.7,1.5c0.1,0.5,0.2,1.1,0.1,1.7c-0.1,1-0.5,1.8-1.2,2.4c-0.6,0.6-1.5,0.9-2.5,1L177,15.9z M169.8,7.3l0.7,0.1
				c0.7,0.1,1.3,0,1.8-0.2c0.4-0.2,0.7-0.6,0.8-1.2c0.1-0.5-0.1-1-0.4-1.3c-0.4-0.3-0.9-0.6-1.7-0.7l-0.7-0.1L169.8,7.3z"/>
			<path class="st0" d="M190.9,8.4l-4.4-1.1L186,9.5l4.1,1l-0.7,2.9l-4.1-1l-0.6,2.3l4.4,1.1l-0.7,2.9l-8.1-2l3.3-13.3l8.1,2
				L190.9,8.4z"/>
			<path class="st0" d="M203.8,13.2c-0.3-0.4-0.6-0.8-0.9-1.1c-0.3-0.3-0.7-0.5-1.1-0.6c-0.5-0.2-0.9-0.2-1.2-0.1
				c-0.4,0.1-0.6,0.3-0.7,0.6c-0.1,0.2-0.1,0.4,0,0.6c0.1,0.2,0.2,0.4,0.4,0.6c0.2,0.2,0.4,0.4,0.7,0.6c0.3,0.2,0.5,0.4,0.8,0.6
				c1,0.8,1.7,1.6,2,2.4c0.3,0.8,0.3,1.7,0,2.7c-0.2,0.7-0.6,1.2-1,1.7s-0.9,0.8-1.5,1s-1.3,0.3-2,0.3s-1.5-0.2-2.4-0.5
				c-1.7-0.6-3.2-1.7-4.3-3.2l2.5-2.2c0.4,0.6,0.8,1.2,1.2,1.6s0.9,0.7,1.4,0.9c0.6,0.2,1.1,0.2,1.4,0.1c0.4-0.1,0.6-0.4,0.7-0.7
				c0.1-0.2,0.1-0.4,0.1-0.5c0-0.2-0.1-0.3-0.2-0.5c-0.1-0.2-0.3-0.4-0.5-0.6s-0.5-0.4-0.9-0.7c-0.4-0.3-0.8-0.6-1.2-0.9
				c-0.4-0.3-0.7-0.7-1-1.1c-0.3-0.4-0.4-0.8-0.5-1.3s0-1.1,0.2-1.7c0.2-0.6,0.5-1.2,1-1.6c0.4-0.4,0.9-0.8,1.4-1s1.1-0.3,1.8-0.3
				s1.4,0.1,2.1,0.4c0.7,0.2,1.4,0.6,2,1c0.7,0.4,1.3,1,1.9,1.5L203.8,13.2z"/>
			<path class="st0" d="M215.7,17.8l-4.5,9.7l-3.4-1.6l4.5-9.7l-2.8-1.3l1.3-2.7l9.1,4.3l-1.3,2.7L215.7,17.8z"/>
			<path class="st0" d="M238.9,28.2l-7.8,11.2l-3.1-2.2l7.8-11.2L238.9,28.2z"/>
			<path class="st0" d="M235.3,42.3l9-10.3l2.9,2.5L247,45.4l5.5-6.3l2.9,2.5l-9,10.3l-2.9-2.5l0.2-10.9l-5.5,6.3L235.3,42.3z"/>
			<path class="st0" d="M270.7,58.8l-4.6,7.8l8.8-2.1l2.4,3.3L262.7,71l-1.8-2.4l7.4-13.1L270.7,58.8z"/>
			<path class="st0" d="M273.8,84.2l-2.7-4.7l-2.5,0.4l-2-3.5l14.6-1.9l2.1,3.6l-9.1,11.6l-2-3.5L273.8,84.2z M275.7,82l3.1-3.7
				L274,79L275.7,82z"/>
			<path class="st0" d="M289.5,90.7l-9.8,4.3l1.8,4.2l-2.8,1.2l-3.3-7.7l12.5-5.5L289.5,90.7z"/>
			<path class="st0" d="M294.2,102.8l-7.1,2.2c-0.4,0.1-0.8,0.3-1.2,0.4c-0.4,0.2-0.7,0.4-1,0.6c-0.3,0.3-0.5,0.6-0.6,1
				s0,0.9,0.1,1.5c0.2,0.6,0.4,1,0.7,1.3c0.3,0.3,0.6,0.4,1,0.5s0.8,0,1.2-0.1c0.4-0.1,0.8-0.2,1.2-0.3l7.1-2.2l1.1,3.6l-7.6,2.4
				c-2,0.6-3.7,0.6-4.9-0.1c-1.3-0.7-2.2-2.1-2.9-4.1c-0.7-2.1-0.7-3.7-0.1-5s1.9-2.3,4-2.9l7.6-2.4L294.2,102.8z"/>
			<path class="st0" d="M297,126.4l-0.9-4.4l-2.2,0.4l0.8,4.2l-3,0.6L291,123l-2.3,0.5l0.9,4.4l-3,0.6l-1.6-8.2l13.4-2.7l1.6,8.2
				L297,126.4z"/>
			<path class="st0" d="M298.2,151.5c0,0.4-0.1,0.8-0.2,1.2c-0.2,0.4-0.4,0.7-0.6,0.9c-0.3,0.3-0.6,0.5-0.9,0.6
				c-0.3,0.2-0.7,0.2-1.1,0.2s-0.8-0.1-1.1-0.2c-0.3-0.2-0.6-0.4-0.9-0.6c-0.3-0.3-0.5-0.6-0.6-1s-0.2-0.8-0.2-1.2s0.1-0.8,0.2-1.2
				c0.2-0.4,0.4-0.7,0.6-1c0.3-0.3,0.6-0.5,0.9-0.6c0.3-0.2,0.7-0.2,1.1-0.2s0.8,0.1,1.1,0.2c0.3,0.2,0.6,0.4,0.9,0.6
				c0.3,0.3,0.5,0.6,0.6,1C298.1,150.7,298.2,151.1,298.2,151.5z"/>
			<path class="st0" d="M286.8,184.1l1.2-5.3l-2.1-1.4l0.9-4l12.2,8.4l-0.9,4.1l-14.6,2.5l0.9-4L286.8,184.1z M289.7,183.7l4.8-0.7
				l-4.1-2.7L289.7,183.7z"/>
			<path class="st0" d="M294,199.7l-10.1-3.4l-1.5,4.3l-2.9-1l2.7-7.9l13,4.4L294,199.7z"/>
			<path class="st0" d="M290,210.8l-9.1-1.6l6.6,6.7l-1.3,2.7l-9.3-1.1l6.8,6.1l-1.7,3.6l-10.4-9.9l1.7-3.5l8.4,0.9l-5.9-6.1
				l1.7-3.5l14.2,2.1L290,210.8z"/>
			<path class="st0" d="M265.3,231.5l3-4.5l-1.5-2.1l2.3-3.4l8.2,12.3l-2.3,3.4l-14.5-3.1l2.3-3.4L265.3,231.5z M268.1,232.2
				l4.7,1.1l-2.8-4L268.1,232.2z"/>
			<path class="st0" d="M262.5,242.1l8.9,0.5l-2.9,3.5l-4.6-0.3l1.1,4.5l-2.9,3.5l-2-8.7l-5-4.2l2.4-2.9L262.5,242.1z"/>
			<path class="st0" d="M251.6,259c0.5-0.1,1-0.2,1.4-0.4c0.4-0.2,0.7-0.4,1-0.7c0.3-0.3,0.6-0.7,0.6-1.1c0.1-0.4,0-0.7-0.3-0.9
				c-0.2-0.2-0.4-0.3-0.6-0.3c-0.2,0-0.5,0-0.7,0.1c-0.3,0.1-0.5,0.2-0.8,0.4s-0.6,0.3-0.9,0.5c-1.2,0.6-2.2,0.9-3,0.8
				c-0.9-0.1-1.7-0.5-2.4-1.2c-0.5-0.5-0.8-1-1.1-1.6c-0.2-0.6-0.3-1.2-0.2-1.8s0.3-1.3,0.6-1.9s0.8-1.3,1.5-1.9
				c1.3-1.3,2.9-2.1,4.7-2.5l0.9,3.2c-0.7,0.1-1.4,0.2-1.9,0.4c-0.6,0.2-1,0.5-1.4,0.9s-0.7,0.9-0.7,1.3c0,0.4,0.1,0.7,0.3,1
				c0.1,0.1,0.3,0.2,0.5,0.3s0.4,0.1,0.6,0c0.2,0,0.5-0.1,0.8-0.2c0.3-0.1,0.6-0.3,1-0.5c0.5-0.2,0.9-0.5,1.4-0.7s0.9-0.3,1.4-0.4
				c0.5-0.1,0.9,0,1.4,0.2s0.9,0.5,1.4,1s0.8,1,1,1.6s0.3,1.1,0.3,1.7c0,0.6-0.2,1.2-0.5,1.8c-0.3,0.6-0.7,1.2-1.3,1.7
				c-0.5,0.5-1.1,1-1.8,1.4s-1.4,0.8-2.2,1L251.6,259z"/>
			<path class="st0" d="M223.4,270.6l4.6-2.9l-0.5-2.5l3.4-2.2l2.6,14.5l-3.5,2.2l-12-8.6l3.4-2.2L223.4,270.6z M225.7,272.4
				l3.9,2.9l-1-4.8L225.7,272.4z"/>
			<path class="st0" d="M199.3,287.9l-7.1,2.5c-0.2-0.7-0.4-1.3-0.6-1.9c-0.1-0.6-0.2-1.1-0.2-1.7c0-0.8,0.2-1.5,0.4-2.2
				c0.3-0.7,0.6-1.3,1.1-1.8c0.5-0.6,1-1.1,1.7-1.5c0.6-0.4,1.4-0.8,2.1-1.1c1.1-0.4,2.1-0.6,3.1-0.5c1,0,1.9,0.2,2.8,0.6
				c0.8,0.4,1.6,0.9,2.2,1.6c0.6,0.7,1.2,1.6,1.5,2.6c0.4,1,0.5,2,0.5,2.9c-0.1,1-0.3,1.9-0.7,2.7c-0.4,0.8-1,1.6-1.8,2.2
				s-1.7,1.2-2.8,1.6c-1.4,0.5-2.8,0.7-4.1,0.5s-2.5-0.8-3.5-1.8l2.9-2.5c0.6,0.6,1.2,1,1.8,1.1s1.2,0.1,1.9-0.1
				c0.5-0.2,1-0.5,1.4-0.8s0.7-0.7,0.8-1.2c0.2-0.5,0.3-1,0.3-1.5c0-0.6-0.1-1.1-0.3-1.7c-0.2-0.5-0.4-1-0.8-1.4
				c-0.3-0.4-0.7-0.7-1.1-1c-0.4-0.2-0.9-0.4-1.4-0.4s-1.1,0.1-1.7,0.3c-0.4,0.1-0.7,0.3-1,0.5s-0.6,0.4-0.8,0.7
				c-0.2,0.3-0.3,0.5-0.4,0.9c-0.1,0.3-0.1,0.7,0,1.1l2.9-1L199.3,287.9z"/>
			<path class="st0" d="M187.4,290.9c0.2,1,0.2,2,0,2.9s-0.6,1.8-1.2,2.6c-0.6,0.8-1.3,1.4-2.2,2s-1.9,1-3.1,1.2
				c-1.2,0.2-2.3,0.3-3.3,0.1c-1-0.2-2-0.5-2.8-1s-1.5-1.1-2.1-1.9s-0.9-1.7-1.1-2.7c-0.2-1-0.2-2,0-2.9s0.6-1.8,1.2-2.6
				c0.6-0.8,1.3-1.5,2.2-2c0.9-0.6,1.9-1,3.1-1.2c1.2-0.2,2.3-0.3,3.3-0.1c1,0.2,2,0.5,2.8,1s1.5,1.1,2.1,1.9
				C186.9,289,187.2,289.9,187.4,290.9z M183.5,291.6c-0.1-0.5-0.3-1-0.6-1.4s-0.7-0.7-1.1-1c-0.4-0.3-0.9-0.4-1.4-0.5
				s-1.1-0.1-1.6,0s-1,0.3-1.5,0.6c-0.5,0.3-0.8,0.6-1.1,1s-0.5,0.9-0.6,1.4s-0.1,1,0,1.5s0.3,1,0.6,1.4s0.7,0.7,1.1,1
				c0.4,0.3,0.9,0.4,1.4,0.5s1.1,0.1,1.6,0s1-0.3,1.5-0.6c0.5-0.3,0.8-0.6,1.1-1s0.5-0.9,0.6-1.4
				C183.6,292.7,183.6,292.2,183.5,291.6z"/>
			<path class="st0" d="M167.6,294.6c0.1,1-0.1,2-0.4,2.9c-0.3,0.9-0.9,1.7-1.5,2.4c-0.7,0.7-1.5,1.3-2.5,1.7c-1,0.4-2,0.7-3.2,0.7
				c-1.2,0.1-2.3-0.1-3.3-0.4s-1.9-0.8-2.7-1.4s-1.4-1.3-1.8-2.2c-0.5-0.9-0.7-1.8-0.8-2.8s0.1-2,0.4-2.9c0.3-0.9,0.9-1.7,1.5-2.4
				c0.7-0.7,1.5-1.3,2.5-1.7c1-0.4,2-0.7,3.2-0.7c1.2-0.1,2.3,0,3.3,0.4c1,0.3,1.9,0.8,2.6,1.4c0.7,0.6,1.3,1.3,1.8,2.2
				C167.3,292.6,167.5,293.5,167.6,294.6z M163.6,294.8c0-0.5-0.2-1-0.4-1.5c-0.2-0.4-0.6-0.8-1-1.1c-0.4-0.3-0.8-0.6-1.4-0.7
				c-0.5-0.2-1-0.2-1.6-0.2s-1.1,0.2-1.6,0.4c-0.5,0.2-0.9,0.5-1.3,0.9c-0.4,0.4-0.6,0.8-0.8,1.3s-0.3,1-0.2,1.5
				c0,0.5,0.2,1,0.4,1.5c0.2,0.4,0.6,0.8,1,1.1c0.4,0.3,0.9,0.6,1.4,0.7c0.5,0.2,1,0.2,1.6,0.2s1.1-0.2,1.6-0.4
				c0.5-0.2,0.9-0.5,1.3-0.9c0.4-0.4,0.6-0.8,0.8-1.2C163.6,295.8,163.7,295.3,163.6,294.8z"/>
			<path class="st0" d="M146.1,302.2l-5.6-0.4c-1-0.1-1.9-0.3-2.8-0.8c-0.8-0.4-1.6-1-2.2-1.7c-0.6-0.7-1.1-1.4-1.4-2.3
				c-0.3-0.9-0.4-1.7-0.4-2.6c0.1-0.9,0.3-1.7,0.7-2.5s1-1.5,1.7-2.1s1.5-1,2.4-1.3s1.9-0.4,2.9-0.4l5.6,0.4L146.1,302.2z
				 M143.1,291.3l-0.9-0.1c-0.7,0-1.3,0-1.8,0.2s-1,0.4-1.4,0.7c-0.4,0.3-0.7,0.7-0.9,1.1c-0.2,0.5-0.3,1-0.4,1.5
				c0,0.5,0,1.1,0.2,1.5c0.2,0.5,0.4,0.9,0.7,1.3s0.7,0.7,1.2,0.9c0.5,0.2,1.1,0.4,1.7,0.4l0.9,0.1L143.1,291.3z"/>
			<path class="st0" d="M109.4,293.2l2.8-10.3l3.7,1l-2.8,10.3l3,0.8l-0.8,2.9l-9.7-2.7l0.8-2.9L109.4,293.2z"/>
			<path class="st0" d="M97.5,292.4l4.7-12.9l3.6,1.3l-4.7,12.9L97.5,292.4z"/>
			<path class="st0" d="M98,278.2l-8.3,11.1l-3.4-1.7l0.6-7.8L81,285l-3.4-1.7l3.9-13.4l3.4,1.7l-2.4,7.6l6.6-5.5l1.4,0.7L90,283
				l4.6-6.5L98,278.2z"/>
			<path class="st0" d="M65.5,272.1l3.8,2.5l1.3-1.9l-3.6-2.4l1.7-2.5l3.6,2.4l1.3-2l-3.8-2.5l1.7-2.5l6.9,4.6l-7.6,11.4l-6.9-4.6
				L65.5,272.1z"/>
			<path class="st0" d="M48.9,257.2c-0.3-0.3-0.5-0.6-0.7-1s-0.2-0.7-0.2-1.1c0-0.4,0-0.7,0.2-1.1c0.1-0.4,0.3-0.7,0.6-0.9
				c0.3-0.3,0.6-0.5,0.9-0.6c0.4-0.1,0.7-0.2,1.1-0.2c0.4,0,0.7,0.1,1.1,0.2c0.4,0.1,0.7,0.4,1,0.7s0.5,0.6,0.7,1s0.2,0.7,0.3,1.1
				c0,0.4,0,0.7-0.2,1.1c-0.1,0.4-0.3,0.7-0.6,1s-0.6,0.5-0.9,0.6c-0.4,0.1-0.7,0.2-1.1,0.2c-0.4,0-0.8-0.1-1.1-0.2
				C49.5,257.7,49.2,257.5,48.9,257.2z"/>
		</g>
		<path class="st0" d="M156.3,143.9c-0.6-0.7-1.3-1.4-2-2.1c-1.7,2-3.4,4-5.1,6c0.7,0.7,1.4,1.4,2.1,2
			C152.9,147.8,154.6,145.8,156.3,143.9z M144.3,142.7c0.7,0.7,1.3,1.5,2,2.1c1.7-2,3.4-4,5-5.9c-0.7-0.7-1.4-1.3-2.1-2
			C147.6,138.8,145.9,140.7,144.3,142.7z M131.5,168.4c-7.7,9-13.8,16.1-14.6,17.1c-0.6,0.7-0.8,0.9-2-0.2c-1.4-1.3-1.1-1.7-0.7-2.2
			c1-1.2,9.6-11.4,19.8-23.6c-0.7-0.7-1.4-1.4-2.1-2.1c-7,8.2-13.1,15.6-16.7,19.9c-5.8-4.4-10.5-5.5-13.4-3
			c-0.2,0.1-0.4,0.2-0.5,0.4l-0.4,0.5c-10,12.2-22.4,27.3-33.4,41.1l-0.1,0.2c-2,2.4-2.4,3.1-2.4,3.8c-0.3,2.3-1,8.5,5.4,14.5
			c4.4,4.1,9.3,5.8,13.3,5.8c1.6,0,3.1-0.3,4.3-0.9c1.5-0.7,3.2-2.8,3.4-3L125,198l0.1-0.1c0.1-0.1,0.2-0.2,0.3-0.3
			c4.3-4.5-0.1-10.1-3.3-13.8c2.6-3.1,6.7-7.8,11.6-13.6c1.6-1.9,3.4-3.9,5.2-6c-0.7-0.7-1.4-1.4-2-2
			C135,164.3,133.2,166.4,131.5,168.4z M89.1,234.6c-0.5,0.6-1.8,1.9-2.5,2.3c-2.5,1.3-8.7,0.7-14.2-4.5c-5.2-4.9-4.8-9.7-4.5-11.9
			c0.1-0.2,0.5-0.9,1.8-2.4l0.2-0.2c7.9-9.9,16.5-20.4,24.4-30.1c0.8,3.2,3.1,6.7,6.5,10.2c5,5,9.3,7.4,13.7,7.6L89.1,234.6z
			 M117.1,202.6c-4.6,0.8-8.9-1.2-14.3-6.6c-4.1-4.1-6.2-8.2-6.1-11.3c1.2-1.5,2.4-2.9,3.6-4.3c0.8,3.5,3.4,7.7,7.5,11.5
			c3.9,3.6,8.7,6.6,12.6,7.1L117.1,202.6z M123.3,195.6c-1.5,1.6-7.3,0.1-13.6-5.8c-5.6-5.3-8-11.4-6.4-13.2c1.9-2.1,6.2,0,10,2.8
			c-0.7,0.9-1.3,1.5-1.5,1.8c-0.9,1.2-2,3.5,1,6.2c0.5,0.5,1.7,1.5,3.1,1.5c0.9,0,1.9-0.4,2.9-1.5c0.2-0.2,0.6-0.7,1.2-1.3
			C124.4,191.1,125.2,193.6,123.3,195.6z M172.1,114.5c0.2-0.2,0.3-0.4,0.4-0.7c0.2-1,0.4-1.9,0.7-2.9c3.2-10.1,5-10.9,5.8-13.8
			c0.9-3.4,5-5.3,6.6-5.6c1.6-0.3-3.8,5-4.4,7.2c-0.7,2.2-1.8,7.5-3.3,9.7c-1.6,2.2,1.4,2.1,4.6,0c1.8-1.2,4.3-1.8,6.8-1.9l2,0.4
			c-0.4,0.2-0.8,0.5-1.1,0.8c-2,2.4-7.3,6.1-13.3,8.4c-0.2,0.1-0.4,0.2-0.6,0.4c-1.7,1.9-5.2,5.9-9.7,11.1c0.2,0.2,0.4,0.5,0.6,0.7
			l0.2,0.2c0.4,0.4,0.8,0.8,1.2,1.3c4.4-5.1,7.8-9,9.6-11c6.4-2.4,12-6.4,14.2-9.1c0.4-0.4,2.7-0.8,4.7-1c0.4,0,0.7-0.2,1-0.5
			l0.1-0.1c0.1-0.1,0.3-0.2,0.4-0.4l19.3-21.8c0.2-0.3,0.4-0.6,0.4-1L217.7,67v-0.1c0-0.1-0.1-0.2-0.1-0.3c0-0.1,0-0.1-0.1-0.2
			s-0.1-0.2-0.2-0.3c0-0.1-0.1-0.1-0.1-0.2l0,0l0,0c-0.1-0.1-0.2-0.1-0.2-0.1c-0.1-0.1-0.2-0.1-0.2-0.1c-0.1,0-0.2,0-0.4,0
			c-0.1,0-0.1,0-0.2,0l-18.9,2c-0.4,0-0.7,0.2-1,0.5l-19.2,23.3c-0.2,0.3-0.3,0.7-0.3,1c-0.1,0.8-1,3.7-2.3,6.6
			c-2.4,5.2-3.9,9.4-4.8,13.8c-1.1,1.2-4.1,4.7-8.1,9.5c0.7,0.7,1.3,1.4,2,2.1C168.1,119.1,171.3,115.3,172.1,114.5z M215.2,83
			l-8.6-2.4c2.1-2.4,5.7-6.6,8.3-9.7L215.2,83z M212.9,68.8c-2.7,3.2-6.6,7.7-8.6,10l-2.2-3.9l-2.5-4.7L212.9,68.8z M204.5,83
			l9.5,2.7l-17.3,19.6l-9.3-2.1C190.5,99.5,197.6,91.2,204.5,83z M65.7,78.7c3.6,29.6,21.3,41,37.3,45.2c0.4,0.1,0.8,0.2,1.1,0.3
			c-0.5-1.2-0.9-2.2-1.1-2.9c-0.6-2.3-1-4.3-1.4-5.9c-0.8-3.8-1.5-7.1-3.1-9.2c-0.5-0.6-4.3-4.4-7.6-7.9l-1.8-1.8
			C85.8,93,82,89.2,78.9,86l-0.4-0.5c-2.1-2.2-4.4-4.7-5.6-5.9c-1.7-2-2.9-3.6-3.9-5.3c-0.7-1.1-1.2-2.2-1.6-3.2
			c-0.2,0-0.5,0.1-0.7,0.2c-0.1,0-0.1,0.1-0.2,0.1c-1.1,0.8-1.4,2.8-0.9,6.4L65.7,78.7z M243.6,166.9c-6.3-7.5-15.6-15.2-27.4-15.2
			c-3.9,0-8,0.8-12.4,2.8c-2.2,1-4.3,1.4-6.3,1.4c-7.2,0-12.9-5.9-18.9-12c-1.6-1.6-3.2-3.3-4.8-4.8c-1.7-1.6-4.2-4.2-7.1-7.3
			c-0.4-0.5-0.9-1-1.4-1.5c-0.2-0.2-0.4-0.4-0.6-0.7c-1-1-1.9-2.1-3-3.1c-0.6-0.7-1.3-1.4-2-2.1c-4.4-4.7-9.2-9.5-13.5-13.3
			c-3.8-3.3-7.5-5.5-11-7.1c0.2,2.5,0.1,4.9-0.3,7.1c-0.1,0.6-0.3,1.3-0.5,2.1c-0.6,2.4-1.3,5.6-1.2,9.7c1.1,0.2,2.3,0.6,3.9,1.2
			c2.3,0.9,8,5.2,13.8,10.5c0.7,0.6,1.4,1.3,2.1,2c1,1,2,1.9,3,2.9c0.7,0.7,1.4,1.4,2,2.1c4,4.2,7.3,8.5,8.6,11.7
			c0.3,0.6,0.4,1.2,0.5,1.7c0.1,1.1-0.2,1.9-1.6,3.5c-0.6,0.7-1.6,2-3.8,1.9c-2.2,0-7-3.4-12.4-8.6c-0.7-0.6-1.4-1.3-2.1-2
			c-0.9-0.9-1.9-1.9-2.9-2.9c-0.7-0.7-1.3-1.4-2-2.1c-0.6-0.7-1.2-1.3-1.8-2c-0.5-0.6-1-1.1-1.6-1.7c-4-4.4-8.4-9.3-9.2-13.9
			c-0.2-1.5-0.4-2.9-0.4-4.1c-0.2-4.6,0.7-8.1,1.3-10.5c0.2-0.7,0.3-1.4,0.4-1.9c0.4-2.4,0.4-5.1,0-7.9
			c-2.2-14.4-15.9-33.1-40.1-39.5c-1.5-0.4-3.6-0.6-6-0.6c-5.5,0-12.1,1.1-14.5,3.2c-1.1,1-1.2,2-1,2.7c0.3,1.5,0.9,3,1.8,4.4
			c1,1.7,2.3,3.4,3.6,4.8c1.1,1.3,3.9,4.1,5.9,6.3c3.1,3.2,6.9,7,10.3,10.5c4.5,4.6,9.2,9.4,9.6,9.9c2,2.6,2.8,6.2,3.7,10.4
			c0.4,1.8,0.8,3.7,1.3,5.7c0.2,0.8,0.7,2.1,1.6,3.9c0.1,0.1,0.1,0.3,0.2,0.4c1.4,2.7,4.8,8.6,10.9,14.9c1,1.1,4.5,4.5,8.8,8.9
			l6.4,6.4c0.7,0.7,1.4,1.4,2,2.1c0.9,0.9,1.9,1.9,2.8,2.8c0.7,0.7,1.4,1.4,2,2.1c9.5,9.5,18.6,18.9,19.8,20.6c2,3.1,1.3,4-0.9,6.8
			c-2.4,3.1-9.7,14.1-3.8,27.4c4.3,9.7,19.4,28.7,34.3,32.3c1.6,0.4,3.2,0.6,4.7,0.6c3.9,0,7.5-1.3,10.6-3.9
			c4.7-3.9,13.6-15.2-3.8-37.2c-3.5-4.4-7.9-9-12.2-13.5c-5.8-6.1-11.2-12.8-15.1-17.7c-3.1-3.9-1.3-7.8,0.3-9.1
			c1.2-0.9,2.3-1.3,3.4-1.3c3.2,0,6.1,3.2,8.6,6.6l0.7,1c16.7,23.8,31.8,36.3,44.8,37.1c0.4,0,0.9,0,1.3,0c6,0,11.5-2.7,16.3-7.9
			C258.5,193.9,251.4,176.3,243.6,166.9z M117.9,114.5c-0.1,0.1-0.3,0.3-0.5,0.4c-0.6,0.3-1.3,0.6-2,0.6c-0.5,0-1-0.1-1.4-0.3
			c-0.4-0.2-0.8-0.4-1.1-0.7c-0.7-0.6-1-1.5-1-2.4c0-0.4,0.1-0.9,0.3-1.3c0.2-0.4,0.5-0.9,0.9-1.2l0,0c0.4-0.3,0.8-0.5,1.3-0.7l0,0
			c0.2-0.1,0.3-0.1,0.5-0.1c0.1,0,0.1,0,0.2,0h0.3c0.3,0,0.5,0,0.7,0.1c0.3,0.1,0.5,0.1,0.7,0.2s0.4,0.2,0.6,0.3
			c0.1,0.1,0.2,0.1,0.3,0.2c0.2,0.2,0.4,0.4,0.6,0.6c0.4,0.5,0.6,1.2,0.6,1.9C119,113,118.6,113.9,117.9,114.5z M183.7,204.8
			c0.5,0.6,0.9,1.1,1.2,1.4c15.6,17.6,16.7,22.7,13.1,27.1c-1.3,1.6-3.2,2.5-5.4,2.6h-0.2c-5.1,0-11.4-3.8-17.9-10.8
			c-7.1-7.6-10.8-16.4-9.6-22.4c0.5-2.6,1.9-4.4,4.1-5.4c1.1-0.5,2.1-0.7,3.1-0.7C177.1,196.5,181.3,201.7,183.7,204.8z
			 M241.2,195.3c-2.2,2.8-4.6,4.3-7.3,4.5c-0.2,0-0.4,0-0.7,0c-4.3,0-9.5-2.9-16.2-9.2c-8.8-8.1-12.7-13.8-12.7-18.2
			c0-2.1,0.9-4,2.7-5.7c2.4-2.3,5.7-3.5,9.3-3.5c4,0,8.4,1.5,12,4.4C238.6,176.1,246.3,188.8,241.2,195.3z"/>
	</g>
</g>
</svg>
