<?xml version="1.0" encoding="utf-8"?>
<!-- Generator: Adobe Illustrator 24.0.3, SVG Export Plug-In . SVG Version: 6.00 Build 0)  -->
<svg version="1.1" id="Layer_1" xmlns="http://www.w3.org/2000/svg" xmlns:xlink="http://www.w3.org/1999/xlink" x="0px" y="0px"
	 viewBox="0 0 945.4 227.6" style="enable-background:new 0 0 945.4 227.6;" xml:space="preserve">
<style type="text/css">
	.st0{fill:#2F456B;}
</style>
<g>
	<path class="st0" d="M766.5,53.4h39.8v-51h-39.8V53.4z M287.4,3.5c-14.5,0-40.6-0.4-40.6-0.4c0.2,4.5,0.2,8.7,0,13.4h6.8
		c7.7,0,10.4,3.6,11.1,11.9c0.6,9.6,0.6,87.6,0,97.6c-0.6,7.2-2.1,8.9-11.1,8.9h-6.8c0.2,4.7,0.2,11,0,15.6c0,0,26-0.6,40.4-0.6
		c14.7,0,40.4,0.6,40.4,0.6c-0.2-4.7-0.2-11,0-15.6H321c-8.3,0-10.6-1.7-11.1-8.9c-0.6-10-0.9-88,0-97.6c0.6-8.3,3.4-11.9,11.1-11.9
		h6.8c-0.2-4.7-0.2-8.9,0-13.4C326.7,3.1,301.9,3.5,287.4,3.5z M581.7,113.5c-3.3,18.3-11.2,21.4-24,21.4h-8.1
		c-11.2,0-13.2-1.6-13.2-12.1c0-13-0.6-81.9,0-92.9c0.6-9.8,4.9-13.4,13.6-13.4h6.4c-0.2-4.7-0.2-8.7,0.2-13.3
		c-1.5,0-26.4,0.4-41.3,0.4c-15.1,0-41.7-0.4-41.7-0.4c0.2,4.5,0.2,8.7,0,13.3h6.8c7.7,0,10.4,5.1,11.1,13.4c0.6,9.6,0.6,78.9,0,91
		c-0.4,9.4-1.7,14-11.5,14h-7c0.2,4.7,0.2,10.7,0,15.2c11.1-0.2,28.5-0.2,37.4-0.2h48.9c10.6,0,27.2,0,41.9,0.9
		c-0.1-10.1-0.1-24.2,0.1-37.2L581.7,113.5L581.7,113.5z M445.9,113.5c-3.3,18.3-11.2,21.4-24,21.4h-8.1c-11.2,0-13.2-1.6-13.2-12.1
		c0-13-0.6-81.9,0-92.9c0.6-9.8,4.9-13.4,13.6-13.4h6.4c-0.2-4.7-0.2-8.7,0.2-13.3c-1.5,0-26.4,0.4-41.3,0.4
		c-15.1,0-40.5-0.4-40.5-0.4c0.2,4.5,0.2,8.7,0,13.3h5.6c9.1-0.6,11.3,4,11.5,13.1c0.2,9.8-0.2,77.6-0.3,91.4
		c-0.1,8.7,1.1,14.5-11.6,14h-4.6c0.2,4.7,0.2,10.7,0,15.2c11.1-0.2,26.1-0.2,35-0.2h48.9c10.6,0,27.2,0,41.9,0.9
		c-0.1-10.1-0.1-24.2,0.1-37.2h-19.6V113.5z M700.4,3.5h-46c-12.6,0-39.4-0.4-42.8-0.4c0.2,4.5,0.2,8.7,0,13.4h5.9
		c8.1,0,12.1,3.8,12.8,14.5c0.6,12.1,0.4,79-0.2,89.7c-0.6,9.4-3.4,14-13.2,14h-5.3c0.2,4.7,0.2,11.2,0,15.7
		c2.3,0,28.1-0.4,42.5-0.4h47.1c11.7,0,32.1,0.2,45,1.1c0-15.2-0.5-31.5,0.5-45.8l-20.1-0.3c-1.4,21.4-9,27.1-25.9,27.1h-11.8
		c-11.6,0-13.4-0.8-13.4-13.4c0-5.1-0.4-25.1-0.4-35.3h4.7c13.5,0,17.2,5.2,17.4,19.2h17.1c-0.6-7.5-0.9-13.8-0.9-26.3
		c0-12.4,0.4-17.8,1-25.7h-17.6c0,13.4-3.6,18.5-16.8,18.5h-4.9c0-12.1,0.3-30.9,0.4-37c0.2-12.8,2.6-12.8,13.2-12.8h12
		c14.3,0,23.9,3.4,25.3,25.7h20.1c0-13.9,0.4-29.4,1.3-42.9C737.6,3.3,709.5,3.5,700.4,3.5z M885.6,53.2
		c-27.2-2.5-36.5-6.3-36.5-17.5c0-9.5,8.4-17.1,29.8-17.1c22,0,36.7,8.9,43.1,29.1c2.1-0.2,13.1,0,15.2,0
		c-1.1-12.9-0.4-33.1,1.9-45.2c-1.7,0.2-13.5,0.2-15.2,0c-1.3,6.8-2.5,10.6-12.7,5.5c-6.5-3.4-17.9-8-35.7-8
		c-37.6,0-55.7,22-55.7,49.6c0,27.2,17.5,43.3,55.9,46.7c29.1,3,41.2,7.4,41.2,19.8c0,11.8-11,18.8-31.9,18.8
		c-28.3,0-45.6-11-52.4-33.6c-2.1,0.2-13.3,0.2-15.4,0c0.8,13.9,0,34.8-1.9,49.4c1.9-0.2,14.1-0.2,16,0c1.1-7.6,4.2-12.5,12.9-7.6
		c11.6,6.3,23,10.1,41.2,10.1c38,0,60-18.2,60-50.5C945.4,70.1,923.6,56.8,885.6,53.2z M148.2,2.3v13.4h5.1
		c8.5-0.1,13.5,0.7,11.9,11.3c-1.8,12.2-14.3,62.8-19.1,79.2c-0.1,0.3-0.2,0.6-0.2,0.9C141.8,93.4,119.4,2.6,119.4,2.6
		c-4.6,0-6.1,0.2-17.2,0.2c-9.1,0-11-0.1-15-0.1c0,0-20.1,86.9-24.6,102.2c-4.2-15-20.5-78-20.5-78.1c-1.8-9.2,1.9-11.4,12.4-11.1h4
		c-0.1-1.8-0.1-4.9-0.2-8.3l0,0c0-2.1,0.1-4,0.1-5.1c0,0-18.1,0.4-29,0.4C18.9,2.7,3.2,2.3,0,2.3c0.1,1.2,0.1,3,0.1,5.1l0,0
		c0,3.4-0.1,6.5-0.1,8.3h4.9c10.2,0,13.7,1.5,18.1,14.9l2.9,9.3c2,6.4,17.1,61.1,23.9,85c2,7-3.2,8.6-9.2,8.6
		c-3.1,0-8.7-0.2-8.7-0.2c0.2,4.7,0.3,11.9,0.1,17.1c0,0,25.9-0.3,36.7-0.3c9.8,0,21.4,0.1,31.2,0.3c1.7-7.2,13.4-54.8,18.5-73.3
		c5.3,18.5,16.7,66,18.4,73.3c28.8-0.4,68.7,0.3,68.7,0.3c-0.2-4.7-0.1-11.8,0.1-16.5l-7.8,0.1c-5.3,0.2-11.3-1-9-10.2
		c9-35.9,22.6-84.9,26.1-97.9c2.5-9.5,6.6-10.5,14.8-10.5h5.8V2.3c0,0-27.9,0.4-43.8,0.4C176,2.7,151.1,2.3,148.2,2.3z"/>
	<g>
		<path class="st0" d="M8.8,226.7H0.1v-31.2h13.8c3.7,0,6.6,0.9,8.6,2.7s3,4.4,3,7.7s-1,5.9-3,7.7s-4.9,2.7-8.6,2.7H8.8V226.7z
			 M8.8,209.8h2.9c3.2,0,4.8-1.3,4.8-3.9c0-2.6-1.6-3.9-4.8-3.9H8.8V209.8z"/>
		<path class="st0" d="M44.9,195.5v17c0,0.9,0,1.8,0.1,2.8s0.3,1.8,0.7,2.6s1,1.4,1.7,1.9c0.8,0.5,1.9,0.7,3.4,0.7
			c1.4,0,2.6-0.2,3.3-0.7c0.8-0.5,1.4-1.1,1.7-1.9c0.4-0.8,0.6-1.6,0.7-2.6c0.1-1,0.1-1.9,0.1-2.8v-17h8.6v18.1
			c0,4.9-1.2,8.4-3.6,10.6c-2.4,2.2-6,3.3-10.9,3.3s-8.6-1.1-11-3.3s-3.6-5.8-3.6-10.6v-18.1H44.9z"/>
		<path class="st0" d="M106.1,226.7H95.3l-8.3-12v12h-8.7v-31.2h13.5c1.9,0,3.5,0.3,4.9,0.8s2.5,1.2,3.4,2.1c0.9,0.9,1.6,1.9,2,3.1
			c0.5,1.2,0.7,2.4,0.7,3.7c0,2.4-0.6,4.3-1.8,5.8c-1.2,1.5-3,2.5-5.4,3L106.1,226.7z M87,209.5h1.6c1.7,0,3-0.3,3.9-1
			s1.4-1.6,1.4-2.9s-0.5-2.2-1.4-2.9s-2.2-1-3.9-1H87V209.5z"/>
		<path class="st0" d="M120.5,195.5l8,19l8.1-19h9.4l-14,31.2h-6.9l-14-31.2H120.5z"/>
		<path class="st0" d="M174.6,202.4h-10.3v5.2h9.7v6.9h-9.7v5.4h10.3v6.9h-19v-31.2h19V202.4z"/>
		<path class="st0" d="M195,211.7l-12.2-16.2h10.3l6.2,8.5l6.1-8.5h10.3l-12.2,16.2v15H195V211.7z"/>
		<path class="st0" d="M221.1,211.1c0-2.3,0.5-4.5,1.4-6.5s2.2-3.7,3.8-5.2s3.6-2.7,5.8-3.5c2.3-0.8,4.7-1.3,7.5-1.3
			c2.7,0,5.2,0.4,7.4,1.3c2.3,0.8,4.2,2,5.9,3.5c1.6,1.5,2.9,3.2,3.8,5.2s1.4,4.2,1.4,6.5s-0.5,4.5-1.4,6.5s-2.2,3.7-3.8,5.2
			s-3.6,2.7-5.9,3.5c-2.3,0.8-4.7,1.3-7.4,1.3s-5.2-0.4-7.5-1.3c-2.3-0.8-4.2-2-5.8-3.5s-2.9-3.2-3.8-5.2
			C221.6,215.6,221.1,213.4,221.1,211.1z M230.2,211.1c0,1.2,0.3,2.4,0.8,3.4s1.2,2,2,2.7c0.9,0.8,1.9,1.4,3,1.8s2.3,0.6,3.6,0.6
			s2.5-0.2,3.6-0.6c1.1-0.4,2.1-1,3-1.8s1.6-1.7,2.1-2.7s0.8-2.2,0.8-3.4s-0.3-2.4-0.8-3.4s-1.2-2-2.1-2.7c-0.9-0.8-1.9-1.4-3-1.8
			c-1.1-0.4-2.3-0.6-3.6-0.6s-2.5,0.2-3.6,0.6c-1.1,0.4-2.1,1-3,1.8s-1.5,1.7-2,2.7C230.4,208.7,230.2,209.9,230.2,211.1z"/>
		<path class="st0" d="M297.4,226.7h-10.8l-8.3-12v12h-8.7v-31.2h13.5c1.9,0,3.5,0.3,4.9,0.8s2.5,1.2,3.4,2.1c0.9,0.9,1.6,1.9,2,3.1
			s0.7,2.4,0.7,3.7c0,2.4-0.6,4.3-1.8,5.8c-1.2,1.5-3,2.5-5.4,3L297.4,226.7z M278.3,209.5h1.6c1.7,0,3-0.3,3.9-1s1.4-1.6,1.4-2.9
			s-0.5-2.2-1.4-2.9s-2.2-1-3.9-1h-1.6V209.5z"/>
		<path class="st0" d="M380.2,211.1c0-2.3,0.5-4.5,1.4-6.5s2.2-3.7,3.8-5.2c1.6-1.5,3.6-2.7,5.8-3.5c2.3-0.8,4.7-1.3,7.5-1.3
			c2.7,0,5.2,0.4,7.4,1.3c2.3,0.8,4.2,2,5.9,3.5c1.6,1.5,2.9,3.2,3.8,5.2s1.4,4.2,1.4,6.5s-0.5,4.5-1.4,6.5s-2.2,3.7-3.8,5.2
			c-1.6,1.5-3.6,2.7-5.9,3.5s-4.7,1.3-7.4,1.3c-2.7,0-5.2-0.4-7.5-1.3c-2.3-0.8-4.2-2-5.8-3.5c-1.6-1.5-2.9-3.2-3.8-5.2
			S380.2,213.4,380.2,211.1z M389.3,211.1c0,1.2,0.3,2.4,0.8,3.4s1.2,2,2,2.7c0.9,0.8,1.9,1.4,3,1.8c1.1,0.4,2.3,0.6,3.6,0.6
			s2.5-0.2,3.6-0.6c1.1-0.4,2.1-1,3-1.8s1.6-1.7,2.1-2.7s0.8-2.2,0.8-3.4s-0.3-2.4-0.8-3.4s-1.2-2-2.1-2.7c-0.9-0.8-1.9-1.4-3-1.8
			c-1.1-0.4-2.3-0.6-3.6-0.6s-2.5,0.2-3.6,0.6c-1.1,0.4-2.1,1-3,1.8s-1.5,1.7-2,2.7C389.5,208.7,389.3,209.9,389.3,211.1z"/>
		<path class="st0" d="M447.8,202.4h-10.4v5.2h9.5v6.9h-9.5v12.2h-8.7v-31.2h19.1V202.4z"/>
		<path class="st0" d="M552.8,202.4h-10.4v5.2h9.5v6.9h-9.5v12.2h-8.7v-31.2h19.1L552.8,202.4L552.8,202.4z"/>
		<path class="st0" d="M572.8,195.5v31.2h-8.7v-31.2H572.8z"/>
		<path class="st0" d="M585.8,226.7v-31.2h8.7l16,19.1v-19.1h8.6v31.2h-8.6l-16-19.1v19.1H585.8z"/>
		<path class="st0" d="M651.2,202.4h-10.3v5.2h9.7v6.9h-9.7v5.4h10.3v6.9h-19v-31.2h19V202.4z"/>
		<path class="st0" d="M756.5,203.5c-0.9-0.7-1.9-1.2-2.8-1.6c-0.9-0.3-1.9-0.5-2.7-0.5c-1.1,0-2,0.2-2.7,0.7s-1.1,1.1-1.1,1.9
			c0,0.6,0.2,1,0.5,1.4c0.4,0.4,0.8,0.7,1.4,0.9c0.6,0.3,1.2,0.5,1.9,0.7s1.4,0.4,2.1,0.6c2.8,0.9,4.9,2.1,6.2,3.5
			c1.3,1.5,2,3.4,2,5.8c0,1.6-0.3,3-0.9,4.3c-0.6,1.3-1.4,2.4-2.5,3.3c-1.1,0.9-2.5,1.6-4.1,2.1s-3.4,0.8-5.5,0.8
			c-4.2,0-8.1-1.2-11.7-3.5l3.7-6.5c1.3,1.1,2.6,1.9,3.8,2.4c1.3,0.5,2.5,0.8,3.8,0.8c1.4,0,2.5-0.3,3.2-0.9c0.7-0.6,1-1.3,1-2.1
			c0-0.5-0.1-0.9-0.3-1.2s-0.5-0.7-0.9-1s-1-0.6-1.6-0.8c-0.7-0.2-1.5-0.5-2.4-0.8c-1.1-0.3-2.2-0.7-3.3-1.1c-1.1-0.4-2-0.9-2.9-1.6
			c-0.8-0.7-1.5-1.5-2-2.5s-0.8-2.3-0.8-3.8s0.3-2.9,0.8-4.2s1.3-2.3,2.3-3.2s2.2-1.6,3.6-2.1c1.4-0.5,3-0.7,4.8-0.7
			c1.6,0,3.4,0.2,5.2,0.6c1.8,0.4,3.5,1.1,5.2,1.9L756.5,203.5z"/>
		<path class="st0" d="M781.5,226.7h-8.7v-31.2h13.8c3.7,0,6.6,0.9,8.6,2.7s3,4.4,3,7.7s-1,5.9-3,7.7s-4.9,2.7-8.6,2.7h-5.1V226.7z
			 M781.5,209.8h2.9c3.2,0,4.8-1.3,4.8-3.9c0-2.6-1.6-3.9-4.8-3.9h-2.9V209.8z"/>
		<path class="st0" d="M817.6,195.5v31.2h-8.7v-31.2H817.6z"/>
		<path class="st0" d="M858.4,226.7h-10.8l-8.3-12v12h-8.7v-31.2h13.5c1.9,0,3.5,0.3,4.9,0.8s2.5,1.2,3.4,2.1c0.9,0.9,1.6,1.9,2,3.1
			c0.5,1.2,0.7,2.4,0.7,3.7c0,2.4-0.6,4.3-1.8,5.8s-3,2.5-5.4,3L858.4,226.7z M839.3,209.5h1.6c1.7,0,3-0.3,3.9-1s1.4-1.6,1.4-2.9
			s-0.5-2.2-1.4-2.9s-2.2-1-3.9-1h-1.6V209.5z"/>
		<path class="st0" d="M876.8,195.5v31.2h-8.7v-31.2H876.8z"/>
		<path class="st0" d="M902.5,202.4v24.3h-8.7v-24.3h-7.1v-6.9h22.9v6.9H902.5z"/>
		<path class="st0" d="M938,203.5c-0.9-0.7-1.9-1.2-2.8-1.6c-0.9-0.3-1.9-0.5-2.7-0.5c-1.1,0-2,0.2-2.7,0.7s-1.1,1.1-1.1,1.9
			c0,0.6,0.2,1,0.5,1.4c0.4,0.4,0.8,0.7,1.4,0.9c0.6,0.3,1.2,0.5,1.9,0.7s1.4,0.4,2.1,0.6c2.8,0.9,4.9,2.1,6.2,3.5
			c1.3,1.5,2,3.4,2,5.8c0,1.6-0.3,3-0.9,4.3c-0.6,1.3-1.4,2.4-2.5,3.3c-1.1,0.9-2.5,1.6-4.1,2.1s-3.4,0.8-5.5,0.8
			c-4.2,0-8.1-1.2-11.7-3.5l3.7-6.5c1.3,1.1,2.6,1.9,3.8,2.4c1.3,0.5,2.5,0.8,3.8,0.8c1.4,0,2.5-0.3,3.2-0.9c0.7-0.6,1-1.3,1-2.1
			c0-0.5-0.1-0.9-0.3-1.2s-0.5-0.7-0.9-1s-1-0.6-1.6-0.8c-0.7-0.2-1.5-0.5-2.4-0.8c-1.1-0.3-2.2-0.7-3.3-1.1c-1.1-0.4-2-0.9-2.9-1.6
			c-0.8-0.7-1.5-1.5-2-2.5s-0.8-2.3-0.8-3.8s0.3-2.9,0.8-4.2s1.3-2.3,2.3-3.2s2.2-1.6,3.6-2.1c1.4-0.5,3-0.7,4.8-0.7
			c1.6,0,3.4,0.2,5.2,0.6c1.8,0.4,3.5,1.1,5.2,1.9L938,203.5z"/>
	</g>
</g>
</svg>
