<?xml version="1.0" encoding="utf-8"?>
<!-- Generator: Adobe Illustrator 23.0.6, SVG Export Plug-In . SVG Version: 6.00 Build 0)  -->
<svg version="1.1" id="Layer_1" xmlns="http://www.w3.org/2000/svg" xmlns:xlink="http://www.w3.org/1999/xlink" x="0px" y="0px"
	 viewBox="0 0 751.7 121.9" style="enable-background:new 0 0 751.7 121.9;" xml:space="preserve">
<style type="text/css">
	.st0{fill:#EAE5D3;}
</style>
<path class="st0" d="M609.5,42.4h31.6V1.8h-31.6V42.4z M228.5,2.8c-11.5,0-32.3-0.3-32.3-0.3c0.2,3.6,0.2,6.9,0,10.7h5.4
	c6.1,0,8.3,2.9,8.8,9.5c0.5,7.6,0.5,69.6,0,77.6c-0.5,5.8-1.7,7.1-8.8,7.1h-5.4c0.2,3.7,0.2,8.7,0,12.4c0,0,20.6-0.5,32.1-0.5
	c11.7,0,32.1,0.5,32.1,0.5c-0.2-3.7-0.2-8.7,0-12.4h-5.2c-6.6,0-8.5-1.3-8.8-7.1c-0.5-7.9-0.7-70,0-77.6c0.5-6.6,2.7-9.5,8.8-9.5
	h5.4c-0.2-3.7-0.2-7.1,0-10.7C259.8,2.5,240,2.8,228.5,2.8z M462.5,90.3c-2.6,14.6-8.9,17-19.1,17H437c-8.9,0-10.5-1.3-10.5-9.6
	c0-10.3-0.5-65.1,0-73.9c0.5-7.8,3.9-10.7,10.8-10.7h5.1c-0.2-3.7-0.2-6.9,0.2-10.6c-1.2,0-21,0.3-32.8,0.3c-12,0-33.1-0.3-33.1-0.3
	c0.2,3.6,0.2,6.9,0,10.6h5.4c6.1,0,8.3,4.1,8.8,10.7c0.5,7.6,0.5,62.7,0,72.4c-0.3,7.4-1.3,11.2-9.1,11.2h-5.6
	c0.2,3.7,0.2,8.5,0,12.1c8.8-0.2,22.7-0.2,29.8-0.2h38.9c8.5,0,21.6,0,33.3,0.7c-0.1-8-0.1-19.2,0.1-29.6H462.5z M354.6,90.3
	c-2.6,14.6-8.9,17-19.1,17H329c-8.9,0-10.5-1.3-10.5-9.6c0-10.3-0.5-65.1,0-73.9c0.5-7.8,3.9-10.7,10.8-10.7h5.1
	c-0.2-3.7-0.2-6.9,0.2-10.6c-1.2,0-21,0.3-32.8,0.3c-12,0-32.2-0.3-32.2-0.3c0.2,3.6,0.2,6.9,0,10.6h4.4c7.3-0.5,9,3.2,9.2,10.4
	c0.2,7.8-0.2,61.7-0.3,72.7c-0.1,6.9,0.9,11.5-9.2,11.1h-3.6c0.2,3.7,0.2,8.5,0,12.1c8.8-0.2,20.7-0.2,27.8-0.2h38.9
	c8.5,0,21.6,0,33.3,0.7c-0.1-8-0.1-19.2,0.1-29.6H354.6z M556.9,2.8h-36.6c-10,0-31.3-0.3-34-0.3c0.2,3.6,0.2,6.9,0,10.6h4.7
	c6.4,0,9.6,3,10.2,11.5c0.5,9.6,0.3,62.8-0.2,71.3c-0.5,7.4-2.7,11.2-10.5,11.2h-4.2c0.2,3.7,0.2,8.9,0,12.5
	c1.9,0,22.3-0.3,33.8-0.3h37.4c9.3,0,25.5,0.2,35.8,0.8c0-12.1-0.4-25.1,0.4-36.4l-16-0.2c-1.1,17-7.2,21.6-20.6,21.6h-9.4
	c-9.3,0-10.7-0.7-10.7-10.7c0-4.1-0.3-19.9-0.3-28.1h3.7c10.7,0,13.7,4.2,13.9,15.3h13.6c-0.5-5.9-0.7-11-0.7-20.9
	c0-9.9,0.3-14.1,0.8-20.5h-14c0,10.7-2.9,14.7-13.4,14.7h-3.9c0-9.6,0.3-24.5,0.3-29.5c0.1-10.2,2-10.2,10.5-10.1h9.5
	c11.4,0,19,2.7,20.1,20.4h16c0-11,0.3-23.4,1.1-34.1C586.5,2.6,564.2,2.8,556.9,2.8z M704.2,42.3c-21.7-2-29-5-29-13.9
	c0-7.6,6.7-13.6,23.7-13.6c17.5,0,29.2,7.1,34.2,23.2c1.7-0.2,10.4,0,12.1,0c-0.8-10.2-0.3-26.4,1.5-35.9c-1.3,0.2-10.7,0.2-12.1,0
	c-1,5.4-2,8.4-10.1,4.4C719.3,3.7,710.2,0,696.1,0c-29.9,0-44.3,17.5-44.3,39.4c0,21.7,13.9,34.4,44.5,37.1
	c23.2,2.4,32.7,5.9,32.7,15.8c0,9.4-8.7,14.9-25.3,14.9c-22.5,0-36.3-8.7-41.6-26.7c-1.7,0.2-10.6,0.2-12.3,0
	c0.7,11.1,0,27.7-1.5,39.3c1.5-0.2,11.2-0.2,12.8,0c0.8-6,3.4-9.9,10.2-6c9.2,5,18.3,8.1,32.7,8.1c30.2,0,47.7-14.4,47.7-40.1
	C751.7,55.7,734.4,45.2,704.2,42.3z M117.8,1.8v10.6h4.1c6.8-0.1,10.8,0.5,9.5,9c-1.5,9.7-11.4,49.9-15.2,63
	c-0.1,0.2-0.1,0.5-0.2,0.7c-3.2-10.8-21.1-83-21.1-83c-3.7,0-4.8,0.2-13.7,0.2c-7.3,0-8.7-0.1-11.9-0.1c0,0-16,69.1-19.6,81.2
	c-3.4-11.9-16.3-62.1-16.3-62.1c-1.4-7.3,1.5-9.1,9.9-8.8h3.2c-0.1-1.4-0.1-3.9-0.1-6.6h0c0-1.7,0.1-3.2,0.1-4.1
	c0,0-14.4,0.3-23.1,0.3c-8.5,0-21-0.3-23.5-0.3c0,0.9,0.1,2.4,0.1,4.1h0c0,2.7-0.1,5.2-0.1,6.6h3.9c8.1,0,10.9,1.2,14.4,11.8
	l2.3,7.4c1.6,5.1,13.6,48.6,19,67.6c1.6,5.5-2.5,6.8-7.3,6.8c-2.4,0-6.9-0.2-6.9-0.2c0.2,3.7,0.2,9.5,0.1,13.6
	c0,0,20.6-0.3,29.2-0.3c7.8,0,17,0.1,24.8,0.3c1.3-5.8,10.6-43.5,14.7-58.3c4.2,14.7,13.3,52.5,14.7,58.3
	c22.9-0.3,54.7,0.2,54.7,0.2c-0.2-3.7-0.1-9.4,0.1-13.1l-6.2,0.1c-4.2,0.2-9-0.8-7.2-8.1c7.2-28.6,18-67.5,20.7-77.8
	c2-7.6,5.3-8.3,11.7-8.3h4.6V1.8c0,0-22.2,0.3-34.8,0.3C140,2.2,120.2,1.8,117.8,1.8z"/>
</svg>
