<?xml version="1.0" encoding="utf-8"?>
<!-- Generator: Adobe Illustrator 23.0.6, SVG Export Plug-In . SVG Version: 6.00 Build 0)  -->
<svg version="1.1" id="Layer_1" xmlns="http://www.w3.org/2000/svg" xmlns:xlink="http://www.w3.org/1999/xlink" x="0px" y="0px"
	 viewBox="0 0 751.7 121.6" style="enable-background:new 0 0 751.7 121.6;" xml:space="preserve">
<style type="text/css">
	.st0{fill:#AE4D33;}
</style>
<g>
	<g>
		<rect x="609.8" y="1.8" class="st0" width="31.6" height="40.5"/>
		<g>
			<path class="st0" d="M197.4,107h5.4c7.1,0,8.3-1.3,8.8-7.1c0.5-7.9,0.5-69.8,0-77.4c-0.5-6.6-2.7-9.5-8.8-9.5h-5.4
				c0.2-3.7,0.2-7.1,0-10.6c0,0,20.8,0.3,32.2,0.3s31.2-0.3,32.1-0.3c-0.2,3.5-0.2,6.9,0,10.6h-5.4c-6.1,0-8.3,2.9-8.8,9.5
				c-0.7,7.6-0.5,69.5,0,77.4c0.3,5.7,2.2,7.1,8.8,7.1h5.2c-0.2,3.7-0.2,8.7,0,12.4c0,0-20.4-0.5-32.1-0.5
				c-11.5,0-32.1,0.5-32.1,0.5C197.6,115.7,197.6,110.7,197.4,107z"/>
			<path class="st0" d="M478.7,90.1h-15.6c-2.6,14.5-8.9,17-19.1,17h-6.4c-8.8,0-10.5-1.3-10.5-9.6c0-10.3-0.5-65,0-73.7
				c0.5-7.8,3.9-10.6,10.8-10.6h5.1c-0.2-3.7-0.2-6.9,0.2-10.6c-1.2,0-20.9,0.3-32.7,0.3c-12,0-33.1-0.3-33.1-0.3
				c0.2,3.5,0.2,6.9,0,10.6h5.4c6.1,0,8.3,4,8.8,10.6c0.5,7.6,0.5,62.6,0,72.2c-0.3,7.4-1.3,11.1-9.1,11.1h-5.6
				c0.2,3.7,0.2,8.5,0,12c8.8-0.2,22.6-0.2,29.7-0.2h38.8c8.4,0,21.6,0,33.2,0.7C478.5,111.6,478.6,100.4,478.7,90.1z"/>
			<path class="st0" d="M371,90.1h-15.6c-2.6,14.5-8.9,17-19.1,17h-6.4c-8.8,0-10.5-1.3-10.5-9.6c0-10.3-0.5-65,0-73.7
				c0.5-7.8,3.9-10.6,10.8-10.6h5.1c-0.2-3.7-0.2-6.9,0.2-10.6c-1.2,0-20.9,0.3-32.7,0.3c-12,0-32.1-0.3-32.1-0.3
				c0.2,3.5,0.2,6.9,0,10.6h4.4c7.2-0.5,9,3.2,9.1,10.4c0.2,7.8-0.2,61.5-0.3,72.5c-0.1,6.9,0.9,11.5-9.2,11.1h-3.6
				c0.2,3.7,0.2,8.5,0,12c8.8-0.2,20.7-0.2,27.8-0.2h38.8c8.4,0,21.6,0,33.2,0.7C370.8,111.6,370.8,100.4,371,90.1z"/>
			<path class="st0" d="M578.2,83.2c-1.1,16.9-7.1,21.5-20.5,21.5h-9.3c-9.2,0-10.6-0.7-10.6-10.6c0-4.1-0.3-19.9-0.3-28h3.7
				c10.7,0,13.6,4.1,13.8,15.3h13.5c-0.5-5.9-0.7-10.9-0.7-20.8s0.3-14.1,0.8-20.4h-14c0,10.6-2.9,14.7-13.3,14.7h-3.9
				c0-9.6,0.3-24.5,0.3-29.4c0.1-10.1,2-10.1,10.5-10.1h9.5c11.3,0,19,2.7,20.1,20.4h15.9c0-11,0.3-23.3,1.1-34
				c-7.9,1-30.2,1.2-37.4,1.2h-36.5c-10,0-31.2-0.3-33.9-0.3c0.2,3.5,0.2,6.9,0,10.6h4.7c6.4,0,9.6,3,10.1,11.5
				c0.5,9.6,0.3,62.7-0.2,71.1c-0.5,7.4-2.7,11.1-10.5,11.1h-4.2c0.2,3.7,0.2,8.9,0,12.4c1.9,0,22.3-0.3,33.8-0.3H558
				c9.3,0,25.5,0.2,35.7,0.8c0-12-0.4-25,0.4-36.3L578.2,83.2z"/>
			<path class="st0" d="M188.6,1.8v10.6H184c-6.5,0-9.7,0.7-11.7,8.3c-2.7,10.3-13.5,49.1-20.7,77.7c-1.8,7.3,2.9,8.3,7.1,8.1
				l6.2-0.1c-0.2,3.7-0.2,9.4-0.1,13.1c0,0-31.7-0.5-54.5-0.2c-1.3-5.7-11.7-43.1-16-57.7c-4,14.7-12,52-13.3,57.7
				c-7.8-0.2-18.6-0.3-26.4-0.3c-8.6,0-29.1,0.3-29.1,0.3c0.2-4.1,0.1-9.9-0.1-13.6c0,0,4.4,0.1,6.9,0.2c3.9,0.2,9.2,0.5,7.3-6.8
				c-5.1-19-17.3-62.3-19-67.4l-2.3-7.4C14.8,13.7,12,12.5,3.9,12.5H0c0.1-1.4,0.1-3.9,0.1-6.6l0,0c0-1.7,0-3.1-0.1-4.1
				c2.5,0,15,0.3,23.5,0.3c8.6,0,23-0.3,23-0.3c0,0.9-0.1,2.4-0.1,4.1l0,0c0,2.7,0.1,5.2,0.1,6.6h-3.2c-8.4-0.3-11.3,1.5-9.9,8.8
				c0,0.1,12.9,50.1,16.2,62C53.2,71.1,66.8,2.1,66.8,2.1C70,2.1,80,2.4,82.7,2.4c3,0,12.3-0.3,16-0.3c0,0,15.5,72,18.7,82.8
				c0.1-0.2,0.1-0.4,0.2-0.7c3.8-13.1,13.7-53.2,15.2-62.9c1.3-8.4-2.7-9-9.5-8.9h-4V1.8c2.4,0,22.1,0.3,34.6,0.3
				C166.4,2.2,188.6,1.8,188.6,1.8z"/>
			<path class="st0" d="M675.3,28.3c0,8.9,7.4,11.9,29,13.9c30.1,2.8,47.4,13.4,47.4,39.4c0,25.6-17.4,40-47.6,40
				c-14.4,0-23.4-3-32.7-8c-6.9-3.9-9.4,0-10.2,6c-1.5-0.2-11.2-0.2-12.7,0c1.5-11.6,2.2-28.1,1.5-39.2c1.7,0.2,10.6,0.2,12.2,0
				c5.4,17.9,19.1,26.6,41.5,26.6c16.6,0,25.3-5.5,25.3-14.9c0-9.9-9.5-13.4-32.7-15.7C665.9,73.7,652,61,652,39.4
				c0-22,14.4-39.4,44.2-39.4c14.1,0,23.1,3.7,28.3,6.4c8,4,9,1,10-4.4c1.3,0.2,10.7,0.2,12.1,0c-1.8,9.5-2.3,25.6-1.5,35.8
				c-1.7,0-10.4-0.2-12.1,0c-5-16.1-16.7-23.1-34.2-23.1C682,14.7,675.3,20.8,675.3,28.3z"/>
		</g>
	</g>
</g>
</svg>
